{
.appVersion = "1352";
DisplayStrings = (
abcdefghijklmnopqrstuvwxyz,
ABCDEFGHIJKLMNOPQRSTUVWXYZ
);
copyright = "Copyright 2008-2021 The Petemoss Project Authors (https://github.com/googlefonts/petemoss)";
customParameters = (
{
name = licenseURL;
value = "https://scripts.sil.org/OFL";
},
{
name = license;
value = "This Font Software is licensed under the SIL Open Font License, Version 1.1. This license is available with a FAQ at: https://scripts.sil.org/OFL";
},
{
name = vendorID;
value = GOOG;
},
{
name = "Disable Subroutines";
value = 1;
},
{
name = glyphOrder;
value = (
.notdef,
CR,
NULL,
space,
nbspace
);
},
{
name = fsType;
value = (
);
},
{
name = "Use Typo Metrics";
value = 1;
},
{
name = Axes;
value = (
{
Name = Weight;
Tag = wght;
}
);
}
);
date = "2021-09-02 23:45:01 +0000";
designer = "Robert E. Leuschke";
designerURL = www.typesetit.com;
disablesAutomaticAlignment = 1;
disablesNiceNames = 1;
familyName = Petemoss;
featurePrefixes = (
{
automatic = 1;
code = "languagesystem DFLT dflt;\012\012languagesystem latn dflt;\012languagesystem latn AZE;\012languagesystem latn CRT;\012languagesystem latn KAZ;\012languagesystem latn TAT;\012languagesystem latn TRK;\012";
name = Languagesystems;
}
);
features = (
{
automatic = 1;
code = "feature locl;\012feature sups;\012feature frac;\012feature ordn;\012";
name = aalt;
},
{
automatic = 1;

glyphs = (
{
color = 3;
glyphname = .notdef;
lastChange = "2021-08-02 20:56:00 +0000";
layers = (
{
layerId = "BE19588B-E19B-4B9D-8A17-411D65DA33D8";
paths = (
{
closed = 1;
nodes = (
"49 0 LINE",
"436 0 LINE",
"444 9 LINE",
"444 573 LINE",
"436 582 LINE",
"49 582 LINE",
"40 573 LINE",
"40 9 LINE"
);
},
{
closed = 1;
nodes = (
"56 566 LINE",
"430 566 LINE",
"430 16 LINE",
"56 16 LINE"
);
},
{
closed = 1;
nodes = (
"87 45 LINE",
"397 45 LINE",
"397 533 LINE",
"87 533 LINE"
);
},
{
closed = 1;
nodes = (
"136 139 LINE",
"219 292 LINE",
"136 443 LINE",
"153 476 LINE",
"236 324 LINE",
"321 476 LINE",
"340 443 LINE",
"254 290 LINE",
"340 139 LINE",
"321 107 LINE",
"236 257 LINE",
"153 107 LINE"
);
}
);
userData = {
assembly = "NPUSHB[ ]	/* 31 values pushed */\0121 8 8 64 9 2 7 4 5 1 0 6 5 5 3 2 5 4 7 0 7 6 7 1 2 1 3 0 1 0 70 \012SROUND[ ]	/* SuperRound */\012MDAP[1]	/* MoveDirectAbsPt */\012SHZ[1]	/* ShiftZoneByLastPoint */\012RTG[ ]	/* RoundToGrid */\012SVTCA[0]	/* SetFreedomAndProjectionVectorToAxis */\012MDAP[1]	/* MoveDirectAbsPt */\012ALIGNRP[ ]	/* AlignRelativePt */\012MDAP[1]	/* MoveDirectAbsPt */\012ALIGNRP[ ]	/* AlignRelativePt */\012SRP0[ ]	/* SetRefPoint0 */\012MIRP[11101]	/* MoveIndirectRelPt */\012ALIGNRP[ ]	/* AlignRelativePt */\012SRP0[ ]	/* SetRefPoint0 */\012MIRP[11101]	/* MoveIndirectRelPt */\012ALIGNRP[ ]	/* AlignRelativePt */\012SVTCA[1]	/* SetFreedomAndProjectionVectorToAxis */\012MDAP[1]	/* MoveDirectAbsPt */\012ALIGNRP[ ]	/* AlignRelativePt */\012MIRP[11101]	/* MoveIndirectRelPt */\012ALIGNRP[ ]	/* AlignRelativePt */\012MDAP[1]	/* MoveDirectAbsPt */\012ALIGNRP[ ]	/* AlignRelativePt */\012MIRP[11101]	/* MoveIndirectRelPt */\012ALIGNRP[ ]	/* AlignRelativePt */\012SVTCA[0]	/* SetFreedomAndProjectionVectorToAxis */\012IUP[1]	/* InterpolateUntPts */\012IUP[0]	/* InterpolateUntPts */\012SVTCA[1]	/* SetFreedomAndProjectionVectorToAxis */\012MD[0]	/* MeasureDistance */\012ROUND[00]	/* Round */\012PUSHW[ ]	/* 2 values pushed */\0120 8 \012MD[0]	/* MeasureDistance */\012ROUND[00]	/* Round */\012SUB[ ]	/* Subtract */\012PUSHB[ ]	/* 1 value pushed */\01264 \012GT[ ]	/* GreaterThan */\012IF[ ]	/* If */\012SHPIX[ ]	/* ShiftZoneByPixel */\012SRP1[ ]	/* SetRefPoint1 */\012SHZ[1]	/* ShiftZoneByLastPoint */\012PUSHW[ ]	/* 2 values pushed */\0128 -64 \012SHPIX[ ]	/* ShiftZoneByPixel */\012EIF[ ]	/* EndIf */";
};
width = 500;
}
);
note = .notdef;
},
{
color = 3;
glyphname = A;
lastChange = "2021-08-02 20:56:00 +0000";
layers = (
{
layerId = "BE19588B-E19B-4B9D-8A17-411D65DA33D8";
paths = (
{
closed = 1;
nodes = (
"738 492 OFFCURVE",
"731 510 OFFCURVE",
"717 510 CURVE SMOOTH",
"706.333 510 OFFCURVE",
"687 493 OFFCURVE",
"661 456 CURVE SMOOTH",
"577 335 LINE SMOOTH",
"544 287 OFFCURVE",
"515.333 247.667 OFFCURVE",
"490 217 CURVE",
"481.333 217 OFFCURVE",
"468 218 OFFCURVE",
"450 220 CURVE SMOOTH",
"432 222 OFFCURVE",
"418.667 223 OFFCURVE",
"410 223 CURVE SMOOTH",
"394 223 OFFCURVE",
"386 214 OFFCURVE",
"386 196 CURVE SMOOTH",
"386 182.667 OFFCURVE",
"399.333 176 OFFCURVE",
"426 176 CURVE SMOOTH",
"435.333 176 OFFCURVE",
"440 178 OFFCURVE",
"440 182 CURVE SMOOTH",
"440 184 OFFCURVE",
"435 187.667 OFFCURVE",
"425 193 CURVE",
"427 193 LINE",
"437 192 LINE SMOOTH",
"454 190 OFFCURVE",
"464.667 190 OFFCURVE",
"470 190 CURVE",
"410.667 116.667 OFFCURVE",
"365.333 65.333 OFFCURVE",
"334 36 CURVE SMOOTH",
"268.667 -25.333 OFFCURVE",
"211.333 -56 OFFCURVE",
"162 -56 CURVE SMOOTH",
"122 -56 OFFCURVE",
"91.667 -42 OFFCURVE",
"71 -14 CURVE SMOOTH",
"53 10 OFFCURVE",
"44 42.667 OFFCURVE",
"44 84 CURVE SMOOTH",
"44 138.667 OFFCURVE",
"56 188.667 OFFCURVE",
"80 234 CURVE SMOOTH",
"98 268.667 OFFCURVE",
"122.667 298.333 OFFCURVE",
"154 323 CURVE SMOOTH",
"189.333 351.667 OFFCURVE",
"224.333 366 OFFCURVE",
"259 366 CURVE SMOOTH",
"300.333 366 OFFCURVE",
"328 329.667 OFFCURVE",
"328 287 CURVE SMOOTH",
"328 275 OFFCURVE",
"324.167 259 OFFCURVE",
"316.5 239 CURVE SMOOTH",
"308.833 219 OFFCURVE",
"305 207.667 OFFCURVE",
"305 205 CURVE SMOOTH",
"305 199 OFFCURVE",
"307.667 196 OFFCURVE",
"313 196 CURVE SMOOTH",
"327 196 OFFCURVE",
"338.333 210.333 OFFCURVE",
"347 239 CURVE SMOOTH",
"353.667 261 OFFCURVE",
"357 280.667 OFFCURVE",
"357 298 CURVE SMOOTH",
"357 360 OFFCURVE",
"325.333 391 OFFCURVE",
"262 391 CURVE SMOOTH",
"208 391 OFFCURVE",
"156.667 366.333 OFFCURVE",
"108 317 CURVE SMOOTH",
"39.333 247.667 OFFCURVE",
"5 172.667 OFFCURVE",
"5 92 CURVE SMOOTH",
"5 -9.333 OFFCURVE",
"66 -82 OFFCURVE",
"166 -82 CURVE SMOOTH",
"254 -82 OFFCURVE",
"365.667 8 OFFCURVE",
"501 188 CURVE",
"608 186 LINE",
"596 130.667 OFFCURVE",
"590 86 OFFCURVE",
"590 52 CURVE SMOOTH",
"590 2 OFFCURVE",
"605 -23 OFFCURVE",
"635 -23 CURVE SMOOTH",
"647 -23 OFFCURVE",
"658.667 -20.333 OFFCURVE",
"670 -15 CURVE SMOOTH",
"684 -9 OFFCURVE",
"691 -0.667 OFFCURVE",
"691 10 CURVE SMOOTH",
"691 18 OFFCURVE",
"688.667 22 OFFCURVE",
"684 22 CURVE SMOOTH",
"682 22 OFFCURVE",
"677.5 18.667 OFFCURVE",
"670.5 12 CURVE SMOOTH",
"663.5 5.333 OFFCURVE",
"658 2 OFFCURVE",
"654 2 CURVE SMOOTH",
"652 2 OFFCURVE",
"650 2.667 OFFCURVE",
"648 4 CURVE SMOOTH",
"629.333 14 OFFCURVE",
"620 38 OFFCURVE",
"620 76 CURVE SMOOTH",
"620 105.333 OFFCURVE",
"625.333 142.333 OFFCURVE",
"636 187 CURVE",
"703.333 191.667 OFFCURVE",
"737 199 OFFCURVE",
"737 209 CURVE SMOOTH",
"737 214.333 OFFCURVE",
"728.333 217 OFFCURVE",
"711 217 CURVE SMOOTH",
"697 217 LINE SMOOTH",
"688 217 OFFCURVE",
"681.667 216 OFFCURVE",
"677 216 CURVE SMOOTH",
"643 216 LINE",
"660.333 276.667 OFFCURVE",
"681.333 334.333 OFFCURVE",
"706 389 CURVE SMOOTH",
"712.667 403.667 OFFCURVE",
"720.333 415.333 OFFCURVE",
"729 424 CURVE SMOOTH",
"735 428.667 OFFCURVE",
"738 439.333 OFFCURVE",
"738 456 CURVE SMOOTH"
);
},
{
closed = 1;
nodes = (
"647 338.667 OFFCURVE",
"627.333 276.333 OFFCURVE",
"612 215 CURVE",
"567 215 LINE SMOOTH",
"560.333 215 OFFCURVE",
"552 216 OFFCURVE",
"541 216 CURVE SMOOTH",
"523 216 LINE",
"569.667 278 OFFCURVE",
"619 340 OFFCURVE",
"671 402 CURVE"
);
}
);
userData = {
assembly = "NPUSHB[ ]	/* 68 values pushed */\0121 108 108 64 109 0 98 79 78 37 25 22 100 98 85 81 79 74 54 35 14 6 0 27 5 33 66 5 42 33 5 18 48 5 57 52 7 46 31 7 6 87 7 83 106 102 100 90 12 10 8 6 8 104 7 35 70 7 39 60 7 46 39 96 3 1 42 70 \012SROUND[ ]	/* SuperRound */\012MDAP[1]	/* MoveDirectAbsPt */\012SHZ[1]	/* ShiftZoneByLastPoint */\012RTG[ ]	/* RoundToGrid */\012SVTCA[0]	/* SetFreedomAndProjectionVectorToAxis */\012MIAP[1]	/* MoveIndirectAbsPt */\012MDAP[1]	/* MoveDirectAbsPt */\012MDAP[1]	/* MoveDirectAbsPt */\012MIRP[11101]	/* MoveIndirectRelPt */\012SRP0[ ]	/* SetRefPoint0 */\012MIRP[11101]	/* MoveIndirectRelPt */\012MDAP[1]	/* MoveDirectAbsPt */\012MIRP[11101]	/* MoveIndirectRelPt */\012SLOOP[ ]	/* SetLoopVariable */\012ALIGNRP[ ]	/* AlignRelativePt */\012MDAP[1]	/* MoveDirectAbsPt */\012MIRP[11101]	/* MoveIndirectRelPt */\012SRP0[ ]	/* SetRefPoint0 */\012MIRP[11101]	/* MoveIndirectRelPt */\012SRP0[ ]	/* SetRefPoint0 */\012MIRP[11101]	/* MoveIndirectRelPt */\012SVTCA[1]	/* SetFreedomAndProjectionVectorToAxis */\012MDAP[1]	/* MoveDirectAbsPt */\012MIRP[11101]	/* MoveIndirectRelPt */\012MDAP[1]	/* MoveDirectAbsPt */\012MIRP[11101]	/* MoveIndirectRelPt */\012MDAP[1]	/* MoveDirectAbsPt */\012MIRP[11101]	/* MoveIndirectRelPt */\012SRP0[ ]	/* SetRefPoint0 */\012MIRP[11101]	/* MoveIndirectRelPt */\012MDAP[0]	/* MoveDirectAbsPt */\012MDAP[0]	/* MoveDirectAbsPt */\012MDAP[0]	/* MoveDirectAbsPt */\012MDAP[0]	/* MoveDirectAbsPt */\012MDAP[0]	/* MoveDirectAbsPt */\012MDAP[0]	/* MoveDirectAbsPt */\012MDAP[0]	/* MoveDirectAbsPt */\012MDAP[0]	/* MoveDirectAbsPt */\012MDAP[0]	/* MoveDirectAbsPt */\012MDAP[0]	/* MoveDirectAbsPt */\012MDAP[0]	/* MoveDirectAbsPt */\012SVTCA[0]	/* SetFreedomAndProjectionVectorToAxis */\012MDAP[0]	/* MoveDirectAbsPt */\012MDAP[0]	/* MoveDirectAbsPt */\012MDAP[0]	/* MoveDirectAbsPt */\012MDAP[0]	/* MoveDirectAbsPt */\012MDAP[0]	/* MoveDirectAbsPt */\012MDAP[0]	/* MoveDirectAbsPt */\012IUP[1]	/* InterpolateUntPts */\012IUP[0]	/* InterpolateUntPts */\012SVTCA[1]	/* SetFreedomAndProjectionVectorToAxis */\012MD[0]	/* MeasureDistance */\012ROUND[00]	/* Round */\012PUSHW[ ]	/* 2 values pushed */\01242 108 \012MD[0]	/* MeasureDistance */\012ROUND[00]	/* Round */\012SUB[ ]	/* Subtract */\012PUSHB[ ]	/* 1 value pushed */\01264 \012GT[ ]	/* GreaterThan */\012IF[ ]	/* If */\012SHPIX[ ]	/* ShiftZoneByPixel */\012SRP1[ ]	/* SetRefPoint1 */\012SHZ[1]	/* ShiftZoneByLastPoint */\012PUSHW[ ]	/* 2 values pushed */\012108 -64 \012SHPIX[ ]	/* ShiftZoneByPixel */\012EIF[ ]	/* EndIf */";
};
width = 698;
}
);
note = A;
unicode = 0041;
},
{
color = 3;
glyphname = AE;
lastChange = "2021-08-02 20:56:00 +0000";
layers = (
{
layerId = "BE19588B-E19B-4B9D-8A17-411D65DA33D8";
paths = (
{
closed = 1;
nodes = (
"1124 500.667 OFFCURVE",
"1122 502 OFFCURVE",
"1118 502 CURVE SMOOTH",
"1105.333 502 OFFCURVE",
"1084.333 493 OFFCURVE",
"1055 475 CURVE",
"1037.667 484.333 OFFCURVE",
"1013.333 489 OFFCURVE",
"982 489 CURVE SMOOTH",
"935.333 489 OFFCURVE",
"892.333 480.667 OFFCURVE",
"853 464 CURVE SMOOTH",
"784.333 434.667 OFFCURVE",
"750 394.667 OFFCURVE",
"750 344 CURVE SMOOTH",
"750 316.667 OFFCURVE",
"761.333 292 OFFCURVE",
"784 270 CURVE",
"724 248 OFFCURVE",
"676.333 225.333 OFFCURVE",
"641 202 CURVE",
"662.333 276 OFFCURVE",
"684 338.333 OFFCURVE",
"706 389 CURVE SMOOTH",
"712.667 404.333 OFFCURVE",
"720.333 416 OFFCURVE",
"729 424 CURVE SMOOTH",
"735 428.667 OFFCURVE",
"738 439.333 OFFCURVE",
"738 456 CURVE SMOOTH",
"738 492 OFFCURVE",
"731 510 OFFCURVE",
"717 510 CURVE SMOOTH",
"706.333 510 OFFCURVE",
"687.667 492 OFFCURVE",
"661 456 CURVE SMOOTH",
"577 335 LINE SMOOTH",
"543 285.667 OFFCURVE",
"514 246.333 OFFCURVE",
"490 217 CURVE",
"481.333 217 OFFCURVE",
"468 218 OFFCURVE",
"450 220 CURVE SMOOTH",
"432 222 OFFCURVE",
"418.667 223 OFFCURVE",
"410 223 CURVE SMOOTH",
"394 223 OFFCURVE",
"386 214 OFFCURVE",
"386 196 CURVE SMOOTH",
"386 182.667 OFFCURVE",
"399.333 176 OFFCURVE",
"426 176 CURVE SMOOTH",
"435.333 176 OFFCURVE",
"440 178 OFFCURVE",
"440 182 CURVE SMOOTH",
"440 184.667 OFFCURVE",
"435 188.333 OFFCURVE",
"425 193 CURVE",
"427 193 LINE",
"437 192 LINE SMOOTH",
"453.667 190.667 OFFCURVE",
"464.667 190 OFFCURVE",
"470 190 CURVE",
"410.667 116.667 OFFCURVE",
"365.333 65.333 OFFCURVE",
"334 36 CURVE SMOOTH",
"268.667 -25.333 OFFCURVE",
"211.333 -56 OFFCURVE",
"162 -56 CURVE SMOOTH",
"122 -56 OFFCURVE",
"91.667 -42 OFFCURVE",
"71 -14 CURVE SMOOTH",
"53 10 OFFCURVE",
"44 42.667 OFFCURVE",
"44 84 CURVE SMOOTH",
"44 138.667 OFFCURVE",
"56 188.667 OFFCURVE",
"80 234 CURVE SMOOTH",
"98 268.667 OFFCURVE",
"122.667 298.333 OFFCURVE",
"154 323 CURVE SMOOTH",
"189.333 351.667 OFFCURVE",
"224.333 366 OFFCURVE",
"259 366 CURVE SMOOTH",
"301.667 366 OFFCURVE",
"328 331 OFFCURVE",
"328 287 CURVE SMOOTH",
"328 275 OFFCURVE",
"324.167 259 OFFCURVE",
"316.5 239 CURVE SMOOTH",
"308.833 219 OFFCURVE",
"305 207.667 OFFCURVE",
"305 205 CURVE SMOOTH",
"305 199 OFFCURVE",
"307.667 196 OFFCURVE",
"313 196 CURVE SMOOTH",
"327 196 OFFCURVE",
"338.333 210.333 OFFCURVE",
"347 239 CURVE SMOOTH",
"353.667 261 OFFCURVE",
"357 280.667 OFFCURVE",
"357 298 CURVE SMOOTH",
"357 360 OFFCURVE",
"325.333 391 OFFCURVE",
"262 391 CURVE SMOOTH",
"208.667 391 OFFCURVE",
"157.333 366.333 OFFCURVE",
"108 317 CURVE SMOOTH",
"39.333 248.333 OFFCURVE",
"5 173.333 OFFCURVE",
"5 92 CURVE SMOOTH",
"5 -8 OFFCURVE",
"66 -82 OFFCURVE",
"166 -82 CURVE SMOOTH",
"254 -82 OFFCURVE",
"365.667 8 OFFCURVE",
"501 188 CURVE",
"608 186 LINE",
"586.667 126 OFFCURVE",
"576 88 OFFCURVE",
"576 72 CURVE SMOOTH",
"576 28 OFFCURVE",
"599.667 -6.333 OFFCURVE",
"647 -31 CURVE SMOOTH",
"685.667 -51 OFFCURVE",
"729.333 -61 OFFCURVE",
"778 -61 CURVE SMOOTH",
"828.667 -61 OFFCURVE",
"878.333 -52.667 OFFCURVE",
"927 -36 CURVE SMOOTH",
"967.667 -22 OFFCURVE",
"1004.667 -1.333 OFFCURVE",
"1038 26 CURVE SMOOTH",
"1079.333 60 OFFCURVE",
"1100 95 OFFCURVE",
"1100 131 CURVE SMOOTH",
"1100 145 OFFCURVE",
"1096.667 157.333 OFFCURVE",
"1090 168 CURVE SMOOTH",
"1081.333 179.333 OFFCURVE",
"1070.667 185 OFFCURVE",
"1058 185 CURVE SMOOTH",
"1041.333 185 OFFCURVE",
"1033 181.333 OFFCURVE",
"1033 174 CURVE SMOOTH",
"1033 172.667 OFFCURVE",
"1038.333 166.667 OFFCURVE",
"1049 156 CURVE SMOOTH",
"1059.667 145.333 OFFCURVE",
"1065 135 OFFCURVE",
"1065 125 CURVE SMOOTH",
"1065 117 OFFCURVE",
"1062 107.333 OFFCURVE",
"1056 96 CURVE SMOOTH",
"1034 53.333 OFFCURVE",
"997.333 20.333 OFFCURVE",
"946 -3 CURVE SMOOTH",
"900 -23.667 OFFCURVE",
"850.667 -34 OFFCURVE",
"798 -34 CURVE SMOOTH",
"752.667 -34 OFFCURVE",
"713.667 -24.667 OFFCURVE",
"681 -6 CURVE SMOOTH",
"641 16.667 OFFCURVE",
"621 49 OFFCURVE",
"621 91 CURVE SMOOTH",
"621 129.667 OFFCURVE",
"643 164.667 OFFCURVE",
"687 196 CURVE SMOOTH",
"721 220 OFFCURVE",
"761 238.333 OFFCURVE",
"807 251 CURVE",
"841 227.667 OFFCURVE",
"880 216 OFFCURVE",
"924 216 CURVE SMOOTH",
"940 216 OFFCURVE",
"955 218.667 OFFCURVE",
"969 224 CURVE SMOOTH",
"987.667 231.333 OFFCURVE",
"997 241.667 OFFCURVE",
"997 255 CURVE SMOOTH",
"997 281 OFFCURVE",
"966.333 294 OFFCURVE",
"905 294 CURVE SMOOTH",
"877.667 294 OFFCURVE",
"848 289.333 OFFCURVE",
"816 280 CURVE",
"798 296 OFFCURVE",
"789 315 OFFCURVE",
"789 337 CURVE SMOOTH",
"789 378.333 OFFCURVE",
"812.333 410.667 OFFCURVE",
"859 434 CURVE SMOOTH",
"896.333 452.667 OFFCURVE",
"938 462 OFFCURVE",
"984 462 CURVE SMOOTH",
"1001.333 462 OFFCURVE",
"1015.667 460 OFFCURVE",
"1027 456 CURVE",
"995 430 OFFCURVE",
"979 404.333 OFFCURVE",
"979 379 CURVE SMOOTH",
"979 355 OFFCURVE",
"993.333 343 OFFCURVE",
"1022 343 CURVE SMOOTH",
"1059.333 343 OFFCURVE",
"1088 380.333 OFFCURVE",
"1088 419 CURVE SMOOTH",
"1088 436.333 OFFCURVE",
"1082.333 450.667 OFFCURVE",
"1071 462 CURVE",
"1075.667 465.333 OFFCURVE",
"1079.333 467.667 OFFCURVE",
"1082 469 CURVE SMOOTH",
"1090 473 OFFCURVE",
"1098.333 476.667 OFFCURVE",
"1107 480 CURVE SMOOTH",
"1118.333 486 OFFCURVE",
"1124 492 OFFCURVE",
"1124 498 CURVE SMOOTH"
);
},
{
closed = 1;
nodes = (
"1055 400 OFFCURVE",
"1037.667 369 OFFCURVE",
"1019 369 CURVE SMOOTH",
"1007.667 369 OFFCURVE",
"1002 374 OFFCURVE",
"1002 384 CURVE SMOOTH",
"1002 400.667 OFFCURVE",
"1016.333 420.333 OFFCURVE",
"1045 443 CURVE",
"1051.667 437 OFFCURVE",
"1055 429.333 OFFCURVE",
"1055 420 CURVE SMOOTH"
);
},
{
closed = 1;
nodes = (
"961 244 OFFCURVE",
"950.333 239 OFFCURVE",
"929 239 CURVE SMOOTH",
"899.667 239 OFFCURVE",
"871.333 245.667 OFFCURVE",
"844 259 CURVE",
"866.667 263 OFFCURVE",
"888 265 OFFCURVE",
"908 265 CURVE SMOOTH",
"943.333 265 OFFCURVE",
"961 261.333 OFFCURVE",
"961 254 CURVE SMOOTH"
);
},
{
closed = 1;
nodes = (
"647 338.667 OFFCURVE",
"627.333 276.333 OFFCURVE",
"612 215 CURVE",
"567 215 LINE SMOOTH",
"560.333 215 OFFCURVE",
"551.667 215.333 OFFCURVE",
"541 216 CURVE SMOOTH",
"523 216 LINE",
"569.667 278 OFFCURVE",
"619 340 OFFCURVE",
"671 402 CURVE"
);
}
);
userData = {
assembly = "NPUSHB[ ]	/* 98 values pushed */\0121 177 177 64 178 0 167 152 146 136 120 116 112 111 85 70 52 33 23 169 167 163 138 136 130 118 114 112 107 87 68 50 15 6 0 66 5 37 99 5 75 140 5 21 13 6 154 47 5 56 81 5 90 150 5 8 159 5 27 11 7 156 17 7 144 31 7 165 41 7 62 175 171 169 123 4 173 7 68 103 7 72 93 7 79 161 7 25 72 148 3 144 3 128 3 1 75 70 \012SROUND[ ]	/* SuperRound */\012MDAP[1]	/* MoveDirectAbsPt */\012SHZ[1]	/* ShiftZoneByLastPoint */\012RTG[ ]	/* RoundToGrid */\012SVTCA[0]	/* SetFreedomAndProjectionVectorToAxis */\012MIAP[1]	/* MoveIndirectAbsPt */\012MIAP[1]	/* MoveIndirectAbsPt */\012MIAP[1]	/* MoveIndirectAbsPt */\012MDAP[1]	/* MoveDirectAbsPt */\012MDAP[1]	/* MoveDirectAbsPt */\012MIRP[11101]	/* MoveIndirectRelPt */\012MDAP[1]	/* MoveDirectAbsPt */\012MIRP[11101]	/* MoveIndirectRelPt */\012SRP0[ ]	/* SetRefPoint0 */\012MIRP[11101]	/* MoveIndirectRelPt */\012MDAP[1]	/* MoveDirectAbsPt */\012MIRP[11101]	/* MoveIndirectRelPt */\012SLOOP[ ]	/* SetLoopVariable */\012ALIGNRP[ ]	/* AlignRelativePt */\012MDAP[1]	/* MoveDirectAbsPt */\012MIRP[11101]	/* MoveIndirectRelPt */\012MDAP[1]	/* MoveDirectAbsPt */\012MIRP[11101]	/* MoveIndirectRelPt */\012SRP0[ ]	/* SetRefPoint0 */\012MIRP[11101]	/* MoveIndirectRelPt */\012MDAP[1]	/* MoveDirectAbsPt */\012MIRP[11101]	/* MoveIndirectRelPt */\012SVTCA[1]	/* SetFreedomAndProjectionVectorToAxis */\012MDAP[1]	/* MoveDirectAbsPt */\012MIRP[11101]	/* MoveIndirectRelPt */\012MDAP[1]	/* MoveDirectAbsPt */\012MIRP[11101]	/* MoveIndirectRelPt */\012MDAP[1]	/* MoveDirectAbsPt */\012MIRP[11101]	/* MoveIndirectRelPt */\012MDAP[1]	/* MoveDirectAbsPt */\012MIRP[11101]	/* MoveIndirectRelPt */\012MDAP[1]	/* MoveDirectAbsPt */\012MIRP[11101]	/* MoveIndirectRelPt */\012MDAP[1]	/* MoveDirectAbsPt */\012MIRP[11101]	/* MoveIndirectRelPt */\012MDAP[1]	/* MoveDirectAbsPt */\012MIRP[11101]	/* MoveIndirectRelPt */\012MDAP[1]	/* MoveDirectAbsPt */\012MIRP[11101]	/* MoveIndirectRelPt */\012MDAP[0]	/* MoveDirectAbsPt */\012MDAP[0]	/* MoveDirectAbsPt */\012MDAP[0]	/* MoveDirectAbsPt */\012MDAP[0]	/* MoveDirectAbsPt */\012MDAP[0]	/* MoveDirectAbsPt */\012MDAP[0]	/* MoveDirectAbsPt */\012MDAP[0]	/* MoveDirectAbsPt */\012MDAP[0]	/* MoveDirectAbsPt */\012MDAP[0]	/* MoveDirectAbsPt */\012MDAP[0]	/* MoveDirectAbsPt */\012MDAP[0]	/* MoveDirectAbsPt */\012MDAP[0]	/* MoveDirectAbsPt */\012MDAP[0]	/* MoveDirectAbsPt */\012MDAP[0]	/* MoveDirectAbsPt */\012MDAP[0]	/* MoveDirectAbsPt */\012MDAP[0]	/* MoveDirectAbsPt */\012SVTCA[0]	/* SetFreedomAndProjectionVectorToAxis */\012MDAP[0]	/* MoveDirectAbsPt */\012MDAP[0]	/* MoveDirectAbsPt */\012MDAP[0]	/* MoveDirectAbsPt */\012MDAP[0]	/* MoveDirectAbsPt */\012MDAP[0]	/* MoveDirectAbsPt */\012MDAP[0]	/* MoveDirectAbsPt */\012MDAP[0]	/* MoveDirectAbsPt */\012MDAP[0]	/* MoveDirectAbsPt */\012MDAP[0]	/* MoveDirectAbsPt */\012MDAP[0]	/* MoveDirectAbsPt */\012MDAP[0]	/* MoveDirectAbsPt */\012MDAP[0]	/* MoveDirectAbsPt */\012MDAP[0]	/* MoveDirectAbsPt */\012IUP[1]	/* InterpolateUntPts */\012IUP[0]	/* InterpolateUntPts */\012SVTCA[1]	/* SetFreedomAndProjectionVectorToAxis */\012MD[0]	/* MeasureDistance */\012ROUND[00]	/* Round */\012PUSHW[ ]	/* 2 values pushed */\01275 177 \012MD[0]	/* MeasureDistance */\012ROUND[00]	/* Round */\012SUB[ ]	/* Subtract */\012PUSHB[ ]	/* 1 value pushed */\01264 \012GT[ ]	/* GreaterThan */\012IF[ ]	/* If */\012SHPIX[ ]	/* ShiftZoneByPixel */\012SRP1[ ]	/* SetRefPoint1 */\012SHZ[1]	/* ShiftZoneByLastPoint */\012PUSHW[ ]	/* 2 values pushed */\012177 -64 \012SHPIX[ ]	/* ShiftZoneByPixel */\012EIF[ ]	/* EndIf */";
};
width = 1111;
}
);
note = AE;
unicode = 00C6;
},
{
color = 3;
glyphname = B;
lastChange = "2021-08-02 20:56:00 +0000";
layers = (
{
layerId = "BE19588B-E19B-4B9D-8A17-411D65DA33D8";
paths = (
{
closed = 1;
nodes = (
"586 412 OFFCURVE",
"554.333 447.667 OFFCURVE",
"491 471 CURVE SMOOTH",
"445 487.667 OFFCURVE",
"392.667 496 OFFCURVE",
"334 496 CURVE SMOOTH",
"257.333 496 OFFCURVE",
"191.333 482.667 OFFCURVE",
"136 456 CURVE SMOOTH",
"103.333 440 OFFCURVE",
"76 420 OFFCURVE",
"54 396 CURVE SMOOTH",
"28 367.333 OFFCURVE",
"15 337.333 OFFCURVE",
"15 306 CURVE SMOOTH",
"15 278 OFFCURVE",
"30 256.667 OFFCURVE",
"60 242 CURVE SMOOTH",
"69.333 237.333 OFFCURVE",
"76.333 235 OFFCURVE",
"81 235 CURVE SMOOTH",
"84.333 235 OFFCURVE",
"86 236.333 OFFCURVE",
"86 239 CURVE SMOOTH",
"86 237.667 OFFCURVE",
"80 244.667 OFFCURVE",
"68 260 CURVE SMOOTH",
"56 275.333 OFFCURVE",
"50 292.333 OFFCURVE",
"50 311 CURVE SMOOTH",
"50 357 OFFCURVE",
"81.667 397.333 OFFCURVE",
"145 432 CURVE SMOOTH",
"193.667 458.667 OFFCURVE",
"252.667 472 OFFCURVE",
"322 472 CURVE SMOOTH",
"372.667 472 OFFCURVE",
"418 465.667 OFFCURVE",
"458 453 CURVE SMOOTH",
"516.667 434.333 OFFCURVE",
"546 405.667 OFFCURVE",
"546 367 CURVE SMOOTH",
"546 332.333 OFFCURVE",
"529.667 305.667 OFFCURVE",
"497 287 CURVE SMOOTH",
"469.667 271 OFFCURVE",
"437.667 263 OFFCURVE",
"401 263 CURVE SMOOTH",
"397.667 263 OFFCURVE",
"393 263.333 OFFCURVE",
"387 264 CURVE SMOOTH",
"373 265 LINE SMOOTH",
"358.333 265 OFFCURVE",
"351 258.667 OFFCURVE",
"351 246 CURVE SMOOTH",
"351 238.667 OFFCURVE",
"358.667 234 OFFCURVE",
"374 232 CURVE SMOOTH",
"407 230 LINE",
"433.667 225.333 OFFCURVE",
"457.333 213.333 OFFCURVE",
"478 194 CURVE SMOOTH",
"500.667 172.667 OFFCURVE",
"512 149 OFFCURVE",
"512 123 CURVE SMOOTH",
"512 44.333 OFFCURVE",
"429.333 -20 OFFCURVE",
"348 -20 CURVE SMOOTH",
"286.667 -20 OFFCURVE",
"233 9 OFFCURVE",
"187 67 CURVE",
"221.667 107.667 OFFCURVE",
"257.333 167.333 OFFCURVE",
"294 246 CURVE SMOOTH",
"344 355.333 OFFCURVE",
"375 410 OFFCURVE",
"387 410 CURVE",
"394 403 LINE",
"392.667 400.333 OFFCURVE",
"392 397.333 OFFCURVE",
"392 394 CURVE SMOOTH",
"392 386.667 OFFCURVE",
"395.333 383 OFFCURVE",
"402 383 CURVE SMOOTH",
"409.333 383 OFFCURVE",
"413 389 OFFCURVE",
"413 401 CURVE SMOOTH",
"413 421 OFFCURVE",
"405 431 OFFCURVE",
"389 431 CURVE SMOOTH",
"355.667 431 OFFCURVE",
"309.667 372.667 OFFCURVE",
"251 256 CURVE SMOOTH",
"219 192.667 OFFCURVE",
"190 141.333 OFFCURVE",
"164 102 CURVE",
"130 165 LINE SMOOTH",
"114 192.333 OFFCURVE",
"97.333 206 OFFCURVE",
"80 206 CURVE SMOOTH",
"56.667 206 OFFCURVE",
"38.333 186.667 OFFCURVE",
"25 148 CURVE SMOOTH",
"15 120 OFFCURVE",
"10 91.667 OFFCURVE",
"10 63 CURVE SMOOTH",
"10 42.333 OFFCURVE",
"14 23.333 OFFCURVE",
"22 6 CURVE SMOOTH",
"32 -16.667 OFFCURVE",
"46.333 -28 OFFCURVE",
"65 -28 CURVE SMOOTH",
"87.667 -28 OFFCURVE",
"118.667 -7.333 OFFCURVE",
"158 34 CURVE",
"202 -18.667 OFFCURVE",
"262.333 -45 OFFCURVE",
"339 -45 CURVE SMOOTH",
"390.333 -45 OFFCURVE",
"437 -32.333 OFFCURVE",
"479 -7 CURVE SMOOTH",
"529 23 OFFCURVE",
"554 62 OFFCURVE",
"554 110 CURVE SMOOTH",
"554 171.333 OFFCURVE",
"507 223 OFFCURVE",
"447 243 CURVE",
"539.667 255 OFFCURVE",
"586 295.333 OFFCURVE",
"586 364 CURVE SMOOTH"
);
},
{
closed = 1;
nodes = (
"105.667 19.333 OFFCURVE",
"84 -2 OFFCURVE",
"72 -2 CURVE SMOOTH",
"70 -2 OFFCURVE",
"67.667 -0.667 OFFCURVE",
"65 2 CURVE SMOOTH",
"48.333 18.667 OFFCURVE",
"40 40.667 OFFCURVE",
"40 68 CURVE SMOOTH",
"40 99.333 OFFCURVE",
"49 130.667 OFFCURVE",
"67 162 CURVE",
"68 162 LINE",
"69 159 LINE",
"100.333 117 OFFCURVE",
"123 84.667 OFFCURVE",
"137 62 CURVE"
);
}
);
userData = {
assembly = "NPUSHB[ ]	/* 64 values pushed */\0121 105 105 64 106 0 97 96 78 39 38 37 25 11 92 76 56 43 2 48 5 5 65 5 0 38 37 35 6 31 99 5 17 73 5 82 21 7 13 33 7 29 52 7 61 54 7 61 58 45 7 9 103 7 13 69 7 88 9 88 3 1 17 70 \012SROUND[ ]	/* SuperRound */\012MDAP[1]	/* MoveDirectAbsPt */\012SHZ[1]	/* ShiftZoneByLastPoint */\012RTG[ ]	/* RoundToGrid */\012SVTCA[0]	/* SetFreedomAndProjectionVectorToAxis */\012MIAP[1]	/* MoveIndirectAbsPt */\012MDAP[1]	/* MoveDirectAbsPt */\012SRP0[ ]	/* SetRefPoint0 */\012MIRP[11101]	/* MoveIndirectRelPt */\012MDAP[1]	/* MoveDirectAbsPt */\012MIRP[11101]	/* MoveIndirectRelPt */\012SRP0[ ]	/* SetRefPoint0 */\012MIRP[11101]	/* MoveIndirectRelPt */\012MDAP[1]	/* MoveDirectAbsPt */\012ALIGNRP[ ]	/* AlignRelativePt */\012MIRP[11101]	/* MoveIndirectRelPt */\012SRP0[ ]	/* SetRefPoint0 */\012MIRP[11101]	/* MoveIndirectRelPt */\012MDAP[1]	/* MoveDirectAbsPt */\012MIRP[11101]	/* MoveIndirectRelPt */\012SRP0[ ]	/* SetRefPoint0 */\012MIRP[11101]	/* MoveIndirectRelPt */\012SVTCA[1]	/* SetFreedomAndProjectionVectorToAxis */\012MDAP[1]	/* MoveDirectAbsPt */\012MIRP[11101]	/* MoveIndirectRelPt */\012MDAP[1]	/* MoveDirectAbsPt */\012MIRP[11101]	/* MoveIndirectRelPt */\012MDAP[1]	/* MoveDirectAbsPt */\012MIRP[11101]	/* MoveIndirectRelPt */\012ALIGNRP[ ]	/* AlignRelativePt */\012ALIGNRP[ ]	/* AlignRelativePt */\012MDAP[1]	/* MoveDirectAbsPt */\012MIRP[11101]	/* MoveIndirectRelPt */\012MDAP[1]	/* MoveDirectAbsPt */\012MIRP[11101]	/* MoveIndirectRelPt */\012MDAP[0]	/* MoveDirectAbsPt */\012MDAP[0]	/* MoveDirectAbsPt */\012MDAP[0]	/* MoveDirectAbsPt */\012MDAP[0]	/* MoveDirectAbsPt */\012MDAP[0]	/* MoveDirectAbsPt */\012SVTCA[0]	/* SetFreedomAndProjectionVectorToAxis */\012MDAP[0]	/* MoveDirectAbsPt */\012MDAP[0]	/* MoveDirectAbsPt */\012MDAP[0]	/* MoveDirectAbsPt */\012MDAP[0]	/* MoveDirectAbsPt */\012MDAP[0]	/* MoveDirectAbsPt */\012MDAP[0]	/* MoveDirectAbsPt */\012MDAP[0]	/* MoveDirectAbsPt */\012MDAP[0]	/* MoveDirectAbsPt */\012IUP[1]	/* InterpolateUntPts */\012IUP[0]	/* InterpolateUntPts */\012SVTCA[1]	/* SetFreedomAndProjectionVectorToAxis */\012MD[0]	/* MeasureDistance */\012ROUND[00]	/* Round */\012PUSHW[ ]	/* 2 values pushed */\01217 105 \012MD[0]	/* MeasureDistance */\012ROUND[00]	/* Round */\012SUB[ ]	/* Subtract */\012PUSHB[ ]	/* 1 value pushed */\01264 \012GT[ ]	/* GreaterThan */\012IF[ ]	/* If */\012SHPIX[ ]	/* ShiftZoneByPixel */\012SRP1[ ]	/* SetRefPoint1 */\012SHZ[1]	/* ShiftZoneByLastPoint */\012PUSHW[ ]	/* 2 values pushed */\012105 -64 \012SHPIX[ ]	/* ShiftZoneByPixel */\012EIF[ ]	/* EndIf */";
};
width = 579;
}
);
note = B;
unicode = 0042;
},
{
color = 3;
glyphname = C;
lastChange = "2021-08-02 20:56:00 +0000";
layers = (
{
layerId = "BE19588B-E19B-4B9D-8A17-411D65DA33D8";
paths = (
{
closed = 1;
nodes = (
"530 397.667 OFFCURVE",
"510 432.667 OFFCURVE",
"470 458 CURVE SMOOTH",
"436 480 OFFCURVE",
"395.333 491 OFFCURVE",
"348 491 CURVE SMOOTH",
"172 491 OFFCURVE",
"18 345.667 OFFCURVE",
"18 171 CURVE SMOOTH",
"18 40.333 OFFCURVE",
"109 -51 OFFCURVE",
"241 -51 CURVE SMOOTH",
"339.667 -51 OFFCURVE",
"448.667 5 OFFCURVE",
"502 85 CURVE SMOOTH",
"508.667 95 OFFCURVE",
"512 101.333 OFFCURVE",
"512 104 CURVE SMOOTH",
"512 108.667 OFFCURVE",
"509.667 111 OFFCURVE",
"505 111 CURVE SMOOTH",
"497 111 OFFCURVE",
"489.333 106.667 OFFCURVE",
"482 98 CURVE SMOOTH",
"453 61 LINE",
"403 10.333 OFFCURVE",
"340.667 -15 OFFCURVE",
"266 -15 CURVE SMOOTH",
"150 -15 OFFCURVE",
"61 61.333 OFFCURVE",
"61 176 CURVE SMOOTH",
"61 219.333 OFFCURVE",
"72.333 262.333 OFFCURVE",
"95 305 CURVE SMOOTH",
"148.333 406.333 OFFCURVE",
"244.333 471 OFFCURVE",
"355 471 CURVE SMOOTH",
"379 471 OFFCURVE",
"400 467.667 OFFCURVE",
"418 461 CURVE SMOOTH",
"466 442.333 OFFCURVE",
"500 398.667 OFFCURVE",
"500 348 CURVE SMOOTH",
"500 330.667 OFFCURVE",
"495.333 314.667 OFFCURVE",
"486 300 CURVE SMOOTH",
"458 256 OFFCURVE",
"410.667 234 OFFCURVE",
"344 234 CURVE SMOOTH",
"306.667 234 OFFCURVE",
"278 265.667 OFFCURVE",
"278 303 CURVE SMOOTH",
"278 329.667 OFFCURVE",
"293 358 OFFCURVE",
"317 358 CURVE SMOOTH",
"325.667 358 OFFCURVE",
"330 359.667 OFFCURVE",
"330 363 CURVE SMOOTH",
"330 372.333 OFFCURVE",
"322 377 OFFCURVE",
"306 377 CURVE SMOOTH",
"290.667 377 OFFCURVE",
"278 367 OFFCURVE",
"268 347 CURVE SMOOTH",
"259.333 330.333 OFFCURVE",
"255 313.667 OFFCURVE",
"255 297 CURVE SMOOTH",
"255 239.667 OFFCURVE",
"287.667 211 OFFCURVE",
"353 211 CURVE SMOOTH",
"399.667 211 OFFCURVE",
"439.667 222.667 OFFCURVE",
"473 246 CURVE SMOOTH",
"511 272.667 OFFCURVE",
"530 308.333 OFFCURVE",
"530 353 CURVE SMOOTH"
);
}
);
userData = {
assembly = "NPUSHB[ ]	/* 36 values pushed */\0121 60 60 64 61 0 43 45 12 34 5 53 17 6 6 24 5 0 37 7 50 4 7 20 14 8 10 29 7 56 50 56 3 1 53 70 \012SROUND[ ]	/* SuperRound */\012MDAP[1]	/* MoveDirectAbsPt */\012SHZ[1]	/* ShiftZoneByLastPoint */\012RTG[ ]	/* RoundToGrid */\012SVTCA[0]	/* SetFreedomAndProjectionVectorToAxis */\012MIAP[1]	/* MoveIndirectAbsPt */\012MDAP[1]	/* MoveDirectAbsPt */\012SRP0[ ]	/* SetRefPoint0 */\012MIRP[11101]	/* MoveIndirectRelPt */\012MDAP[1]	/* MoveDirectAbsPt */\012MIRP[11101]	/* MoveIndirectRelPt */\012MDAP[1]	/* MoveDirectAbsPt */\012MIRP[11101]	/* MoveIndirectRelPt */\012SRP0[ ]	/* SetRefPoint0 */\012MIRP[11101]	/* MoveIndirectRelPt */\012SVTCA[1]	/* SetFreedomAndProjectionVectorToAxis */\012MDAP[1]	/* MoveDirectAbsPt */\012MIRP[11101]	/* MoveIndirectRelPt */\012MDAP[1]	/* MoveDirectAbsPt */\012MIRP[11101]	/* MoveIndirectRelPt */\012MDAP[1]	/* MoveDirectAbsPt */\012MIRP[11101]	/* MoveIndirectRelPt */\012MDAP[0]	/* MoveDirectAbsPt */\012MDAP[0]	/* MoveDirectAbsPt */\012SVTCA[0]	/* SetFreedomAndProjectionVectorToAxis */\012MDAP[0]	/* MoveDirectAbsPt */\012IUP[1]	/* InterpolateUntPts */\012IUP[0]	/* InterpolateUntPts */\012SVTCA[1]	/* SetFreedomAndProjectionVectorToAxis */\012MD[0]	/* MeasureDistance */\012ROUND[00]	/* Round */\012PUSHW[ ]	/* 2 values pushed */\01253 60 \012MD[0]	/* MeasureDistance */\012ROUND[00]	/* Round */\012SUB[ ]	/* Subtract */\012PUSHB[ ]	/* 1 value pushed */\01264 \012GT[ ]	/* GreaterThan */\012IF[ ]	/* If */\012SHPIX[ ]	/* ShiftZoneByPixel */\012SRP1[ ]	/* SetRefPoint1 */\012SHZ[1]	/* ShiftZoneByLastPoint */\012PUSHW[ ]	/* 2 values pushed */\01260 -64 \012SHPIX[ ]	/* ShiftZoneByPixel */\012EIF[ ]	/* EndIf */";
};
width = 498;
}
);
note = C;
unicode = 0043;
},
{
color = 3;
glyphname = D;
lastChange = "2021-08-02 20:56:00 +0000";
layers = (
{
layerId = "BE19588B-E19B-4B9D-8A17-411D65DA33D8";
paths = (
{
closed = 1;
nodes = (
"630 292 OFFCURVE",
"607.667 347.667 OFFCURVE",
"563 393 CURVE SMOOTH",
"505.667 451 OFFCURVE",
"422.333 480 OFFCURVE",
"313 480 CURVE SMOOTH",
"245 480 OFFCURVE",
"185 467.333 OFFCURVE",
"133 442 CURVE SMOOTH",
"57 404.667 OFFCURVE",
"19 357.333 OFFCURVE",
"19 300 CURVE SMOOTH",
"19 268 OFFCURVE",
"49.333 232 OFFCURVE",
"80 232 CURVE SMOOTH",
"86 232 OFFCURVE",
"89 233.667 OFFCURVE",
"89 237 CURVE",
"71 255 LINE SMOOTH",
"59 266.333 OFFCURVE",
"53 282.333 OFFCURVE",
"53 303 CURVE SMOOTH",
"53 346.333 OFFCURVE",
"83 384.667 OFFCURVE",
"143 418 CURVE SMOOTH",
"189.667 444 OFFCURVE",
"245 457 OFFCURVE",
"309 457 CURVE SMOOTH",
"343.667 457 OFFCURVE",
"376 453.333 OFFCURVE",
"406 446 CURVE SMOOTH",
"460 432.667 OFFCURVE",
"504 409 OFFCURVE",
"538 375 CURVE SMOOTH",
"576.667 336.333 OFFCURVE",
"596 291 OFFCURVE",
"596 239 CURVE SMOOTH",
"596 165.667 OFFCURVE",
"566.667 104 OFFCURVE",
"508 54 CURVE SMOOTH",
"452.667 6 OFFCURVE",
"387.667 -18 OFFCURVE",
"313 -18 CURVE SMOOTH",
"249.667 -18 OFFCURVE",
"195.667 1.667 OFFCURVE",
"151 41 CURVE",
"195.667 97 OFFCURVE",
"236 160.333 OFFCURVE",
"272 231 CURVE SMOOTH",
"322 329 OFFCURVE",
"353.667 378 OFFCURVE",
"367 378 CURVE SMOOTH",
"368 378 LINE",
"368 376.667 OFFCURVE",
"367.667 374.833 OFFCURVE",
"367 372.5 CURVE SMOOTH",
"366 368 LINE",
"366 359.333 OFFCURVE",
"369.667 355 OFFCURVE",
"377 355 CURVE SMOOTH",
"383.667 355 OFFCURVE",
"387 361 OFFCURVE",
"387 373 CURVE SMOOTH",
"387 393 OFFCURVE",
"378 403 OFFCURVE",
"360 403 CURVE SMOOTH",
"335.333 403 OFFCURVE",
"293 347.333 OFFCURVE",
"233 236 CURVE SMOOTH",
"193 161.333 OFFCURVE",
"158.667 103.333 OFFCURVE",
"130 62 CURVE",
"120.667 73.333 OFFCURVE",
"113 84.667 OFFCURVE",
"107 96 CURVE",
"91 161 LINE SMOOTH",
"83 191.667 OFFCURVE",
"73 207 OFFCURVE",
"61 207 CURVE SMOOTH",
"42.333 207 OFFCURVE",
"27 186.667 OFFCURVE",
"15 146 CURVE SMOOTH",
"5.667 114.667 OFFCURVE",
"1 86.667 OFFCURVE",
"1 62 CURVE SMOOTH",
"1 44.667 OFFCURVE",
"3.667 28 OFFCURVE",
"9 12 CURVE SMOOTH",
"19 -17.333 OFFCURVE",
"33.667 -32 OFFCURVE",
"53 -32 CURVE SMOOTH",
"72.333 -32 OFFCURVE",
"98.667 -14.667 OFFCURVE",
"132 20 CURVE",
"185.333 -22.667 OFFCURVE",
"248.667 -44 OFFCURVE",
"322 -44 CURVE SMOOTH",
"406.667 -44 OFFCURVE",
"478 -20.667 OFFCURVE",
"536 26 CURVE SMOOTH",
"598.667 76.667 OFFCURVE",
"630 143.333 OFFCURVE",
"630 226 CURVE SMOOTH"
);
},
{
closed = 1;
nodes = (
"88.667 6.667 OFFCURVE",
"72.333 -9 OFFCURVE",
"63 -9 CURVE SMOOTH",
"53.667 -9 OFFCURVE",
"46.333 2.667 OFFCURVE",
"41 26 CURVE SMOOTH",
"37 42.667 OFFCURVE",
"35 57.667 OFFCURVE",
"35 71 CURVE SMOOTH",
"35 100.333 OFFCURVE",
"41 131.667 OFFCURVE",
"53 165 CURVE",
"67.667 103.667 OFFCURVE",
"87.333 61.333 OFFCURVE",
"112 38 CURVE"
);
}
);
userData = {
assembly = "NPUSHB[ ]	/* 51 values pushed */\0121 82 82 64 83 0 74 61 22 6 59 35 32 28 40 5 72 76 5 12 46 5 0 56 5 64 16 7 8 30 7 26 42 7 4 80 7 8 36 35 7 26 52 7 68 4 68 3 1 12 70 \012SROUND[ ]	/* SuperRound */\012MDAP[1]	/* MoveDirectAbsPt */\012SHZ[1]	/* ShiftZoneByLastPoint */\012RTG[ ]	/* RoundToGrid */\012SVTCA[0]	/* SetFreedomAndProjectionVectorToAxis */\012MIAP[1]	/* MoveIndirectAbsPt */\012MDAP[1]	/* MoveDirectAbsPt */\012SRP0[ ]	/* SetRefPoint0 */\012MIRP[11101]	/* MoveIndirectRelPt */\012MDAP[1]	/* MoveDirectAbsPt */\012MIRP[11101]	/* MoveIndirectRelPt */\012ALIGNRP[ ]	/* AlignRelativePt */\012MDAP[1]	/* MoveDirectAbsPt */\012MIRP[11101]	/* MoveIndirectRelPt */\012SRP0[ ]	/* SetRefPoint0 */\012MIRP[11101]	/* MoveIndirectRelPt */\012SRP0[ ]	/* SetRefPoint0 */\012MIRP[11101]	/* MoveIndirectRelPt */\012SRP0[ ]	/* SetRefPoint0 */\012MIRP[11101]	/* MoveIndirectRelPt */\012SVTCA[1]	/* SetFreedomAndProjectionVectorToAxis */\012MDAP[1]	/* MoveDirectAbsPt */\012MIRP[11101]	/* MoveIndirectRelPt */\012MDAP[1]	/* MoveDirectAbsPt */\012MIRP[11101]	/* MoveIndirectRelPt */\012MDAP[1]	/* MoveDirectAbsPt */\012MIRP[11101]	/* MoveIndirectRelPt */\012MDAP[1]	/* MoveDirectAbsPt */\012MIRP[11101]	/* MoveIndirectRelPt */\012MDAP[0]	/* MoveDirectAbsPt */\012MDAP[0]	/* MoveDirectAbsPt */\012MDAP[0]	/* MoveDirectAbsPt */\012MDAP[0]	/* MoveDirectAbsPt */\012SVTCA[0]	/* SetFreedomAndProjectionVectorToAxis */\012MDAP[0]	/* MoveDirectAbsPt */\012MDAP[0]	/* MoveDirectAbsPt */\012MDAP[0]	/* MoveDirectAbsPt */\012MDAP[0]	/* MoveDirectAbsPt */\012IUP[1]	/* InterpolateUntPts */\012IUP[0]	/* InterpolateUntPts */\012SVTCA[1]	/* SetFreedomAndProjectionVectorToAxis */\012MD[0]	/* MeasureDistance */\012ROUND[00]	/* Round */\012PUSHW[ ]	/* 2 values pushed */\01212 82 \012MD[0]	/* MeasureDistance */\012ROUND[00]	/* Round */\012SUB[ ]	/* Subtract */\012PUSHB[ ]	/* 1 value pushed */\01264 \012GT[ ]	/* GreaterThan */\012IF[ ]	/* If */\012SHPIX[ ]	/* ShiftZoneByPixel */\012SRP1[ ]	/* SetRefPoint1 */\012SHZ[1]	/* ShiftZoneByLastPoint */\012PUSHW[ ]	/* 2 values pushed */\01282 -64 \012SHPIX[ ]	/* ShiftZoneByPixel */\012EIF[ ]	/* EndIf */";
};
width = 630;
}
);
note = D;
unicode = 0044;
},
{
color = 3;
glyphname = E;
lastChange = "2021-08-02 20:56:00 +0000";
layers = (
{
layerId = "BE19588B-E19B-4B9D-8A17-411D65DA33D8";
paths = (
{
closed = 1;
nodes = (
"552 500.667 OFFCURVE",
"550 502 OFFCURVE",
"546 502 CURVE SMOOTH",
"533.333 502 OFFCURVE",
"512.333 493 OFFCURVE",
"483 475 CURVE",
"465.667 484.333 OFFCURVE",
"441.333 489 OFFCURVE",
"410 489 CURVE SMOOTH",
"363.333 489 OFFCURVE",
"320.333 480.667 OFFCURVE",
"281 464 CURVE SMOOTH",
"212.333 434.667 OFFCURVE",
"178 394.667 OFFCURVE",
"178 344 CURVE SMOOTH",
"178 316.667 OFFCURVE",
"189.333 292 OFFCURVE",
"212 270 CURVE",
"102 230 OFFCURVE",
"33.333 172 OFFCURVE",
"6 96 CURVE SMOOTH",
"2.667 86.667 OFFCURVE",
"1 76.667 OFFCURVE",
"1 66 CURVE SMOOTH",
"1 24.667 OFFCURVE",
"26.333 -8 OFFCURVE",
"77 -32 CURVE SMOOTH",
"117 -50.667 OFFCURVE",
"160.667 -60 OFFCURVE",
"208 -60 CURVE SMOOTH",
"258.667 -60 OFFCURVE",
"307.667 -52 OFFCURVE",
"355 -36 CURVE SMOOTH",
"395.667 -22 OFFCURVE",
"432.667 -1.333 OFFCURVE",
"466 26 CURVE SMOOTH",
"507.333 60 OFFCURVE",
"528 95 OFFCURVE",
"528 131 CURVE SMOOTH",
"528 159 OFFCURVE",
"511.667 185 OFFCURVE",
"485 185 CURVE SMOOTH",
"469 185 OFFCURVE",
"461 181.333 OFFCURVE",
"461 174 CURVE SMOOTH",
"461 172.667 OFFCURVE",
"466.333 166.667 OFFCURVE",
"477 156 CURVE SMOOTH",
"487.667 145.333 OFFCURVE",
"493 135 OFFCURVE",
"493 125 CURVE SMOOTH",
"493 117 OFFCURVE",
"490 107.333 OFFCURVE",
"484 96 CURVE SMOOTH",
"461.333 52 OFFCURVE",
"423.667 18.667 OFFCURVE",
"371 -4 CURVE SMOOTH",
"325 -24 OFFCURVE",
"274.333 -34 OFFCURVE",
"219 -34 CURVE SMOOTH",
"104.333 -34 OFFCURVE",
"47 -0.333 OFFCURVE",
"47 67 CURVE SMOOTH",
"47 110.333 OFFCURVE",
"68.333 150 OFFCURVE",
"111 186 CURVE SMOOTH",
"146.333 216 OFFCURVE",
"187.667 237.667 OFFCURVE",
"235 251 CURVE",
"268.333 227.667 OFFCURVE",
"307.333 216 OFFCURVE",
"352 216 CURVE SMOOTH",
"368 216 OFFCURVE",
"383 218.667 OFFCURVE",
"397 224 CURVE SMOOTH",
"415.667 231.333 OFFCURVE",
"425 241.667 OFFCURVE",
"425 255 CURVE SMOOTH",
"425 269.667 OFFCURVE",
"413 280.333 OFFCURVE",
"389 287 CURVE SMOOTH",
"373 291.667 OFFCURVE",
"354.333 294 OFFCURVE",
"333 294 CURVE SMOOTH",
"305.667 294 OFFCURVE",
"276 289.333 OFFCURVE",
"244 280 CURVE",
"226 296 OFFCURVE",
"217 315 OFFCURVE",
"217 337 CURVE SMOOTH",
"217 378.333 OFFCURVE",
"240.333 410.667 OFFCURVE",
"287 434 CURVE SMOOTH",
"324.333 452.667 OFFCURVE",
"366 462 OFFCURVE",
"412 462 CURVE SMOOTH",
"429.333 462 OFFCURVE",
"443.333 460 OFFCURVE",
"454 456 CURVE",
"422.667 430 OFFCURVE",
"407 404.333 OFFCURVE",
"407 379 CURVE SMOOTH",
"407 355 OFFCURVE",
"421.333 343 OFFCURVE",
"450 343 CURVE SMOOTH",
"487.333 343 OFFCURVE",
"516 380.333 OFFCURVE",
"516 419 CURVE SMOOTH",
"516 436.333 OFFCURVE",
"510.333 450.667 OFFCURVE",
"499 462 CURVE",
"509 469 LINE",
"517.667 473 OFFCURVE",
"526.333 476.667 OFFCURVE",
"535 480 CURVE SMOOTH",
"546.333 486 OFFCURVE",
"552 492 OFFCURVE",
"552 498 CURVE SMOOTH"
);
},
{
closed = 1;
nodes = (
"483 400 OFFCURVE",
"465.667 369 OFFCURVE",
"447 369 CURVE SMOOTH",
"435.667 369 OFFCURVE",
"430 374 OFFCURVE",
"430 384 CURVE SMOOTH",
"430 400.667 OFFCURVE",
"444.333 420.333 OFFCURVE",
"473 443 CURVE",
"479.667 437 OFFCURVE",
"483 429.333 OFFCURVE",
"483 420 CURVE SMOOTH"
);
},
{
closed = 1;
nodes = (
"389 244 OFFCURVE",
"378.333 239 OFFCURVE",
"357 239 CURVE SMOOTH",
"327.667 239 OFFCURVE",
"299.333 245.667 OFFCURVE",
"272 259 CURVE",
"294.667 263 OFFCURVE",
"316 265 OFFCURVE",
"336 265 CURVE SMOOTH",
"371.333 265 OFFCURVE",
"389 261.333 OFFCURVE",
"389 254 CURVE SMOOTH"
);
}
);
userData = {
assembly = "NPUSHB[ ]	/* 58 values pushed */\0121 98 98 64 99 0 83 77 52 35 23 94 69 50 15 6 0 39 5 65 21 5 71 13 6 85 47 5 55 81 5 8 90 5 29 11 7 87 17 7 75 33 7 96 41 7 61 92 7 25 61 79 3 75 3 1 65 70 \012SROUND[ ]	/* SuperRound */\012MDAP[1]	/* MoveDirectAbsPt */\012SHZ[1]	/* ShiftZoneByLastPoint */\012RTG[ ]	/* RoundToGrid */\012SVTCA[0]	/* SetFreedomAndProjectionVectorToAxis */\012MIAP[1]	/* MoveIndirectAbsPt */\012MIAP[1]	/* MoveIndirectAbsPt */\012MDAP[1]	/* MoveDirectAbsPt */\012MDAP[1]	/* MoveDirectAbsPt */\012MIRP[11101]	/* MoveIndirectRelPt */\012SRP0[ ]	/* SetRefPoint0 */\012MIRP[11101]	/* MoveIndirectRelPt */\012MDAP[1]	/* MoveDirectAbsPt */\012MIRP[11101]	/* MoveIndirectRelPt */\012SRP0[ ]	/* SetRefPoint0 */\012MIRP[11101]	/* MoveIndirectRelPt */\012MDAP[1]	/* MoveDirectAbsPt */\012MIRP[11101]	/* MoveIndirectRelPt */\012SVTCA[1]	/* SetFreedomAndProjectionVectorToAxis */\012MDAP[1]	/* MoveDirectAbsPt */\012MIRP[11101]	/* MoveIndirectRelPt */\012MDAP[1]	/* MoveDirectAbsPt */\012MIRP[11101]	/* MoveIndirectRelPt */\012MDAP[1]	/* MoveDirectAbsPt */\012MIRP[11101]	/* MoveIndirectRelPt */\012MDAP[1]	/* MoveDirectAbsPt */\012MIRP[11101]	/* MoveIndirectRelPt */\012MDAP[1]	/* MoveDirectAbsPt */\012MIRP[11101]	/* MoveIndirectRelPt */\012MDAP[1]	/* MoveDirectAbsPt */\012MIRP[11101]	/* MoveIndirectRelPt */\012MDAP[0]	/* MoveDirectAbsPt */\012MDAP[0]	/* MoveDirectAbsPt */\012MDAP[0]	/* MoveDirectAbsPt */\012MDAP[0]	/* MoveDirectAbsPt */\012MDAP[0]	/* MoveDirectAbsPt */\012MDAP[0]	/* MoveDirectAbsPt */\012SVTCA[0]	/* SetFreedomAndProjectionVectorToAxis */\012MDAP[0]	/* MoveDirectAbsPt */\012MDAP[0]	/* MoveDirectAbsPt */\012MDAP[0]	/* MoveDirectAbsPt */\012MDAP[0]	/* MoveDirectAbsPt */\012MDAP[0]	/* MoveDirectAbsPt */\012IUP[1]	/* InterpolateUntPts */\012IUP[0]	/* InterpolateUntPts */\012SVTCA[1]	/* SetFreedomAndProjectionVectorToAxis */\012MD[0]	/* MeasureDistance */\012ROUND[00]	/* Round */\012PUSHW[ ]	/* 2 values pushed */\01265 98 \012MD[0]	/* MeasureDistance */\012ROUND[00]	/* Round */\012SUB[ ]	/* Subtract */\012PUSHB[ ]	/* 1 value pushed */\01264 \012GT[ ]	/* GreaterThan */\012IF[ ]	/* If */\012SHPIX[ ]	/* ShiftZoneByPixel */\012SRP1[ ]	/* SetRefPoint1 */\012SHZ[1]	/* ShiftZoneByLastPoint */\012PUSHW[ ]	/* 2 values pushed */\01298 -64 \012SHPIX[ ]	/* ShiftZoneByPixel */\012EIF[ ]	/* EndIf */";
};
width = 523;
}
);
note = E;
unicode = 0045;
},
{
color = 3;
glyphname = F;
lastChange = "2021-08-02 20:56:00 +0000";
layers = (
{
layerId = "BE19588B-E19B-4B9D-8A17-411D65DA33D8";
paths = (
{
closed = 1;
nodes = (
"821 473.667 OFFCURVE",
"817.333 489.667 OFFCURVE",
"810 509 CURVE SMOOTH",
"801.333 532.333 OFFCURVE",
"792.333 544 OFFCURVE",
"783 544 CURVE SMOOTH",
"779.667 544 OFFCURVE",
"778 542.333 OFFCURVE",
"778 539 CURVE SMOOTH",
"778 535.667 OFFCURVE",
"780.167 527.667 OFFCURVE",
"784.5 515 CURVE SMOOTH",
"788.833 502.333 OFFCURVE",
"791 492.333 OFFCURVE",
"791 485 CURVE SMOOTH",
"791 439 OFFCURVE",
"764 416 OFFCURVE",
"710 416 CURVE SMOOTH",
"668.667 416 OFFCURVE",
"621 432 OFFCURVE",
"567 464 CURVE",
"571 473.333 OFFCURVE",
"576 478 OFFCURVE",
"582 478 CURVE SMOOTH",
"584.667 478 OFFCURVE",
"587.333 476.667 OFFCURVE",
"590 474 CURVE SMOOTH",
"592.667 471.333 OFFCURVE",
"594.667 470 OFFCURVE",
"596 470 CURVE SMOOTH",
"601.333 470 OFFCURVE",
"604 474.333 OFFCURVE",
"604 483 CURVE SMOOTH",
"604 499.667 OFFCURVE",
"596.333 508 OFFCURVE",
"581 508 CURVE SMOOTH",
"566.333 508 OFFCURVE",
"553 498 OFFCURVE",
"541 478 CURVE",
"469 514 OFFCURVE",
"402.333 532 OFFCURVE",
"341 532 CURVE SMOOTH",
"226.333 532 OFFCURVE",
"138.333 490.333 OFFCURVE",
"77 407 CURVE SMOOTH",
"37 352.333 OFFCURVE",
"17 290.667 OFFCURVE",
"17 222 CURVE SMOOTH",
"17 171.333 OFFCURVE",
"28.667 128.333 OFFCURVE",
"52 93 CURVE SMOOTH",
"79.333 51.667 OFFCURVE",
"117 31 OFFCURVE",
"165 31 CURVE SMOOTH",
"243.667 31 OFFCURVE",
"315 93.333 OFFCURVE",
"315 172 CURVE SMOOTH",
"315 207.333 OFFCURVE",
"299.667 227 OFFCURVE",
"269 231 CURVE",
"262.333 229.667 OFFCURVE",
"259 227 OFFCURVE",
"259 223 CURVE SMOOTH",
"259 223.667 OFFCURVE",
"263 218.167 OFFCURVE",
"271 206.5 CURVE SMOOTH",
"279 194.833 OFFCURVE",
"283 183 OFFCURVE",
"283 171 CURVE SMOOTH",
"283 105.667 OFFCURVE",
"240 58 OFFCURVE",
"176 58 CURVE SMOOTH",
"135.333 58 OFFCURVE",
"104.667 74.333 OFFCURVE",
"84 107 CURVE SMOOTH",
"66.667 134.333 OFFCURVE",
"58 169.333 OFFCURVE",
"58 212 CURVE SMOOTH",
"58 385.333 OFFCURVE",
"186.333 503 OFFCURVE",
"361 503 CURVE SMOOTH",
"409.667 503 OFFCURVE",
"465.667 488.333 OFFCURVE",
"529 459 CURVE",
"457.667 300.333 OFFCURVE",
"421.667 220.333 OFFCURVE",
"421 219 CURVE",
"384 219 LINE SMOOTH",
"379.333 219 OFFCURVE",
"372.333 218.667 OFFCURVE",
"363 218 CURVE SMOOTH",
"347 218 LINE SMOOTH",
"336.333 218 OFFCURVE",
"325 203.667 OFFCURVE",
"325 193 CURVE SMOOTH",
"325 186.333 OFFCURVE",
"329 183 OFFCURVE",
"337 183 CURVE SMOOTH",
"345.667 183 OFFCURVE",
"370 186 OFFCURVE",
"410 192 CURVE",
"367.333 85.333 OFFCURVE",
"346 10.667 OFFCURVE",
"346 -32 CURVE SMOOTH",
"346 -49.333 OFFCURVE",
"354 -58 OFFCURVE",
"370 -58 CURVE SMOOTH",
"388 -58 OFFCURVE",
"403 -49.333 OFFCURVE",
"415 -32 CURVE SMOOTH",
"423.667 -20 OFFCURVE",
"428 -11 OFFCURVE",
"428 -5 CURVE SMOOTH",
"428 -1 OFFCURVE",
"426 1 OFFCURVE",
"422 1 CURVE SMOOTH",
"418.667 1 OFFCURVE",
"413.667 -1.667 OFFCURVE",
"407 -7 CURVE SMOOTH",
"400.333 -12.333 OFFCURVE",
"396.667 -15 OFFCURVE",
"396 -15 CURVE SMOOTH",
"394 -15 OFFCURVE",
"393 -12 OFFCURVE",
"393 -6 CURVE SMOOTH",
"393 22.667 OFFCURVE",
"411.333 87.667 OFFCURVE",
"448 189 CURVE",
"452 190.333 OFFCURVE",
"461.667 191 OFFCURVE",
"477 191 CURVE SMOOTH",
"471 191 OFFCURVE",
"481 190.667 OFFCURVE",
"507 190 CURVE SMOOTH",
"536 190 LINE SMOOTH",
"556.667 190 OFFCURVE",
"567 194.667 OFFCURVE",
"567 204 CURVE SMOOTH",
"567 207.333 OFFCURVE",
"564.667 210.333 OFFCURVE",
"560 213 CURVE",
"523.333 216.333 OFFCURVE",
"490 218 OFFCURVE",
"460 218 CURVE",
"480 274.667 OFFCURVE",
"512.333 349.667 OFFCURVE",
"557 443 CURVE",
"621.667 407.667 OFFCURVE",
"679 390 OFFCURVE",
"729 390 CURVE SMOOTH",
"754.333 390 OFFCURVE",
"775.333 395.333 OFFCURVE",
"792 406 CURVE SMOOTH",
"811.333 418.667 OFFCURVE",
"821 437 OFFCURVE",
"821 461 CURVE SMOOTH"
);
}
);
userData = {
assembly = "NPUSHB[ ]	/* 68 values pushed */\0121 108 108 64 109 0 93 90 84 69 39 27 24 6 102 67 37 29 8 52 5 88 41 5 95 12 22 5 35 57 5 78 71 5 64 99 5 0 50 46 44 3 48 7 33 4 7 97 10 7 37 18 16 3 14 54 7 82 61 7 74 104 33 86 3 1 78 70 \012SROUND[ ]	/* SuperRound */\012MDAP[1]	/* MoveDirectAbsPt */\012SHZ[1]	/* ShiftZoneByLastPoint */\012RTG[ ]	/* RoundToGrid */\012SVTCA[0]	/* SetFreedomAndProjectionVectorToAxis */\012MIAP[1]	/* MoveIndirectAbsPt */\012MDAP[1]	/* MoveDirectAbsPt */\012MDAP[1]	/* MoveDirectAbsPt */\012MDAP[1]	/* MoveDirectAbsPt */\012MIRP[11101]	/* MoveIndirectRelPt */\012MDAP[1]	/* MoveDirectAbsPt */\012MIRP[11101]	/* MoveIndirectRelPt */\012MDAP[1]	/* MoveDirectAbsPt */\012SLOOP[ ]	/* SetLoopVariable */\012ALIGNRP[ ]	/* AlignRelativePt */\012MIRP[11101]	/* MoveIndirectRelPt */\012MDAP[1]	/* MoveDirectAbsPt */\012MIRP[11101]	/* MoveIndirectRelPt */\012SRP0[ ]	/* SetRefPoint0 */\012MIRP[11101]	/* MoveIndirectRelPt */\012SLOOP[ ]	/* SetLoopVariable */\012ALIGNRP[ ]	/* AlignRelativePt */\012SVTCA[1]	/* SetFreedomAndProjectionVectorToAxis */\012MDAP[1]	/* MoveDirectAbsPt */\012MIRP[11101]	/* MoveIndirectRelPt */\012MDAP[1]	/* MoveDirectAbsPt */\012MIRP[11101]	/* MoveIndirectRelPt */\012MDAP[1]	/* MoveDirectAbsPt */\012MIRP[11101]	/* MoveIndirectRelPt */\012MDAP[1]	/* MoveDirectAbsPt */\012MIRP[11101]	/* MoveIndirectRelPt */\012MDAP[1]	/* MoveDirectAbsPt */\012ALIGNRP[ ]	/* AlignRelativePt */\012MIRP[11101]	/* MoveIndirectRelPt */\012MDAP[1]	/* MoveDirectAbsPt */\012MIRP[11101]	/* MoveIndirectRelPt */\012MDAP[0]	/* MoveDirectAbsPt */\012MDAP[0]	/* MoveDirectAbsPt */\012MDAP[0]	/* MoveDirectAbsPt */\012MDAP[0]	/* MoveDirectAbsPt */\012MDAP[0]	/* MoveDirectAbsPt */\012SVTCA[0]	/* SetFreedomAndProjectionVectorToAxis */\012MDAP[0]	/* MoveDirectAbsPt */\012MDAP[0]	/* MoveDirectAbsPt */\012MDAP[0]	/* MoveDirectAbsPt */\012MDAP[0]	/* MoveDirectAbsPt */\012MDAP[0]	/* MoveDirectAbsPt */\012MDAP[0]	/* MoveDirectAbsPt */\012MDAP[0]	/* MoveDirectAbsPt */\012MDAP[0]	/* MoveDirectAbsPt */\012IUP[1]	/* InterpolateUntPts */\012IUP[0]	/* InterpolateUntPts */\012SVTCA[1]	/* SetFreedomAndProjectionVectorToAxis */\012MD[0]	/* MeasureDistance */\012ROUND[00]	/* Round */\012PUSHW[ ]	/* 2 values pushed */\01278 108 \012MD[0]	/* MeasureDistance */\012ROUND[00]	/* Round */\012SUB[ ]	/* Subtract */\012PUSHB[ ]	/* 1 value pushed */\01264 \012GT[ ]	/* GreaterThan */\012IF[ ]	/* If */\012SHPIX[ ]	/* ShiftZoneByPixel */\012SRP1[ ]	/* SetRefPoint1 */\012SHZ[1]	/* ShiftZoneByLastPoint */\012PUSHW[ ]	/* 2 values pushed */\012108 -64 \012SHPIX[ ]	/* ShiftZoneByPixel */\012EIF[ ]	/* EndIf */";
};
width = 541;
}
);
note = F;
unicode = 0046;
},
{
color = 3;
glyphname = G;
lastChange = "2021-08-02 20:56:00 +0000";
layers = (
{
layerId = "BE19588B-E19B-4B9D-8A17-411D65DA33D8";
paths = (
{
closed = 1;
nodes = (
"739 204 OFFCURVE",
"707.667 208.333 OFFCURVE",
"645 211 CURVE SMOOTH",
"555.667 215 OFFCURVE",
"470.667 217 OFFCURVE",
"390 217 CURVE SMOOTH",
"336 217 OFFCURVE",
"309 208.667 OFFCURVE",
"309 192 CURVE SMOOTH",
"309 180.667 OFFCURVE",
"317 175 OFFCURVE",
"333 175 CURVE SMOOTH",
"343 175 OFFCURVE",
"357.167 175.833 OFFCURVE",
"375.5 177.5 CURVE SMOOTH",
"393.833 179.167 OFFCURVE",
"407 180 OFFCURVE",
"415 180 CURVE SMOOTH",
"553 183 LINE",
"547.667 169.667 OFFCURVE",
"544 161.333 OFFCURVE",
"542 158 CURVE SMOOTH",
"494 64.667 OFFCURVE",
"348.333 -23 OFFCURVE",
"243 -23 CURVE SMOOTH",
"193 -23 OFFCURVE",
"150.333 -9.333 OFFCURVE",
"115 18 CURVE SMOOTH",
"75.667 48 OFFCURVE",
"56 87 OFFCURVE",
"56 135 CURVE SMOOTH",
"56 181 OFFCURVE",
"74.667 228.333 OFFCURVE",
"112 277 CURVE SMOOTH",
"184 370.333 OFFCURVE",
"311 430 OFFCURVE",
"431 430 CURVE SMOOTH",
"467 430 OFFCURVE",
"492 424.333 OFFCURVE",
"506 413 CURVE SMOOTH",
"530 393.667 OFFCURVE",
"542 369 OFFCURVE",
"542 339 CURVE SMOOTH",
"542 298.333 OFFCURVE",
"521.333 278 OFFCURVE",
"480 278 CURVE SMOOTH",
"458.667 278 OFFCURVE",
"438.667 284.333 OFFCURVE",
"420 297 CURVE SMOOTH",
"404 308.333 OFFCURVE",
"393.667 325.667 OFFCURVE",
"389 349 CURVE SMOOTH",
"386.333 368.333 OFFCURVE",
"380.667 378 OFFCURVE",
"372 378 CURVE SMOOTH",
"361.333 378 OFFCURVE",
"356 367.667 OFFCURVE",
"356 347 CURVE SMOOTH",
"356 288.333 OFFCURVE",
"398 253 OFFCURVE",
"458 253 CURVE SMOOTH",
"492 253 OFFCURVE",
"519.333 261 OFFCURVE",
"540 277 CURVE SMOOTH",
"563.333 295 OFFCURVE",
"575 320.333 OFFCURVE",
"575 353 CURVE SMOOTH",
"575 391.667 OFFCURVE",
"559 421 OFFCURVE",
"527 441 CURVE SMOOTH",
"499.667 458.333 OFFCURVE",
"465.667 467 OFFCURVE",
"425 467 CURVE SMOOTH",
"314.333 467 OFFCURVE",
"176.333 408 OFFCURVE",
"103 328 CURVE SMOOTH",
"47 266.667 OFFCURVE",
"19 202.667 OFFCURVE",
"19 136 CURVE SMOOTH",
"19 77.333 OFFCURVE",
"40.667 30.667 OFFCURVE",
"84 -4 CURVE SMOOTH",
"124 -36 OFFCURVE",
"174 -52 OFFCURVE",
"234 -52 CURVE SMOOTH",
"333.333 -52 OFFCURVE",
"424.333 -10.333 OFFCURVE",
"507 73 CURVE",
"469.667 -14.333 OFFCURVE",
"451 -72 OFFCURVE",
"451 -100 CURVE SMOOTH",
"451 -121.333 OFFCURVE",
"460 -132 OFFCURVE",
"478 -132 CURVE SMOOTH",
"492.667 -132 OFFCURVE",
"500 -125.333 OFFCURVE",
"500 -112 CURVE SMOOTH",
"500 -104 OFFCURVE",
"496 -98.667 OFFCURVE",
"488 -96 CURVE",
"487.333 -95.333 OFFCURVE",
"487 -94.333 OFFCURVE",
"487 -93 CURVE SMOOTH",
"487 -80.333 OFFCURVE",
"502 -35.667 OFFCURVE",
"532 41 CURVE SMOOTH",
"558.667 108.333 OFFCURVE",
"578.333 155.667 OFFCURVE",
"591 183 CURVE",
"640.333 186.333 OFFCURVE",
"668 188 OFFCURVE",
"674 188 CURVE SMOOTH",
"717.333 188 OFFCURVE",
"739 191.333 OFFCURVE",
"739 198 CURVE SMOOTH"
);
}
);
userData = {
assembly = "NPUSHB[ ]	/* 63 values pushed */\0121 81 81 64 82 0 77 73 75 68 18 0 66 68 9 6 4 4 6 12 5 16 16 5 8 59 5 24 77 5 40 50 5 33 42 7 70 18 7 79 54 7 29 2 7 79 63 7 20 37 7 48 68 7 79 70 7 79 29 14 1 24 70 \012SROUND[ ]	/* SuperRound */\012MDAP[1]	/* MoveDirectAbsPt */\012SHZ[1]	/* ShiftZoneByLastPoint */\012RTG[ ]	/* RoundToGrid */\012SVTCA[0]	/* SetFreedomAndProjectionVectorToAxis */\012MDAP[1]	/* MoveDirectAbsPt */\012MDAP[1]	/* MoveDirectAbsPt */\012MDAP[1]	/* MoveDirectAbsPt */\012MIRP[11101]	/* MoveIndirectRelPt */\012SRP0[ ]	/* SetRefPoint0 */\012MIRP[11101]	/* MoveIndirectRelPt */\012MDAP[1]	/* MoveDirectAbsPt */\012MIRP[11101]	/* MoveIndirectRelPt */\012MDAP[1]	/* MoveDirectAbsPt */\012MIRP[11101]	/* MoveIndirectRelPt */\012SRP0[ ]	/* SetRefPoint0 */\012MIRP[11101]	/* MoveIndirectRelPt */\012SRP0[ ]	/* SetRefPoint0 */\012MIRP[11101]	/* MoveIndirectRelPt */\012SRP0[ ]	/* SetRefPoint0 */\012MIRP[11101]	/* MoveIndirectRelPt */\012SRP0[ ]	/* SetRefPoint0 */\012MIRP[11101]	/* MoveIndirectRelPt */\012SVTCA[1]	/* SetFreedomAndProjectionVectorToAxis */\012MDAP[1]	/* MoveDirectAbsPt */\012MIRP[11101]	/* MoveIndirectRelPt */\012MDAP[1]	/* MoveDirectAbsPt */\012MIRP[11101]	/* MoveIndirectRelPt */\012MDAP[1]	/* MoveDirectAbsPt */\012MIRP[11101]	/* MoveIndirectRelPt */\012MDAP[1]	/* MoveDirectAbsPt */\012MIRP[11101]	/* MoveIndirectRelPt */\012SRP0[ ]	/* SetRefPoint0 */\012MIRP[11101]	/* MoveIndirectRelPt */\012SDPVTL[1]	/* SetDualPVectorToLine */\012MDAP[0]	/* MoveDirectAbsPt */\012SFVTPV[ ]	/* SetFVectorToPVector */\012MDRP[00100]	/* MoveDirectRelPt */\012SFVTPV[ ]	/* SetFVectorToPVector */\012MIRP[11100]	/* MoveIndirectRelPt */\012SFVTPV[ ]	/* SetFVectorToPVector */\012MDRP[00100]	/* MoveDirectRelPt */\012SVTCA[1]	/* SetFreedomAndProjectionVectorToAxis */\012MDAP[0]	/* MoveDirectAbsPt */\012MDAP[0]	/* MoveDirectAbsPt */\012MDAP[0]	/* MoveDirectAbsPt */\012MDAP[0]	/* MoveDirectAbsPt */\012SVTCA[0]	/* SetFreedomAndProjectionVectorToAxis */\012MDAP[0]	/* MoveDirectAbsPt */\012MDAP[0]	/* MoveDirectAbsPt */\012IUP[1]	/* InterpolateUntPts */\012IUP[0]	/* InterpolateUntPts */\012SVTCA[1]	/* SetFreedomAndProjectionVectorToAxis */\012MD[0]	/* MeasureDistance */\012ROUND[00]	/* Round */\012PUSHW[ ]	/* 2 values pushed */\01224 81 \012MD[0]	/* MeasureDistance */\012ROUND[00]	/* Round */\012SUB[ ]	/* Subtract */\012PUSHB[ ]	/* 1 value pushed */\01264 \012GT[ ]	/* GreaterThan */\012IF[ ]	/* If */\012SHPIX[ ]	/* ShiftZoneByPixel */\012SRP1[ ]	/* SetRefPoint1 */\012SHZ[1]	/* ShiftZoneByLastPoint */\012PUSHW[ ]	/* 2 values pushed */\01281 -64 \012SHPIX[ ]	/* ShiftZoneByPixel */\012EIF[ ]	/* EndIf */";
};
width = 632;
}
);
note = G;
unicode = 0047;
},
{
color = 3;
glyphname = H;
lastChange = "2021-08-02 20:56:00 +0000";
layers = (
{
layerId = "BE19588B-E19B-4B9D-8A17-411D65DA33D8";
paths = (
{
closed = 1;
nodes = (
"868 577 OFFCURVE",
"852 588 OFFCURVE",
"819 588 CURVE SMOOTH",
"778 588 OFFCURVE",
"735 559 OFFCURVE",
"688 500 CURVE SMOOTH",
"653 457 OFFCURVE",
"625 409 OFFCURVE",
"603 356 CURVE SMOOTH",
"570 277 OFFCURVE",
"550 227 OFFCURVE",
"543 206 CURVE",
"383 208 LINE",
"334 207 LINE",
"367 282 OFFCURVE",
"384 340 OFFCURVE",
"384 380 CURVE SMOOTH",
"384 429 OFFCURVE",
"342 461 OFFCURVE",
"291 461 CURVE SMOOTH",
"229 461 OFFCURVE",
"165 431 OFFCURVE",
"100 372 CURVE SMOOTH",
"33 311 OFFCURVE",
"0 249 OFFCURVE",
"0 188 CURVE SMOOTH",
"0 159 OFFCURVE",
"8 133 OFFCURVE",
"25 111 CURVE SMOOTH",
"43 87 OFFCURVE",
"66 75 OFFCURVE",
"95 75 CURVE SMOOTH",
"140 75 OFFCURVE",
"188 100 OFFCURVE",
"205 140 CURVE SMOOTH",
"209 150 LINE",
"209 155 OFFCURVE",
"208 157 OFFCURVE",
"206 157 CURVE SMOOTH",
"214 157 OFFCURVE",
"136 98 OFFCURVE",
"103 98 CURVE SMOOTH",
"56 98 OFFCURVE",
"33 125 OFFCURVE",
"33 178 CURVE SMOOTH",
"33 243 OFFCURVE",
"62 302 OFFCURVE",
"120 355 CURVE SMOOTH",
"184 413 OFFCURVE",
"240 442 OFFCURVE",
"288 442 CURVE SMOOTH",
"325 442 OFFCURVE",
"344 422 OFFCURVE",
"344 382 CURVE SMOOTH",
"344 336 OFFCURVE",
"328 277 OFFCURVE",
"296 206 CURVE",
"252 205 OFFCURVE",
"230 197 OFFCURVE",
"230 184 CURVE SMOOTH",
"230 173 OFFCURVE",
"255 161 OFFCURVE",
"268 161 CURVE SMOOTH",
"273 161 OFFCURVE",
"275 163 OFFCURVE",
"275 166 CURVE SMOOTH",
"275 168 OFFCURVE",
"274 170 OFFCURVE",
"273 172 CURVE",
"282 172 LINE",
"241 77 OFFCURVE",
"220 20 OFFCURVE",
"220 0 CURVE SMOOTH",
"220 -9 OFFCURVE",
"226 -13 OFFCURVE",
"237 -13 CURVE SMOOTH",
"248 -13 OFFCURVE",
"259 -10 OFFCURVE",
"270 -3 CURVE",
"270 2 OFFCURVE",
"274 7 OFFCURVE",
"281 10 CURVE SMOOTH",
"292 15 OFFCURVE",
"299 19 OFFCURVE",
"300 20 CURVE",
"295 25 LINE",
"301 23 LINE",
"301 28 OFFCURVE",
"299 30 OFFCURVE",
"294 30 CURVE",
"267 21 LINE",
"268 37 OFFCURVE",
"314 161 OFFCURVE",
"324 171 CURVE SMOOTH",
"329 176 OFFCURVE",
"365 177 OFFCURVE",
"432 176 CURVE SMOOTH",
"531 174 LINE",
"484 55 OFFCURVE",
"461 -36 OFFCURVE",
"461 -99 CURVE SMOOTH",
"461 -126 OFFCURVE",
"471 -140 OFFCURVE",
"490 -140 CURVE SMOOTH",
"526 -140 OFFCURVE",
"586 -77 OFFCURVE",
"586 -41 CURVE SMOOTH",
"586 -35 OFFCURVE",
"584 -32 OFFCURVE",
"580 -32 CURVE SMOOTH",
"579 -32 OFFCURVE",
"567 -44 OFFCURVE",
"545 -69 CURVE SMOOTH",
"522 -93 OFFCURVE",
"508 -105 OFFCURVE",
"501 -105 CURVE SMOOTH",
"498 -105 OFFCURVE",
"497 -102 OFFCURVE",
"497 -97 CURVE SMOOTH",
"497 -76 OFFCURVE",
"507 -31 OFFCURVE",
"527 38 CURVE SMOOTH",
"543 93 OFFCURVE",
"557 139 OFFCURVE",
"570 174 CURVE",
"656 174 OFFCURVE",
"699 178 OFFCURVE",
"699 187 CURVE SMOOTH",
"699 191 OFFCURVE",
"696 194 OFFCURVE",
"690 196 CURVE SMOOTH",
"679 200 OFFCURVE",
"642 203 OFFCURVE",
"580 205 CURVE",
"642 382 OFFCURVE",
"702 494 OFFCURVE",
"761 543 CURVE SMOOTH",
"780 559 OFFCURVE",
"797 567 OFFCURVE",
"812 567 CURVE SMOOTH",
"831 567 OFFCURVE",
"840 558 OFFCURVE",
"840 541 CURVE SMOOTH",
"840 537 OFFCURVE",
"838 528 OFFCURVE",
"835 515 CURVE SMOOTH",
"832 501 OFFCURVE",
"830 497 OFFCURVE",
"830 503 CURVE SMOOTH",
"830 498 OFFCURVE",
"832 495 OFFCURVE",
"835 495 CURVE SMOOTH",
"842 495 OFFCURVE",
"849 503 OFFCURVE",
"857 520 CURVE SMOOTH",
"864 535 OFFCURVE",
"868 546 OFFCURVE",
"868 554 CURVE SMOOTH"
);
}
);
userData = {
assembly = "NPUSHB[ ]	/* 74 values pushed */\0121 113 113 64 114 0 82 60 59 48 47 45 44 30 27 4 102 84 67 62 60 59 57 49 48 47 44 39 32 19 6 15 5 71 100 5 71 9 5 0 37 5 25 77 5 93 64 7 97 21 7 105 11 7 111 103 102 105 7 39 40 73 8 97 79 7 89 111 35 55 1 1 93 70 \012SROUND[ ]	/* SuperRound */\012MDAP[1]	/* MoveDirectAbsPt */\012SHZ[1]	/* ShiftZoneByLastPoint */\012RTG[ ]	/* RoundToGrid */\012SVTCA[0]	/* SetFreedomAndProjectionVectorToAxis */\012MIAP[1]	/* MoveIndirectAbsPt */\012MDAP[1]	/* MoveDirectAbsPt */\012MDAP[1]	/* MoveDirectAbsPt */\012MDAP[1]	/* MoveDirectAbsPt */\012MIRP[11101]	/* MoveIndirectRelPt */\012MDAP[1]	/* MoveDirectAbsPt */\012MIRP[11101]	/* MoveIndirectRelPt */\012MDAP[1]	/* MoveDirectAbsPt */\012ALIGNRP[ ]	/* AlignRelativePt */\012MIRP[11101]	/* MoveIndirectRelPt */\012ALIGNRP[ ]	/* AlignRelativePt */\012ALIGNRP[ ]	/* AlignRelativePt */\012SRP0[ ]	/* SetRefPoint0 */\012MIRP[11101]	/* MoveIndirectRelPt */\012SRP0[ ]	/* SetRefPoint0 */\012MIRP[11101]	/* MoveIndirectRelPt */\012SRP0[ ]	/* SetRefPoint0 */\012MIRP[11101]	/* MoveIndirectRelPt */\012SVTCA[1]	/* SetFreedomAndProjectionVectorToAxis */\012MDAP[1]	/* MoveDirectAbsPt */\012MIRP[11101]	/* MoveIndirectRelPt */\012MDAP[1]	/* MoveDirectAbsPt */\012MIRP[11101]	/* MoveIndirectRelPt */\012MDAP[1]	/* MoveDirectAbsPt */\012MIRP[11101]	/* MoveIndirectRelPt */\012MDAP[1]	/* MoveDirectAbsPt */\012MIRP[11101]	/* MoveIndirectRelPt */\012SRP0[ ]	/* SetRefPoint0 */\012MIRP[11101]	/* MoveIndirectRelPt */\012MDAP[0]	/* MoveDirectAbsPt */\012MDAP[0]	/* MoveDirectAbsPt */\012MDAP[0]	/* MoveDirectAbsPt */\012MDAP[0]	/* MoveDirectAbsPt */\012MDAP[0]	/* MoveDirectAbsPt */\012MDAP[0]	/* MoveDirectAbsPt */\012MDAP[0]	/* MoveDirectAbsPt */\012MDAP[0]	/* MoveDirectAbsPt */\012MDAP[0]	/* MoveDirectAbsPt */\012MDAP[0]	/* MoveDirectAbsPt */\012MDAP[0]	/* MoveDirectAbsPt */\012MDAP[0]	/* MoveDirectAbsPt */\012MDAP[0]	/* MoveDirectAbsPt */\012MDAP[0]	/* MoveDirectAbsPt */\012MDAP[0]	/* MoveDirectAbsPt */\012SVTCA[0]	/* SetFreedomAndProjectionVectorToAxis */\012MDAP[0]	/* MoveDirectAbsPt */\012MDAP[0]	/* MoveDirectAbsPt */\012MDAP[0]	/* MoveDirectAbsPt */\012MDAP[0]	/* MoveDirectAbsPt */\012MDAP[0]	/* MoveDirectAbsPt */\012MDAP[0]	/* MoveDirectAbsPt */\012MDAP[0]	/* MoveDirectAbsPt */\012MDAP[0]	/* MoveDirectAbsPt */\012MDAP[0]	/* MoveDirectAbsPt */\012MDAP[0]	/* MoveDirectAbsPt */\012IUP[1]	/* InterpolateUntPts */\012IUP[0]	/* InterpolateUntPts */\012SVTCA[1]	/* SetFreedomAndProjectionVectorToAxis */\012MD[0]	/* MeasureDistance */\012ROUND[00]	/* Round */\012PUSHW[ ]	/* 2 values pushed */\01293 113 \012MD[0]	/* MeasureDistance */\012ROUND[00]	/* Round */\012SUB[ ]	/* Subtract */\012PUSHB[ ]	/* 1 value pushed */\01264 \012GT[ ]	/* GreaterThan */\012IF[ ]	/* If */\012SHPIX[ ]	/* ShiftZoneByPixel */\012SRP1[ ]	/* SetRefPoint1 */\012SHZ[1]	/* ShiftZoneByLastPoint */\012PUSHW[ ]	/* 2 values pushed */\012113 -64 \012SHPIX[ ]	/* ShiftZoneByPixel */\012EIF[ ]	/* EndIf */";
};
width = 622;
}
);
note = H;
unicode = 0048;
},
{
color = 3;
glyphname = I;
lastChange = "2021-08-02 20:56:00 +0000";
layers = (
{
layerId = "BE19588B-E19B-4B9D-8A17-411D65DA33D8";
paths = (
{
closed = 1;
nodes = (
"535 483.667 OFFCURVE",
"527.333 492 OFFCURVE",
"512 492 CURVE SMOOTH",
"484 492 OFFCURVE",
"442 471.667 OFFCURVE",
"386 431 CURVE SMOOTH",
"366.667 417 OFFCURVE",
"349.667 399.667 OFFCURVE",
"335 379 CURVE SMOOTH",
"317 354.333 OFFCURVE",
"308 332 OFFCURVE",
"308 312 CURVE SMOOTH",
"308 288.667 OFFCURVE",
"321.333 277 OFFCURVE",
"348 277 CURVE SMOOTH",
"384.667 277 OFFCURVE",
"403 282.333 OFFCURVE",
"403 293 CURVE SMOOTH",
"403 295.667 OFFCURVE",
"392.667 298.833 OFFCURVE",
"372 302.5 CURVE SMOOTH",
"351.333 306.167 OFFCURVE",
"341 314 OFFCURVE",
"341 326 CURVE SMOOTH",
"341 347.333 OFFCURVE",
"361 375.333 OFFCURVE",
"401 410 CURVE SMOOTH",
"432.333 437.333 OFFCURVE",
"465.333 456 OFFCURVE",
"500 466 CURVE",
"496.667 444.667 OFFCURVE",
"493.333 427 OFFCURVE",
"490 413 CURVE SMOOTH",
"462.667 307.667 OFFCURVE",
"432.333 223.333 OFFCURVE",
"399 160 CURVE SMOOTH",
"331 31.333 OFFCURVE",
"256 -33 OFFCURVE",
"174 -33 CURVE SMOOTH",
"84.667 -33 OFFCURVE",
"40 6.333 OFFCURVE",
"40 85 CURVE SMOOTH",
"40 127.667 OFFCURVE",
"51.333 163.333 OFFCURVE",
"74 192 CURVE SMOOTH",
"98.667 223.333 OFFCURVE",
"132 239 OFFCURVE",
"174 239 CURVE SMOOTH",
"207 239 OFFCURVE",
"232 211 OFFCURVE",
"244 196 CURVE SMOOTH",
"249 190 OFFCURVE",
"252 199.667 OFFCURVE",
"252 207 CURVE SMOOTH",
"252 236.333 OFFCURVE",
"211.667 266 OFFCURVE",
"181 266 CURVE SMOOTH",
"95 266 OFFCURVE",
"40 218.667 OFFCURVE",
"16 124 CURVE SMOOTH",
"13.333 113.333 OFFCURVE",
"12 101.667 OFFCURVE",
"12 89 CURVE SMOOTH",
"12 -0.333 OFFCURVE",
"79.333 -56 OFFCURVE",
"170 -56 CURVE SMOOTH",
"234.667 -56 OFFCURVE",
"294 -29.333 OFFCURVE",
"348 24 CURVE SMOOTH",
"392 67.333 OFFCURVE",
"428.333 123.667 OFFCURVE",
"457 193 CURVE SMOOTH",
"473 231 OFFCURVE",
"489 276.667 OFFCURVE",
"505 330 CURVE SMOOTH",
"525 395.333 OFFCURVE",
"535 441 OFFCURVE",
"535 467 CURVE SMOOTH"
);
}
);
userData = {
assembly = "NPUSHB[ ]	/* 33 values pushed */\0121 55 55 64 56 0 45 36 20 36 18 0 43 5 47 28 5 11 47 5 40 30 7 8 24 7 15 8 53 3 1 11 70 \012SROUND[ ]	/* SuperRound */\012MDAP[1]	/* MoveDirectAbsPt */\012SHZ[1]	/* ShiftZoneByLastPoint */\012RTG[ ]	/* RoundToGrid */\012SVTCA[0]	/* SetFreedomAndProjectionVectorToAxis */\012MIAP[1]	/* MoveIndirectAbsPt */\012MDAP[1]	/* MoveDirectAbsPt */\012MDAP[1]	/* MoveDirectAbsPt */\012MIRP[11101]	/* MoveIndirectRelPt */\012SRP0[ ]	/* SetRefPoint0 */\012MIRP[11101]	/* MoveIndirectRelPt */\012SVTCA[1]	/* SetFreedomAndProjectionVectorToAxis */\012MDAP[1]	/* MoveDirectAbsPt */\012MIRP[11101]	/* MoveIndirectRelPt */\012MDAP[1]	/* MoveDirectAbsPt */\012MIRP[11101]	/* MoveIndirectRelPt */\012SRP0[ ]	/* SetRefPoint0 */\012MIRP[11101]	/* MoveIndirectRelPt */\012MDAP[0]	/* MoveDirectAbsPt */\012MDAP[0]	/* MoveDirectAbsPt */\012MDAP[0]	/* MoveDirectAbsPt */\012SVTCA[0]	/* SetFreedomAndProjectionVectorToAxis */\012MDAP[0]	/* MoveDirectAbsPt */\012MDAP[0]	/* MoveDirectAbsPt */\012MDAP[0]	/* MoveDirectAbsPt */\012IUP[1]	/* InterpolateUntPts */\012IUP[0]	/* InterpolateUntPts */\012SVTCA[1]	/* SetFreedomAndProjectionVectorToAxis */\012MD[0]	/* MeasureDistance */\012ROUND[00]	/* Round */\012PUSHW[ ]	/* 2 values pushed */\01211 55 \012MD[0]	/* MeasureDistance */\012ROUND[00]	/* Round */\012SUB[ ]	/* Subtract */\012PUSHB[ ]	/* 1 value pushed */\01264 \012GT[ ]	/* GreaterThan */\012IF[ ]	/* If */\012SHPIX[ ]	/* ShiftZoneByPixel */\012SRP1[ ]	/* SetRefPoint1 */\012SHZ[1]	/* ShiftZoneByLastPoint */\012PUSHW[ ]	/* 2 values pushed */\01255 -64 \012SHPIX[ ]	/* ShiftZoneByPixel */\012EIF[ ]	/* EndIf */";
};
width = 451;
}
);
note = I;
unicode = 0049;
},
{
color = 3;
glyphname = J;
lastChange = "2021-08-02 20:56:00 +0000";
layers = (
{
layerId = "BE19588B-E19B-4B9D-8A17-411D65DA33D8";
paths = (
{
closed = 1;
nodes = (
"597 425 OFFCURVE",
"562.667 447.333 OFFCURVE",
"494 460 CURVE",
"488 481.333 OFFCURVE",
"478.667 492 OFFCURVE",
"466 492 CURVE SMOOTH",
"452 492 OFFCURVE",
"445 484.333 OFFCURVE",
"445 469 CURVE SMOOTH",
"445 465 LINE",
"429 467 OFFCURVE",
"415.667 468 OFFCURVE",
"405 468 CURVE SMOOTH",
"363.667 468 OFFCURVE",
"327.667 461.333 OFFCURVE",
"297 448 CURVE SMOOTH",
"256.333 430.667 OFFCURVE",
"236 404 OFFCURVE",
"236 368 CURVE SMOOTH",
"236 324 OFFCURVE",
"275 282 OFFCURVE",
"319 282 CURVE SMOOTH",
"329.667 282 OFFCURVE",
"358 288.333 OFFCURVE",
"358 295 CURVE SMOOTH",
"358 299 OFFCURVE",
"350.333 301.667 OFFCURVE",
"335 303 CURVE SMOOTH",
"315.667 304.333 OFFCURVE",
"304.333 305.667 OFFCURVE",
"301 307 CURVE SMOOTH",
"277.667 315.667 OFFCURVE",
"266 332.667 OFFCURVE",
"266 358 CURVE SMOOTH",
"266 388 OFFCURVE",
"287.333 411.333 OFFCURVE",
"330 428 CURVE SMOOTH",
"359.333 439.333 OFFCURVE",
"385.667 445 OFFCURVE",
"409 445 CURVE SMOOTH",
"423.667 445 OFFCURVE",
"438.333 444.333 OFFCURVE",
"453 443 CURVE",
"453 435 LINE SMOOTH",
"453 397 OFFCURVE",
"432.333 320 OFFCURVE",
"391 204 CURVE SMOOTH",
"359.667 116 OFFCURVE",
"320.667 43.333 OFFCURVE",
"274 -14 CURVE SMOOTH",
"211.333 -91.333 OFFCURVE",
"142 -130 OFFCURVE",
"66 -130 CURVE SMOOTH",
"-12.667 -130 OFFCURVE",
"-71 -75.667 OFFCURVE",
"-71 3 CURVE SMOOTH",
"-71 43.667 OFFCURVE",
"-57.667 81.333 OFFCURVE",
"-31 116 CURVE SMOOTH",
"-3 153.333 OFFCURVE",
"31 172 OFFCURVE",
"71 172 CURVE SMOOTH",
"128.333 172 OFFCURVE",
"171 121.333 OFFCURVE",
"171 64 CURVE SMOOTH",
"171 57.333 OFFCURVE",
"169.333 48 OFFCURVE",
"166 36 CURVE SMOOTH",
"162.667 24 OFFCURVE",
"161 16 OFFCURVE",
"161 12 CURVE SMOOTH",
"161 8 OFFCURVE",
"163.667 6 OFFCURVE",
"169 6 CURVE SMOOTH",
"172.333 6 OFFCURVE",
"177.333 10.333 OFFCURVE",
"184 19 CURVE SMOOTH",
"196.667 35.667 OFFCURVE",
"203 56 OFFCURVE",
"203 80 CURVE SMOOTH",
"203 152 OFFCURVE",
"148.333 197 OFFCURVE",
"75 197 CURVE SMOOTH",
"-19.667 197 OFFCURVE",
"-112 106.667 OFFCURVE",
"-112 12 CURVE SMOOTH",
"-112 -86.667 OFFCURVE",
"-33 -152 OFFCURVE",
"67 -152 CURVE SMOOTH",
"147 -152 OFFCURVE",
"221.667 -115.667 OFFCURVE",
"291 -43 CURVE SMOOTH",
"347 15.667 OFFCURVE",
"391.667 89 OFFCURVE",
"425 177 CURVE SMOOTH",
"472.333 302.333 OFFCURVE",
"496 389 OFFCURVE",
"496 437 CURVE",
"507.333 435 OFFCURVE",
"523.333 425 OFFCURVE",
"544 407 CURVE SMOOTH",
"562.667 390.333 OFFCURVE",
"578.667 382 OFFCURVE",
"592 382 CURVE SMOOTH",
"595.333 382 OFFCURVE",
"597 385.667 OFFCURVE",
"597 393 CURVE SMOOTH"
);
}
);
userData = {
assembly = "NPUSHB[ ]	/* 44 values pushed */\0121 78 78 64 79 0 71 25 6 2 72 71 59 47 46 27 0 37 5 15 21 5 30 65 5 53 40 7 12 33 7 18 49 7 69 62 7 57 12 74 3 1 15 70 \012SROUND[ ]	/* SuperRound */\012MDAP[1]	/* MoveDirectAbsPt */\012SHZ[1]	/* ShiftZoneByLastPoint */\012RTG[ ]	/* RoundToGrid */\012SVTCA[0]	/* SetFreedomAndProjectionVectorToAxis */\012MIAP[1]	/* MoveIndirectAbsPt */\012MDAP[1]	/* MoveDirectAbsPt */\012MDAP[1]	/* MoveDirectAbsPt */\012MIRP[11101]	/* MoveIndirectRelPt */\012MDAP[1]	/* MoveDirectAbsPt */\012MIRP[11101]	/* MoveIndirectRelPt */\012MDAP[1]	/* MoveDirectAbsPt */\012MIRP[11101]	/* MoveIndirectRelPt */\012SRP0[ ]	/* SetRefPoint0 */\012MIRP[11101]	/* MoveIndirectRelPt */\012SVTCA[1]	/* SetFreedomAndProjectionVectorToAxis */\012MDAP[1]	/* MoveDirectAbsPt */\012MIRP[11101]	/* MoveIndirectRelPt */\012MDAP[1]	/* MoveDirectAbsPt */\012MIRP[11101]	/* MoveIndirectRelPt */\012MDAP[1]	/* MoveDirectAbsPt */\012MIRP[11101]	/* MoveIndirectRelPt */\012MDAP[0]	/* MoveDirectAbsPt */\012MDAP[0]	/* MoveDirectAbsPt */\012MDAP[0]	/* MoveDirectAbsPt */\012MDAP[0]	/* MoveDirectAbsPt */\012MDAP[0]	/* MoveDirectAbsPt */\012MDAP[0]	/* MoveDirectAbsPt */\012MDAP[0]	/* MoveDirectAbsPt */\012SVTCA[0]	/* SetFreedomAndProjectionVectorToAxis */\012MDAP[0]	/* MoveDirectAbsPt */\012MDAP[0]	/* MoveDirectAbsPt */\012MDAP[0]	/* MoveDirectAbsPt */\012MDAP[0]	/* MoveDirectAbsPt */\012IUP[1]	/* InterpolateUntPts */\012IUP[0]	/* InterpolateUntPts */\012SVTCA[1]	/* SetFreedomAndProjectionVectorToAxis */\012MD[0]	/* MeasureDistance */\012ROUND[00]	/* Round */\012PUSHW[ ]	/* 2 values pushed */\01215 78 \012MD[0]	/* MeasureDistance */\012ROUND[00]	/* Round */\012SUB[ ]	/* Subtract */\012PUSHB[ ]	/* 1 value pushed */\01264 \012GT[ ]	/* GreaterThan */\012IF[ ]	/* If */\012SHPIX[ ]	/* ShiftZoneByPixel */\012SRP1[ ]	/* SetRefPoint1 */\012SHZ[1]	/* ShiftZoneByLastPoint */\012PUSHW[ ]	/* 2 values pushed */\01278 -64 \012SHPIX[ ]	/* ShiftZoneByPixel */\012EIF[ ]	/* EndIf */";
};
width = 439;
}
);
note = J;
unicode = 004A;
},
{
color = 3;
glyphname = K;
lastChange = "2021-08-02 20:56:00 +0000";
layers = (
{
layerId = "BE19588B-E19B-4B9D-8A17-411D65DA33D8";
paths = (
{
closed = 1;
nodes = (
"799 -54 OFFCURVE",
"777.333 -13 OFFCURVE",
"764 -13 CURVE SMOOTH",
"760 -13 OFFCURVE",
"758 -15.667 OFFCURVE",
"758 -21 CURVE SMOOTH",
"758 -25.667 OFFCURVE",
"759.5 -32.333 OFFCURVE",
"762.5 -41 CURVE SMOOTH",
"765.5 -49.667 OFFCURVE",
"767 -56.333 OFFCURVE",
"767 -61 CURVE SMOOTH",
"767 -79 OFFCURVE",
"756.333 -88 OFFCURVE",
"735 -88 CURVE SMOOTH",
"727.667 -88 OFFCURVE",
"719.333 -86.667 OFFCURVE",
"710 -84 CURVE SMOOTH",
"664.667 -70.667 OFFCURVE",
"616.333 -29 OFFCURVE",
"565 41 CURVE SMOOTH",
"544.333 69.667 OFFCURVE",
"509 127 OFFCURVE",
"459 213 CURVE",
"528.333 219.667 OFFCURVE",
"593 241.667 OFFCURVE",
"653 279 CURVE SMOOTH",
"725.667 324.333 OFFCURVE",
"762 378.333 OFFCURVE",
"762 441 CURVE SMOOTH",
"762 475.667 OFFCURVE",
"753.667 493 OFFCURVE",
"737 493 CURVE SMOOTH",
"728.333 493 OFFCURVE",
"724 486.333 OFFCURVE",
"724 473 CURVE SMOOTH",
"724 469 OFFCURVE",
"724.333 463.333 OFFCURVE",
"725 456 CURVE SMOOTH",
"726 439 LINE SMOOTH",
"726 399.667 OFFCURVE",
"710 364.333 OFFCURVE",
"678 333 CURVE SMOOTH",
"631.333 286.333 OFFCURVE",
"526.333 239.333 OFFCURVE",
"461 234 CURVE",
"495 341.333 OFFCURVE",
"512 416 OFFCURVE",
"512 458 CURVE SMOOTH",
"512 480.667 OFFCURVE",
"503.667 492 OFFCURVE",
"487 492 CURVE SMOOTH",
"474.333 492 OFFCURVE",
"457.667 486 OFFCURVE",
"437 474 CURVE SMOOTH",
"385 443.333 OFFCURVE",
"344 419.667 OFFCURVE",
"316 381 CURVE SMOOTH",
"300 358.333 OFFCURVE",
"292 336.667 OFFCURVE",
"292 316 CURVE SMOOTH",
"292 290 OFFCURVE",
"305.333 277 OFFCURVE",
"332 277 CURVE SMOOTH",
"369.333 277 OFFCURVE",
"388 282.333 OFFCURVE",
"388 293 CURVE SMOOTH",
"388 295.667 OFFCURVE",
"376.667 299.167 OFFCURVE",
"354 303.5 CURVE SMOOTH",
"331.333 307.833 OFFCURVE",
"320 316.333 OFFCURVE",
"320 329 CURVE SMOOTH",
"320 352.333 OFFCURVE",
"339.667 379.333 OFFCURVE",
"379 410 CURVE SMOOTH",
"388.333 417.333 OFFCURVE",
"405 428 OFFCURVE",
"429 442 CURVE SMOOTH",
"456.333 458 OFFCURVE",
"473 466 OFFCURVE",
"479 466 CURVE",
"479 464 LINE SMOOTH",
"479 468 OFFCURVE",
"477.667 463.667 OFFCURVE",
"475 451 CURVE SMOOTH",
"470.333 429 OFFCURVE",
"467.333 412 OFFCURVE",
"466 400 CURVE",
"456 353.333 OFFCURVE",
"443.667 306.667 OFFCURVE",
"429 260 CURVE",
"420.333 271.333 OFFCURVE",
"410.333 277 OFFCURVE",
"399 277 CURVE SMOOTH",
"381.667 277 OFFCURVE",
"373 269 OFFCURVE",
"373 253 CURVE SMOOTH",
"373 239.667 OFFCURVE",
"379.667 233 OFFCURVE",
"393 233 CURVE SMOOTH",
"398.333 233 OFFCURVE",
"402.667 234.667 OFFCURVE",
"406 238 CURVE",
"411.333 232.667 OFFCURVE",
"415.333 228 OFFCURVE",
"418 224 CURVE",
"394 158 OFFCURVE",
"365 102.667 OFFCURVE",
"331 58 CURVE SMOOTH",
"284.333 -2.667 OFFCURVE",
"233 -33 OFFCURVE",
"177 -33 CURVE SMOOTH",
"135.667 -33 OFFCURVE",
"102.333 -22.333 OFFCURVE",
"77 -1 CURVE SMOOTH",
"49 21 OFFCURVE",
"35 52.333 OFFCURVE",
"35 93 CURVE SMOOTH",
"35 169 OFFCURVE",
"88.333 237 OFFCURVE",
"163 237 CURVE SMOOTH",
"181.667 237 OFFCURVE",
"198.5 229.667 OFFCURVE",
"213.5 215 CURVE SMOOTH",
"228.5 200.333 OFFCURVE",
"237 193 OFFCURVE",
"239 193 CURVE SMOOTH",
"243 193 OFFCURVE",
"245 196.667 OFFCURVE",
"245 204 CURVE SMOOTH",
"245 237.333 OFFCURVE",
"201.667 266 OFFCURVE",
"167 266 CURVE SMOOTH",
"73.667 266 OFFCURVE",
"8 190.667 OFFCURVE",
"8 96 CURVE SMOOTH",
"8 49.333 OFFCURVE",
"24 12 OFFCURVE",
"56 -16 CURVE SMOOTH",
"86 -42.667 OFFCURVE",
"124.667 -56 OFFCURVE",
"172 -56 CURVE SMOOTH",
"235.333 -56 OFFCURVE",
"292.333 -30.667 OFFCURVE",
"343 20 CURVE SMOOTH",
"385 61.333 OFFCURVE",
"418.667 115.667 OFFCURVE",
"444 183 CURVE",
"533.333 26.333 OFFCURVE",
"605.333 -68 OFFCURVE",
"660 -100 CURVE SMOOTH",
"685.333 -114.667 OFFCURVE",
"709.333 -122 OFFCURVE",
"732 -122 CURVE SMOOTH",
"766.667 -122 OFFCURVE",
"799 -103.333 OFFCURVE",
"799 -70 CURVE SMOOTH"
);
}
);
userData = {
assembly = "NPUSHB[ ]	/* 62 values pushed */\0121 110 110 64 111 0 107 65 54 47 23 7 105 76 54 53 37 21 43 5 94 78 63 5 67 29 5 15 60 5 67 86 83 5 90 102 5 0 100 7 3 78 41 7 45 33 7 11 39 26 7 18 86 7 88 3 88 74 3 1 15 70 \012SROUND[ ]	/* SuperRound */\012MDAP[1]	/* MoveDirectAbsPt */\012SHZ[1]	/* ShiftZoneByLastPoint */\012RTG[ ]	/* RoundToGrid */\012SVTCA[0]	/* SetFreedomAndProjectionVectorToAxis */\012MIAP[1]	/* MoveIndirectAbsPt */\012ALIGNRP[ ]	/* AlignRelativePt */\012MDAP[1]	/* MoveDirectAbsPt */\012SRP0[ ]	/* SetRefPoint0 */\012MIRP[11101]	/* MoveIndirectRelPt */\012MDAP[1]	/* MoveDirectAbsPt */\012MIRP[11101]	/* MoveIndirectRelPt */\012ALIGNRP[ ]	/* AlignRelativePt */\012MDAP[1]	/* MoveDirectAbsPt */\012MIRP[11101]	/* MoveIndirectRelPt */\012MDAP[1]	/* MoveDirectAbsPt */\012MIRP[11101]	/* MoveIndirectRelPt */\012ALIGNRP[ ]	/* AlignRelativePt */\012SRP0[ ]	/* SetRefPoint0 */\012MIRP[11101]	/* MoveIndirectRelPt */\012SVTCA[1]	/* SetFreedomAndProjectionVectorToAxis */\012MDAP[1]	/* MoveDirectAbsPt */\012MIRP[11101]	/* MoveIndirectRelPt */\012MDAP[1]	/* MoveDirectAbsPt */\012MIRP[11101]	/* MoveIndirectRelPt */\012ALIGNRP[ ]	/* AlignRelativePt */\012MDAP[1]	/* MoveDirectAbsPt */\012MIRP[11101]	/* MoveIndirectRelPt */\012MDAP[1]	/* MoveDirectAbsPt */\012MIRP[11101]	/* MoveIndirectRelPt */\012SRP0[ ]	/* SetRefPoint0 */\012MIRP[11101]	/* MoveIndirectRelPt */\012MDAP[1]	/* MoveDirectAbsPt */\012ALIGNRP[ ]	/* AlignRelativePt */\012MIRP[11101]	/* MoveIndirectRelPt */\012MDAP[0]	/* MoveDirectAbsPt */\012MDAP[0]	/* MoveDirectAbsPt */\012MDAP[0]	/* MoveDirectAbsPt */\012MDAP[0]	/* MoveDirectAbsPt */\012MDAP[0]	/* MoveDirectAbsPt */\012MDAP[0]	/* MoveDirectAbsPt */\012SVTCA[0]	/* SetFreedomAndProjectionVectorToAxis */\012MDAP[0]	/* MoveDirectAbsPt */\012MDAP[0]	/* MoveDirectAbsPt */\012MDAP[0]	/* MoveDirectAbsPt */\012MDAP[0]	/* MoveDirectAbsPt */\012MDAP[0]	/* MoveDirectAbsPt */\012MDAP[0]	/* MoveDirectAbsPt */\012IUP[1]	/* InterpolateUntPts */\012IUP[0]	/* InterpolateUntPts */\012SVTCA[1]	/* SetFreedomAndProjectionVectorToAxis */\012MD[0]	/* MeasureDistance */\012ROUND[00]	/* Round */\012PUSHW[ ]	/* 2 values pushed */\01215 110 \012MD[0]	/* MeasureDistance */\012ROUND[00]	/* Round */\012SUB[ ]	/* Subtract */\012PUSHB[ ]	/* 1 value pushed */\01264 \012GT[ ]	/* GreaterThan */\012IF[ ]	/* If */\012SHPIX[ ]	/* ShiftZoneByPixel */\012SRP1[ ]	/* SetRefPoint1 */\012SHZ[1]	/* ShiftZoneByLastPoint */\012PUSHW[ ]	/* 2 values pushed */\012110 -64 \012SHPIX[ ]	/* ShiftZoneByPixel */\012EIF[ ]	/* EndIf */";
};
width = 623;
}
);
note = K;
unicode = 004B;
},
{
color = 3;
glyphname = L;
lastChange = "2021-08-02 20:56:00 +0000";
layers = (
{
layerId = "BE19588B-E19B-4B9D-8A17-411D65DA33D8";
paths = (
{
closed = 1;
nodes = (
"560 406.667 OFFCURVE",
"553 431.667 OFFCURVE",
"539 451 CURVE SMOOTH",
"523 473 OFFCURVE",
"500.333 484 OFFCURVE",
"471 484 CURVE SMOOTH",
"429.667 484 OFFCURVE",
"389.333 452 OFFCURVE",
"350 388 CURVE SMOOTH",
"335.333 364 OFFCURVE",
"311.667 314.333 OFFCURVE",
"279 239 CURVE SMOOTH",
"240 153 LINE",
"199.333 172.333 OFFCURVE",
"179 199.333 OFFCURVE",
"179 234 CURVE SMOOTH",
"179 265.333 OFFCURVE",
"190.333 281 OFFCURVE",
"213 281 CURVE SMOOTH",
"219 281 OFFCURVE",
"225.333 279.333 OFFCURVE",
"232 276 CURVE SMOOTH",
"242 271.333 OFFCURVE",
"248 269 OFFCURVE",
"250 269 CURVE SMOOTH",
"253.333 269 OFFCURVE",
"255 270.667 OFFCURVE",
"255 274 CURVE SMOOTH",
"255 290 OFFCURVE",
"226 307 OFFCURVE",
"210 307 CURVE SMOOTH",
"175.333 307 OFFCURVE",
"148 273 OFFCURVE",
"148 237 CURVE SMOOTH",
"148 191.667 OFFCURVE",
"176 157 OFFCURVE",
"232 133 CURVE",
"212 93.667 OFFCURVE",
"197.333 64 OFFCURVE",
"188 44 CURVE",
"168 67.333 OFFCURVE",
"143.667 99.667 OFFCURVE",
"115 141 CURVE SMOOTH",
"97 167.667 OFFCURVE",
"82.333 181 OFFCURVE",
"71 181 CURVE SMOOTH",
"56.333 181 OFFCURVE",
"43.333 161 OFFCURVE",
"32 121 CURVE SMOOTH",
"22.667 89 OFFCURVE",
"18 63 OFFCURVE",
"18 43 CURVE SMOOTH",
"18 -26.333 OFFCURVE",
"45 -61 OFFCURVE",
"99 -61 CURVE SMOOTH",
"135 -61 OFFCURVE",
"167.667 -42 OFFCURVE",
"197 -4 CURVE",
"290.333 -90 OFFCURVE",
"375.667 -133 OFFCURVE",
"453 -133 CURVE SMOOTH",
"479.667 -133 OFFCURVE",
"502.667 -127.667 OFFCURVE",
"522 -117 CURVE SMOOTH",
"546 -104.333 OFFCURVE",
"558 -85.667 OFFCURVE",
"558 -61 CURVE SMOOTH",
"558 -51.667 OFFCURVE",
"555.333 -43.333 OFFCURVE",
"550 -36 CURVE SMOOTH",
"539.333 -22 OFFCURVE",
"531.667 -15 OFFCURVE",
"527 -15 CURVE SMOOTH",
"522.333 -15 OFFCURVE",
"520 -18 OFFCURVE",
"520 -24 CURVE SMOOTH",
"520 -27.333 OFFCURVE",
"521.167 -32.333 OFFCURVE",
"523.5 -39 CURVE SMOOTH",
"525.833 -45.667 OFFCURVE",
"527 -50.667 OFFCURVE",
"527 -54 CURVE SMOOTH",
"527 -84.667 OFFCURVE",
"494.667 -100 OFFCURVE",
"430 -100 CURVE SMOOTH",
"398 -100 OFFCURVE",
"358.667 -86.333 OFFCURVE",
"312 -59 CURVE SMOOTH",
"271.333 -35.667 OFFCURVE",
"237.667 -10 OFFCURVE",
"211 18 CURVE",
"237 62.667 OFFCURVE",
"256.333 96.333 OFFCURVE",
"269 119 CURVE",
"281 115.667 OFFCURVE",
"294 114 OFFCURVE",
"308 114 CURVE SMOOTH",
"353.333 114 OFFCURVE",
"397.333 127.667 OFFCURVE",
"440 155 CURVE SMOOTH",
"520 206.333 OFFCURVE",
"560 280 OFFCURVE",
"560 376 CURVE SMOOTH"
);
},
{
closed = 1;
nodes = (
"527 351 OFFCURVE",
"517.667 311.667 OFFCURVE",
"499 271 CURVE SMOOTH",
"467 201.667 OFFCURVE",
"377.667 137 OFFCURVE",
"303 137 CURVE SMOOTH",
"294.333 137 OFFCURVE",
"286.667 138 OFFCURVE",
"280 140 CURVE",
"324 234 LINE SMOOTH",
"350.667 298 OFFCURVE",
"370.667 342 OFFCURVE",
"384 366 CURVE SMOOTH",
"418.667 429.333 OFFCURVE",
"449.667 461 OFFCURVE",
"477 461 CURVE SMOOTH",
"510.333 461 OFFCURVE",
"527 437 OFFCURVE",
"527 389 CURVE SMOOTH"
);
},
{
closed = 1;
nodes = (
"159 -8.333 OFFCURVE",
"124.667 -32 OFFCURVE",
"98 -32 CURVE SMOOTH",
"67.333 -32 OFFCURVE",
"52 4 OFFCURVE",
"52 76 CURVE SMOOTH",
"52 119.333 OFFCURVE",
"56.333 141 OFFCURVE",
"65 141 CURVE SMOOTH",
"67 141 OFFCURVE",
"70.333 138.667 OFFCURVE",
"75 134 CURVE",
"97 106 LINE SMOOTH",
"123 71.333 OFFCURVE",
"149 41.667 OFFCURVE",
"175 17 CURVE"
);
}
);
userData = {
assembly = "NPUSHB[ ]	/* 64 values pushed */\0121 99 99 64 100 0 92 61 53 41 29 19 6 86 79 51 43 17 77 75 79 9 63 61 61 63 8 5 33 94 5 33 59 5 45 71 14 5 23 0 37 7 31 12 7 27 81 7 4 96 7 31 57 7 48 73 7 67 27 67 3 1 33 70 \012SROUND[ ]	/* SuperRound */\012MDAP[1]	/* MoveDirectAbsPt */\012SHZ[1]	/* ShiftZoneByLastPoint */\012RTG[ ]	/* RoundToGrid */\012SVTCA[0]	/* SetFreedomAndProjectionVectorToAxis */\012MIAP[1]	/* MoveIndirectAbsPt */\012MDAP[1]	/* MoveDirectAbsPt */\012SRP0[ ]	/* SetRefPoint0 */\012MIRP[11101]	/* MoveIndirectRelPt */\012MDAP[1]	/* MoveDirectAbsPt */\012MIRP[11101]	/* MoveIndirectRelPt */\012MDAP[1]	/* MoveDirectAbsPt */\012MIRP[11101]	/* MoveIndirectRelPt */\012MDAP[1]	/* MoveDirectAbsPt */\012MIRP[11101]	/* MoveIndirectRelPt */\012SRP0[ ]	/* SetRefPoint0 */\012MIRP[11101]	/* MoveIndirectRelPt */\012SRP0[ ]	/* SetRefPoint0 */\012MIRP[11101]	/* MoveIndirectRelPt */\012SVTCA[1]	/* SetFreedomAndProjectionVectorToAxis */\012MDAP[1]	/* MoveDirectAbsPt */\012ALIGNRP[ ]	/* AlignRelativePt */\012MIRP[11101]	/* MoveIndirectRelPt */\012ALIGNRP[ ]	/* AlignRelativePt */\012MDAP[1]	/* MoveDirectAbsPt */\012MIRP[11101]	/* MoveIndirectRelPt */\012MDAP[1]	/* MoveDirectAbsPt */\012MIRP[11101]	/* MoveIndirectRelPt */\012SRP0[ ]	/* SetRefPoint0 */\012MIRP[11101]	/* MoveIndirectRelPt */\012SDPVTL[1]	/* SetDualPVectorToLine */\012MDAP[0]	/* MoveDirectAbsPt */\012SFVTPV[ ]	/* SetFVectorToPVector */\012MDRP[00100]	/* MoveDirectRelPt */\012SFVTPV[ ]	/* SetFVectorToPVector */\012MIRP[11100]	/* MoveIndirectRelPt */\012SFVTPV[ ]	/* SetFVectorToPVector */\012MDRP[00100]	/* MoveDirectRelPt */\012SFVTPV[ ]	/* SetFVectorToPVector */\012MDRP[00100]	/* MoveDirectRelPt */\012SVTCA[1]	/* SetFreedomAndProjectionVectorToAxis */\012MDAP[0]	/* MoveDirectAbsPt */\012MDAP[0]	/* MoveDirectAbsPt */\012MDAP[0]	/* MoveDirectAbsPt */\012MDAP[0]	/* MoveDirectAbsPt */\012MDAP[0]	/* MoveDirectAbsPt */\012SVTCA[0]	/* SetFreedomAndProjectionVectorToAxis */\012MDAP[0]	/* MoveDirectAbsPt */\012MDAP[0]	/* MoveDirectAbsPt */\012MDAP[0]	/* MoveDirectAbsPt */\012MDAP[0]	/* MoveDirectAbsPt */\012MDAP[0]	/* MoveDirectAbsPt */\012MDAP[0]	/* MoveDirectAbsPt */\012MDAP[0]	/* MoveDirectAbsPt */\012IUP[1]	/* InterpolateUntPts */\012IUP[0]	/* InterpolateUntPts */\012SVTCA[1]	/* SetFreedomAndProjectionVectorToAxis */\012MD[0]	/* MeasureDistance */\012ROUND[00]	/* Round */\012PUSHW[ ]	/* 2 values pushed */\01233 99 \012MD[0]	/* MeasureDistance */\012ROUND[00]	/* Round */\012SUB[ ]	/* Subtract */\012PUSHB[ ]	/* 1 value pushed */\01264 \012GT[ ]	/* GreaterThan */\012IF[ ]	/* If */\012SHPIX[ ]	/* ShiftZoneByPixel */\012SRP1[ ]	/* SetRefPoint1 */\012SHZ[1]	/* ShiftZoneByLastPoint */\012PUSHW[ ]	/* 2 values pushed */\01299 -64 \012SHPIX[ ]	/* ShiftZoneByPixel */\012EIF[ ]	/* EndIf */";
};
width = 497;
}
);
note = L;
unicode = 004C;
},
{
color = 3;
glyphname = M;
lastChange = "2021-08-02 20:56:00 +0000";
layers = (
{
layerId = "BE19588B-E19B-4B9D-8A17-411D65DA33D8";
paths = (
{
closed = 1;
nodes = (
"912 492.667 OFFCURVE",
"902.667 504 OFFCURVE",
"884 504 CURVE SMOOTH",
"858.667 504 OFFCURVE",
"825.667 482.333 OFFCURVE",
"785 439 CURVE SMOOTH",
"695 343 OFFCURVE",
"629.667 256.667 OFFCURVE",
"589 180 CURVE",
"623 300.667 OFFCURVE",
"640 377.667 OFFCURVE",
"640 411 CURVE SMOOTH",
"640 446.333 OFFCURVE",
"628.667 464 OFFCURVE",
"606 464 CURVE SMOOTH",
"578.667 464 OFFCURVE",
"550.667 445.333 OFFCURVE",
"522 408 CURVE SMOOTH",
"476.667 349.333 OFFCURVE",
"440 293.333 OFFCURVE",
"412 240 CURVE",
"426.667 285.333 OFFCURVE",
"434 327.667 OFFCURVE",
"434 367 CURVE SMOOTH",
"434 455 OFFCURVE",
"392 499 OFFCURVE",
"308 499 CURVE SMOOTH",
"274.667 499 OFFCURVE",
"239.333 492 OFFCURVE",
"202 478 CURVE SMOOTH",
"162.667 463.333 OFFCURVE",
"132 445 OFFCURVE",
"110 423 CURVE SMOOTH",
"40 351.667 OFFCURVE",
"5 280.333 OFFCURVE",
"5 209 CURVE SMOOTH",
"5 125 OFFCURVE",
"61 58 OFFCURVE",
"145 58 CURVE SMOOTH",
"179 58 OFFCURVE",
"209.333 67.333 OFFCURVE",
"236 86 CURVE SMOOTH",
"266 106.667 OFFCURVE",
"281 133.333 OFFCURVE",
"281 166 CURVE SMOOTH",
"281 187.333 OFFCURVE",
"267 211 OFFCURVE",
"247 211 CURVE SMOOTH",
"241 211 OFFCURVE",
"238 208.667 OFFCURVE",
"238 204 CURVE SMOOTH",
"238 204.667 OFFCURVE",
"240.667 201.167 OFFCURVE",
"246 193.5 CURVE SMOOTH",
"251.333 185.833 OFFCURVE",
"254 177.333 OFFCURVE",
"254 168 CURVE SMOOTH",
"254 140 OFFCURVE",
"240.667 117.667 OFFCURVE",
"214 101 CURVE SMOOTH",
"191.333 87 OFFCURVE",
"165 80 OFFCURVE",
"135 80 CURVE SMOOTH",
"104.333 80 OFFCURVE",
"80.333 92.667 OFFCURVE",
"63 118 CURVE SMOOTH",
"47.667 140.667 OFFCURVE",
"40 168 OFFCURVE",
"40 200 CURVE SMOOTH",
"40 333.333 OFFCURVE",
"166 475 OFFCURVE",
"298 475 CURVE SMOOTH",
"370 475 OFFCURVE",
"395 441.333 OFFCURVE",
"395 368 CURVE SMOOTH",
"395 319.333 OFFCURVE",
"386 270 OFFCURVE",
"368 220 CURVE SMOOTH",
"348 166 OFFCURVE",
"332.667 125.667 OFFCURVE",
"322 99 CURVE SMOOTH",
"298.667 36.333 OFFCURVE",
"287 -0.667 OFFCURVE",
"287 -12 CURVE SMOOTH",
"287 -24 OFFCURVE",
"293.333 -30 OFFCURVE",
"306 -30 CURVE SMOOTH",
"316.667 -30 OFFCURVE",
"344 -16.667 OFFCURVE",
"344 -6 CURVE SMOOTH",
"344 -4.667 OFFCURVE",
"342.167 -2.833 OFFCURVE",
"338.5 -0.5 CURVE SMOOTH",
"334.833 1.833 OFFCURVE",
"333 5 OFFCURVE",
"333 9 CURVE SMOOTH",
"333 15.667 OFFCURVE",
"335.667 26.333 OFFCURVE",
"341 41 CURVE SMOOTH",
"381 153 OFFCURVE",
"482.667 325.333 OFFCURVE",
"560 408 CURVE SMOOTH",
"573.333 422 OFFCURVE",
"582.667 429 OFFCURVE",
"588 429 CURVE SMOOTH",
"594.667 429 OFFCURVE",
"598 419 OFFCURVE",
"598 399 CURVE SMOOTH",
"598 349 OFFCURVE",
"579.667 264.667 OFFCURVE",
"543 146 CURVE SMOOTH",
"512.333 46.667 OFFCURVE",
"497 -0.333 OFFCURVE",
"497 5 CURVE SMOOTH",
"497 -4.333 OFFCURVE",
"502.333 -9 OFFCURVE",
"513 -9 CURVE SMOOTH",
"527.667 -9 OFFCURVE",
"539.333 3.667 OFFCURVE",
"548 29 CURVE SMOOTH",
"564.667 79 OFFCURVE",
"601.333 146.333 OFFCURVE",
"658 231 CURVE SMOOTH",
"679.333 262.333 OFFCURVE",
"712.667 307 OFFCURVE",
"758 365 CURVE SMOOTH",
"818 440.333 OFFCURVE",
"854.667 478 OFFCURVE",
"868 478 CURVE SMOOTH",
"870.667 478 OFFCURVE",
"872 476 OFFCURVE",
"872 472 CURVE SMOOTH",
"872 462.667 OFFCURVE",
"863.333 439.667 OFFCURVE",
"846 403 CURVE SMOOTH",
"750 205 LINE SMOOTH",
"708 114.333 OFFCURVE",
"687 47.333 OFFCURVE",
"687 4 CURVE SMOOTH",
"687 -34.667 OFFCURVE",
"700.667 -54 OFFCURVE",
"728 -54 CURVE SMOOTH",
"739.333 -54 OFFCURVE",
"755.667 -49.667 OFFCURVE",
"777 -41 CURVE SMOOTH",
"801 -31 OFFCURVE",
"813 -21.333 OFFCURVE",
"813 -12 CURVE SMOOTH",
"813 -8 OFFCURVE",
"809.667 -6 OFFCURVE",
"803 -6 CURVE SMOOTH",
"796.333 -6 OFFCURVE",
"786.333 -8.667 OFFCURVE",
"773 -14 CURVE SMOOTH",
"759.667 -19.333 OFFCURVE",
"749.667 -22 OFFCURVE",
"743 -22 CURVE SMOOTH",
"734.333 -22 OFFCURVE",
"730 -13.667 OFFCURVE",
"730 3 CURVE SMOOTH",
"730 45.667 OFFCURVE",
"748.667 109.667 OFFCURVE",
"786 195 CURVE SMOOTH",
"815.333 261 OFFCURVE",
"846 321.667 OFFCURVE",
"878 377 CURVE SMOOTH",
"900.667 415.667 OFFCURVE",
"912 446.667 OFFCURVE",
"912 470 CURVE SMOOTH"
);
}
);
userData = {
assembly = "NPUSHB[ ]	/* 60 values pushed */\0121 117 117 64 118 0 111 103 83 56 27 11 8 111 103 81 58 53 50 37 13 5 19 19 5 6 25 5 0 41 5 109 101 5 64 86 5 78 70 5 93 43 7 107 67 7 99 74 7 90 17 115 3 99 3 35 1 1 93 70 \012SROUND[ ]	/* SuperRound */\012MDAP[1]	/* MoveDirectAbsPt */\012SHZ[1]	/* ShiftZoneByLastPoint */\012RTG[ ]	/* RoundToGrid */\012SVTCA[0]	/* SetFreedomAndProjectionVectorToAxis */\012MIAP[1]	/* MoveIndirectAbsPt */\012MIAP[1]	/* MoveIndirectAbsPt */\012MIAP[1]	/* MoveIndirectAbsPt */\012MDAP[1]	/* MoveDirectAbsPt */\012MDAP[1]	/* MoveDirectAbsPt */\012MIRP[11101]	/* MoveIndirectRelPt */\012SRP0[ ]	/* SetRefPoint0 */\012MIRP[11101]	/* MoveIndirectRelPt */\012MDAP[1]	/* MoveDirectAbsPt */\012MIRP[11101]	/* MoveIndirectRelPt */\012SVTCA[1]	/* SetFreedomAndProjectionVectorToAxis */\012MDAP[1]	/* MoveDirectAbsPt */\012MIRP[11101]	/* MoveIndirectRelPt */\012MDAP[1]	/* MoveDirectAbsPt */\012MIRP[11101]	/* MoveIndirectRelPt */\012MDAP[1]	/* MoveDirectAbsPt */\012MIRP[11101]	/* MoveIndirectRelPt */\012MDAP[1]	/* MoveDirectAbsPt */\012MIRP[11101]	/* MoveIndirectRelPt */\012MDAP[1]	/* MoveDirectAbsPt */\012MIRP[11101]	/* MoveIndirectRelPt */\012MDAP[1]	/* MoveDirectAbsPt */\012MIRP[11101]	/* MoveIndirectRelPt */\012SRP0[ ]	/* SetRefPoint0 */\012MIRP[11101]	/* MoveIndirectRelPt */\012MDAP[0]	/* MoveDirectAbsPt */\012MDAP[0]	/* MoveDirectAbsPt */\012MDAP[0]	/* MoveDirectAbsPt */\012MDAP[0]	/* MoveDirectAbsPt */\012MDAP[0]	/* MoveDirectAbsPt */\012MDAP[0]	/* MoveDirectAbsPt */\012MDAP[0]	/* MoveDirectAbsPt */\012SVTCA[0]	/* SetFreedomAndProjectionVectorToAxis */\012MDAP[0]	/* MoveDirectAbsPt */\012MDAP[0]	/* MoveDirectAbsPt */\012MDAP[0]	/* MoveDirectAbsPt */\012MDAP[0]	/* MoveDirectAbsPt */\012MDAP[0]	/* MoveDirectAbsPt */\012MDAP[0]	/* MoveDirectAbsPt */\012MDAP[0]	/* MoveDirectAbsPt */\012IUP[1]	/* InterpolateUntPts */\012IUP[0]	/* InterpolateUntPts */\012SVTCA[1]	/* SetFreedomAndProjectionVectorToAxis */\012MD[0]	/* MeasureDistance */\012ROUND[00]	/* Round */\012PUSHW[ ]	/* 2 values pushed */\01293 117 \012MD[0]	/* MeasureDistance */\012ROUND[00]	/* Round */\012SUB[ ]	/* Subtract */\012PUSHB[ ]	/* 1 value pushed */\01264 \012GT[ ]	/* GreaterThan */\012IF[ ]	/* If */\012SHPIX[ ]	/* ShiftZoneByPixel */\012SRP1[ ]	/* SetRefPoint1 */\012SHZ[1]	/* ShiftZoneByLastPoint */\012PUSHW[ ]	/* 2 values pushed */\012117 -64 \012SHPIX[ ]	/* ShiftZoneByPixel */\012EIF[ ]	/* EndIf */";
};
width = 813;
}
);
note = M;
unicode = 004D;
},
{
color = 3;
glyphname = N;
lastChange = "2021-08-02 20:56:00 +0000";
layers = (
{
layerId = "BE19588B-E19B-4B9D-8A17-411D65DA33D8";
paths = (
{
closed = 1;
nodes = (
"965 517.333 OFFCURVE",
"946.333 529 OFFCURVE",
"933 529 CURVE SMOOTH",
"887.667 529 OFFCURVE",
"840.333 479.667 OFFCURVE",
"791 381 CURVE SMOOTH",
"773 344.333 OFFCURVE",
"745.667 275.667 OFFCURVE",
"709 175 CURVE SMOOTH",
"677.667 89.667 OFFCURVE",
"658.667 39.667 OFFCURVE",
"652 25 CURVE",
"597.333 187 OFFCURVE",
"556 308.333 OFFCURVE",
"528 389 CURVE",
"540 413 OFFCURVE",
"546 427 OFFCURVE",
"546 431 CURVE SMOOTH",
"546 437.667 OFFCURVE",
"542.333 441 OFFCURVE",
"535 441 CURVE SMOOTH",
"525.667 441 OFFCURVE",
"516 435.667 OFFCURVE",
"506 425 CURVE",
"473.333 469 OFFCURVE",
"429.667 491 OFFCURVE",
"375 491 CURVE SMOOTH",
"289.667 491 OFFCURVE",
"222 432.333 OFFCURVE",
"222 347 CURVE SMOOTH",
"222 289.667 OFFCURVE",
"269 239 OFFCURVE",
"325 239 CURVE SMOOTH",
"365 239 OFFCURVE",
"406 269.333 OFFCURVE",
"406 308 CURVE SMOOTH",
"406 321.333 OFFCURVE",
"397 344 OFFCURVE",
"385 344 CURVE SMOOTH",
"381 344 OFFCURVE",
"379 341.667 OFFCURVE",
"379 337 CURVE SMOOTH",
"379 335 OFFCURVE",
"380.333 330.667 OFFCURVE",
"383 324 CURVE SMOOTH",
"385.667 317.333 OFFCURVE",
"387 312 OFFCURVE",
"387 308 CURVE SMOOTH",
"387 280 OFFCURVE",
"358.333 258 OFFCURVE",
"329 258 CURVE SMOOTH",
"307 258 OFFCURVE",
"288 268.667 OFFCURVE",
"272 290 CURVE SMOOTH",
"257.333 309.333 OFFCURVE",
"250 330.333 OFFCURVE",
"250 353 CURVE SMOOTH",
"250 417 OFFCURVE",
"301 466 OFFCURVE",
"365 466 CURVE SMOOTH",
"417 466 OFFCURVE",
"456.333 441 OFFCURVE",
"483 391 CURVE",
"452 311 LINE SMOOTH",
"446 295 OFFCURVE",
"434 268.333 OFFCURVE",
"416 231 CURVE SMOOTH",
"368.667 132.333 OFFCURVE",
"336.333 70 OFFCURVE",
"319 44 CURVE SMOOTH",
"269 -31.333 OFFCURVE",
"215.667 -69 OFFCURVE",
"159 -69 CURVE SMOOTH",
"89.667 -69 OFFCURVE",
"37 -21 OFFCURVE",
"37 47 CURVE SMOOTH",
"37 121.667 OFFCURVE",
"112.333 198 OFFCURVE",
"187 198 CURVE SMOOTH",
"232.333 198 OFFCURVE",
"270 171 OFFCURVE",
"270 127 CURVE SMOOTH",
"270 112.333 OFFCURVE",
"264.333 101 OFFCURVE",
"253 93 CURVE SMOOTH",
"247.667 89 OFFCURVE",
"237.667 85 OFFCURVE",
"223 81 CURVE SMOOTH",
"212.333 77.667 OFFCURVE",
"207 74 OFFCURVE",
"207 70 CURVE SMOOTH",
"207 64 OFFCURVE",
"213 61 OFFCURVE",
"225 61 CURVE SMOOTH",
"263.667 61 OFFCURVE",
"292 98 OFFCURVE",
"292 138 CURVE SMOOTH",
"292 192 OFFCURVE",
"257.333 219 OFFCURVE",
"188 219 CURVE SMOOTH",
"140 219 OFFCURVE",
"97.333 203 OFFCURVE",
"60 171 CURVE SMOOTH",
"20.667 137.667 OFFCURVE",
"1 97.333 OFFCURVE",
"1 50 CURVE SMOOTH",
"1 -31.333 OFFCURVE",
"65.667 -96 OFFCURVE",
"147 -96 CURVE SMOOTH",
"213.667 -96 OFFCURVE",
"275.667 -59.333 OFFCURVE",
"333 14 CURVE SMOOTH",
"367 58 OFFCURVE",
"404.667 124 OFFCURVE",
"446 212 CURVE SMOOTH",
"474.667 274 OFFCURVE",
"494.333 316 OFFCURVE",
"505 338 CURVE",
"547.667 207.333 OFFCURVE",
"583.667 99.333 OFFCURVE",
"613 14 CURVE SMOOTH",
"624.5 -18.5 LINE SMOOTH",
"626.167 -23.5 OFFCURVE",
"630.667 -26 OFFCURVE",
"638 -26 CURVE SMOOTH",
"657.333 -26 OFFCURVE",
"670.667 -16.333 OFFCURVE",
"678 3 CURVE SMOOTH",
"695.333 51.667 OFFCURVE",
"707 85.667 OFFCURVE",
"713 105 CURVE SMOOTH",
"767.667 265.667 OFFCURVE",
"822.667 380.667 OFFCURVE",
"878 450 CURVE SMOOTH",
"902.667 480.667 OFFCURVE",
"925.333 496 OFFCURVE",
"946 496 CURVE SMOOTH",
"958.667 496 OFFCURVE",
"965 498.667 OFFCURVE",
"965 504 CURVE SMOOTH"
);
}
);
userData = {
assembly = "NPUSHB[ ]	/* 60 values pushed */\0121 106 106 64 107 0 97 91 89 75 33 15 10 95 93 73 58 35 0 13 15 9 97 95 95 97 30 6 41 78 6 70 47 5 24 63 5 84 2 7 103 50 7 21 28 7 44 60 7 87 81 8 67 103 21 87 3 1 24 70 \012SROUND[ ]	/* SuperRound */\012MDAP[1]	/* MoveDirectAbsPt */\012SHZ[1]	/* ShiftZoneByLastPoint */\012RTG[ ]	/* RoundToGrid */\012SVTCA[0]	/* SetFreedomAndProjectionVectorToAxis */\012MIAP[1]	/* MoveIndirectAbsPt */\012MDAP[1]	/* MoveDirectAbsPt */\012MDAP[1]	/* MoveDirectAbsPt */\012MDAP[1]	/* MoveDirectAbsPt */\012MIRP[11101]	/* MoveIndirectRelPt */\012SRP0[ ]	/* SetRefPoint0 */\012MIRP[11101]	/* MoveIndirectRelPt */\012MDAP[1]	/* MoveDirectAbsPt */\012MIRP[11101]	/* MoveIndirectRelPt */\012SRP0[ ]	/* SetRefPoint0 */\012MIRP[11101]	/* MoveIndirectRelPt */\012SRP0[ ]	/* SetRefPoint0 */\012MIRP[11101]	/* MoveIndirectRelPt */\012SVTCA[1]	/* SetFreedomAndProjectionVectorToAxis */\012MDAP[1]	/* MoveDirectAbsPt */\012MIRP[11101]	/* MoveIndirectRelPt */\012MDAP[1]	/* MoveDirectAbsPt */\012MIRP[11101]	/* MoveIndirectRelPt */\012MDAP[1]	/* MoveDirectAbsPt */\012MIRP[11101]	/* MoveIndirectRelPt */\012MDAP[1]	/* MoveDirectAbsPt */\012MIRP[11101]	/* MoveIndirectRelPt */\012SDPVTL[1]	/* SetDualPVectorToLine */\012MDAP[0]	/* MoveDirectAbsPt */\012SFVTPV[ ]	/* SetFVectorToPVector */\012MDRP[00100]	/* MoveDirectRelPt */\012SFVTPV[ ]	/* SetFVectorToPVector */\012MIRP[11100]	/* MoveIndirectRelPt */\012SFVTPV[ ]	/* SetFVectorToPVector */\012MDRP[00100]	/* MoveDirectRelPt */\012SVTCA[1]	/* SetFreedomAndProjectionVectorToAxis */\012MDAP[0]	/* MoveDirectAbsPt */\012MDAP[0]	/* MoveDirectAbsPt */\012MDAP[0]	/* MoveDirectAbsPt */\012MDAP[0]	/* MoveDirectAbsPt */\012MDAP[0]	/* MoveDirectAbsPt */\012MDAP[0]	/* MoveDirectAbsPt */\012SVTCA[0]	/* SetFreedomAndProjectionVectorToAxis */\012MDAP[0]	/* MoveDirectAbsPt */\012MDAP[0]	/* MoveDirectAbsPt */\012MDAP[0]	/* MoveDirectAbsPt */\012MDAP[0]	/* MoveDirectAbsPt */\012MDAP[0]	/* MoveDirectAbsPt */\012MDAP[0]	/* MoveDirectAbsPt */\012MDAP[0]	/* MoveDirectAbsPt */\012IUP[1]	/* InterpolateUntPts */\012IUP[0]	/* InterpolateUntPts */\012SVTCA[1]	/* SetFreedomAndProjectionVectorToAxis */\012MD[0]	/* MeasureDistance */\012ROUND[00]	/* Round */\012PUSHW[ ]	/* 2 values pushed */\01224 106 \012MD[0]	/* MeasureDistance */\012ROUND[00]	/* Round */\012SUB[ ]	/* Subtract */\012PUSHB[ ]	/* 1 value pushed */\01264 \012GT[ ]	/* GreaterThan */\012IF[ ]	/* If */\012SHPIX[ ]	/* ShiftZoneByPixel */\012SRP1[ ]	/* SetRefPoint1 */\012SHZ[1]	/* ShiftZoneByLastPoint */\012PUSHW[ ]	/* 2 values pushed */\012106 -64 \012SHPIX[ ]	/* ShiftZoneByPixel */\012EIF[ ]	/* EndIf */";
};
width = 762;
}
);
note = N;
unicode = 004E;
},
{
color = 3;
glyphname = Eng;
lastChange = "2021-08-02 20:56:00 +0000";
layers = (
{
layerId = "BE19588B-E19B-4B9D-8A17-411D65DA33D8";
paths = (
{
closed = 1;
nodes = (
"888 529 OFFCURVE",
"840 480 OFFCURVE",
"791 381 CURVE SMOOTH",
"773 344 OFFCURVE",
"746 276 OFFCURVE",
"709 175 CURVE SMOOTH",
"678 90 OFFCURVE",
"659 40 OFFCURVE",
"652 25 CURVE",
"597 187 OFFCURVE",
"556 308 OFFCURVE",
"528 389 CURVE",
"540 413 OFFCURVE",
"546 427 OFFCURVE",
"546 431 CURVE SMOOTH",
"546 438 OFFCURVE",
"542 441 OFFCURVE",
"535 441 CURVE SMOOTH",
"526 441 OFFCURVE",
"516 436 OFFCURVE",
"506 425 CURVE",
"473 469 OFFCURVE",
"430 491 OFFCURVE",
"375 491 CURVE SMOOTH",
"290 491 OFFCURVE",
"222 432 OFFCURVE",
"222 347 CURVE SMOOTH",
"222 290 OFFCURVE",
"269 239 OFFCURVE",
"325 239 CURVE SMOOTH",
"365 239 OFFCURVE",
"406 269 OFFCURVE",
"406 308 CURVE SMOOTH",
"406 321 OFFCURVE",
"397 344 OFFCURVE",
"385 344 CURVE SMOOTH",
"381 344 OFFCURVE",
"379 342 OFFCURVE",
"379 337 CURVE SMOOTH",
"379 335 OFFCURVE",
"380 331 OFFCURVE",
"383 324 CURVE SMOOTH",
"386 317 OFFCURVE",
"387 312 OFFCURVE",
"387 308 CURVE SMOOTH",
"387 280 OFFCURVE",
"358 258 OFFCURVE",
"329 258 CURVE SMOOTH",
"307 258 OFFCURVE",
"288 269 OFFCURVE",
"272 290 CURVE SMOOTH",
"257 309 OFFCURVE",
"250 330 OFFCURVE",
"250 353 CURVE SMOOTH",
"250 417 OFFCURVE",
"301 466 OFFCURVE",
"365 466 CURVE SMOOTH",
"417 466 OFFCURVE",
"456 441 OFFCURVE",
"483 391 CURVE",
"452 311 LINE SMOOTH",
"446 295 OFFCURVE",
"434 268 OFFCURVE",
"416 231 CURVE SMOOTH",
"369 132 OFFCURVE",
"336 70 OFFCURVE",
"319 44 CURVE SMOOTH",
"269 -31 OFFCURVE",
"216 -69 OFFCURVE",
"159 -69 CURVE SMOOTH",
"90 -69 OFFCURVE",
"37 -21 OFFCURVE",
"37 47 CURVE SMOOTH",
"37 122 OFFCURVE",
"112 198 OFFCURVE",
"187 198 CURVE SMOOTH",
"232 198 OFFCURVE",
"270 171 OFFCURVE",
"270 127 CURVE SMOOTH",
"270 112 OFFCURVE",
"264 101 OFFCURVE",
"253 93 CURVE SMOOTH",
"248 89 OFFCURVE",
"238 85 OFFCURVE",
"223 81 CURVE SMOOTH",
"212 78 OFFCURVE",
"207 74 OFFCURVE",
"207 70 CURVE SMOOTH",
"207 64 OFFCURVE",
"213 61 OFFCURVE",
"225 61 CURVE SMOOTH",
"264 61 OFFCURVE",
"292 98 OFFCURVE",
"292 138 CURVE SMOOTH",
"292 192 OFFCURVE",
"257 219 OFFCURVE",
"188 219 CURVE SMOOTH",
"140 219 OFFCURVE",
"97 203 OFFCURVE",
"60 171 CURVE SMOOTH",
"21 138 OFFCURVE",
"1 97 OFFCURVE",
"1 50 CURVE SMOOTH",
"1 -31 OFFCURVE",
"66 -96 OFFCURVE",
"147 -96 CURVE SMOOTH",
"214 -96 OFFCURVE",
"276 -59 OFFCURVE",
"333 14 CURVE SMOOTH",
"367 58 OFFCURVE",
"405 124 OFFCURVE",
"446 212 CURVE SMOOTH",
"475 274 OFFCURVE",
"494 316 OFFCURVE",
"505 338 CURVE",
"548 207 OFFCURVE",
"582 98 OFFCURVE",
"613 14 CURVE SMOOTH",
"625 -19 LINE",
"616 -64 OFFCURVE",
"620 -59 OFFCURVE",
"595 -112 CURVE SMOOTH",
"538 -231 OFFCURVE",
"488 -284 OFFCURVE",
"447 -284 CURVE SMOOTH",
"417 -284 OFFCURVE",
"401 -253 OFFCURVE",
"398 -192 CURVE SMOOTH",
"396 -156 LINE SMOOTH",
"396 -154 OFFCURVE",
"395 -153 OFFCURVE",
"394 -152 CURVE",
"391 -152 OFFCURVE",
"387 -161 OFFCURVE",
"384 -180 CURVE SMOOTH",
"381 -195 OFFCURVE",
"380 -207 OFFCURVE",
"380 -215 CURVE SMOOTH",
"380 -239 OFFCURVE",
"385 -259 OFFCURVE",
"396 -276 CURVE SMOOTH",
"408 -295 OFFCURVE",
"425 -305 OFFCURVE",
"448 -305 CURVE SMOOTH",
"495 -305 OFFCURVE",
"567 -259 OFFCURVE",
"625 -132 CURVE SMOOTH",
"666 -43 OFFCURVE",
"704 56 OFFCURVE",
"728 132 CURVE SMOOTH",
"783 293 OFFCURVE",
"823 381 OFFCURVE",
"878 450 CURVE SMOOTH",
"903 481 OFFCURVE",
"925 496 OFFCURVE",
"946 496 CURVE SMOOTH",
"959 496 OFFCURVE",
"965 499 OFFCURVE",
"965 504 CURVE SMOOTH",
"965 517 OFFCURVE",
"946 529 OFFCURVE",
"933 529 CURVE SMOOTH"
);
}
);
width = 762;
}
);
unicode = 014A;
},
{
color = 3;
glyphname = O;
lastChange = "2021-08-02 20:56:00 +0000";
layers = (
{
layerId = "BE19588B-E19B-4B9D-8A17-411D65DA33D8";
paths = (
{
closed = 1;
nodes = (
"598 247.667 OFFCURVE",
"590.333 276.667 OFFCURVE",
"575 304 CURVE",
"579 319.333 OFFCURVE",
"581 332.333 OFFCURVE",
"581 343 CURVE SMOOTH",
"581 387.667 OFFCURVE",
"559.667 422 OFFCURVE",
"517 446 CURVE SMOOTH",
"481.667 466 OFFCURVE",
"440 476 OFFCURVE",
"392 476 CURVE SMOOTH",
"286 476 OFFCURVE",
"193.667 435.333 OFFCURVE",
"115 354 CURVE SMOOTH",
"57.667 294.667 OFFCURVE",
"29 227 OFFCURVE",
"29 151 CURVE SMOOTH",
"29 94.333 OFFCURVE",
"45.667 47 OFFCURVE",
"79 9 CURVE SMOOTH",
"115 -33.667 OFFCURVE",
"169.667 -55 OFFCURVE",
"243 -55 CURVE SMOOTH",
"367 -55 OFFCURVE",
"467 -10.333 OFFCURVE",
"543 79 CURVE SMOOTH",
"579.667 121.667 OFFCURVE",
"598 167.667 OFFCURVE",
"598 217 CURVE SMOOTH"
);
},
{
closed = 1;
nodes = (
"564 178 OFFCURVE",
"544 133 OFFCURVE",
"504 87 CURVE SMOOTH",
"442.667 15 OFFCURVE",
"332.333 -30 OFFCURVE",
"235 -30 CURVE SMOOTH",
"131 -30 OFFCURVE",
"68 36 OFFCURVE",
"68 140 CURVE SMOOTH",
"68 208.667 OFFCURVE",
"94.333 273 OFFCURVE",
"147 333 CURVE SMOOTH",
"215.667 411.667 OFFCURVE",
"298.667 451 OFFCURVE",
"396 451 CURVE SMOOTH",
"449.333 451 OFFCURVE",
"490.333 436.333 OFFCURVE",
"519 407 CURVE SMOOTH",
"539.667 385.667 OFFCURVE",
"550 363 OFFCURVE",
"550 339 CURVE",
"502 391 OFFCURVE",
"434.667 417 OFFCURVE",
"348 417 CURVE SMOOTH",
"326 417 OFFCURVE",
"303.667 413 OFFCURVE",
"281 405 CURVE",
"279 403 OFFCURVE",
"278 400.667 OFFCURVE",
"278 398 CURVE SMOOTH",
"278 394 OFFCURVE",
"285.333 392 OFFCURVE",
"300 392 CURVE SMOOTH",
"350.667 392 OFFCURVE",
"389 388.667 OFFCURVE",
"415 382 CURVE SMOOTH",
"470.333 368 OFFCURVE",
"512.333 340 OFFCURVE",
"541 298 CURVE",
"533 277.333 OFFCURVE",
"518 253.667 OFFCURVE",
"496 227 CURVE SMOOTH",
"481.333 209 OFFCURVE",
"462.333 188 OFFCURVE",
"439 164 CURVE SMOOTH",
"429.667 154.667 OFFCURVE",
"425 148 OFFCURVE",
"425 144 CURVE SMOOTH",
"425 140.667 OFFCURVE",
"427.667 139 OFFCURVE",
"433 139 CURVE SMOOTH",
"435 139 OFFCURVE",
"437.333 139.667 OFFCURVE",
"440 141 CURVE",
"459 155 LINE SMOOTH",
"508.333 192.333 OFFCURVE",
"541.667 227.667 OFFCURVE",
"559 261 CURVE",
"562.333 248.333 OFFCURVE",
"564 235.333 OFFCURVE",
"564 222 CURVE SMOOTH"
);
}
);
userData = {
assembly = "NPUSHB[ ]	/* 35 values pushed */\0121 64 64 64 65 0 48 28 22 48 42 36 30 18 16 56 5 8 20 5 0 59 7 4 40 7 46 52 7 12 12 4 1 8 70 \012SROUND[ ]	/* SuperRound */\012MDAP[1]	/* MoveDirectAbsPt */\012SHZ[1]	/* ShiftZoneByLastPoint */\012RTG[ ]	/* RoundToGrid */\012SVTCA[0]	/* SetFreedomAndProjectionVectorToAxis */\012MDAP[1]	/* MoveDirectAbsPt */\012MDAP[1]	/* MoveDirectAbsPt */\012SRP0[ ]	/* SetRefPoint0 */\012MIRP[11101]	/* MoveIndirectRelPt */\012MDAP[1]	/* MoveDirectAbsPt */\012MIRP[11101]	/* MoveIndirectRelPt */\012SRP0[ ]	/* SetRefPoint0 */\012MIRP[11101]	/* MoveIndirectRelPt */\012SVTCA[1]	/* SetFreedomAndProjectionVectorToAxis */\012MDAP[1]	/* MoveDirectAbsPt */\012MIRP[11101]	/* MoveIndirectRelPt */\012MDAP[1]	/* MoveDirectAbsPt */\012MIRP[11101]	/* MoveIndirectRelPt */\012MDAP[0]	/* MoveDirectAbsPt */\012MDAP[0]	/* MoveDirectAbsPt */\012MDAP[0]	/* MoveDirectAbsPt */\012MDAP[0]	/* MoveDirectAbsPt */\012MDAP[0]	/* MoveDirectAbsPt */\012MDAP[0]	/* MoveDirectAbsPt */\012SVTCA[0]	/* SetFreedomAndProjectionVectorToAxis */\012MDAP[0]	/* MoveDirectAbsPt */\012MDAP[0]	/* MoveDirectAbsPt */\012MDAP[0]	/* MoveDirectAbsPt */\012IUP[1]	/* InterpolateUntPts */\012IUP[0]	/* InterpolateUntPts */\012SVTCA[1]	/* SetFreedomAndProjectionVectorToAxis */\012MD[0]	/* MeasureDistance */\012ROUND[00]	/* Round */\012PUSHW[ ]	/* 2 values pushed */\0128 64 \012MD[0]	/* MeasureDistance */\012ROUND[00]	/* Round */\012SUB[ ]	/* Subtract */\012PUSHB[ ]	/* 1 value pushed */\01264 \012GT[ ]	/* GreaterThan */\012IF[ ]	/* If */\012SHPIX[ ]	/* ShiftZoneByPixel */\012SRP1[ ]	/* SetRefPoint1 */\012SHZ[1]	/* ShiftZoneByLastPoint */\012PUSHW[ ]	/* 2 values pushed */\01264 -64 \012SHPIX[ ]	/* ShiftZoneByPixel */\012EIF[ ]	/* EndIf */";
};
width = 594;
}
);
note = O;
unicode = 004F;
},
{
color = 3;
glyphname = Oslash;
lastChange = "2021-08-02 20:56:00 +0000";
layers = (
{
background = {
paths = (
{
closed = 1;
nodes = (
"598 248 OFFCURVE",
"590 277 OFFCURVE",
"575 304 CURVE",
"579 319 OFFCURVE",
"581 332 OFFCURVE",
"581 343 CURVE SMOOTH",
"581 381 OFFCURVE",
"565 412 OFFCURVE",
"533 436 CURVE SMOOTH",
"506 457 OFFCURVE",
"472 469 OFFCURVE",
"431 474 CURVE",
"458 533 LINE",
"431 533 LINE",
"405 476 LINE",
"294 480 OFFCURVE",
"197 439 OFFCURVE",
"115 354 CURVE SMOOTH",
"58 295 OFFCURVE",
"29 227 OFFCURVE",
"29 151 CURVE SMOOTH",
"29 103 OFFCURVE",
"41 61 OFFCURVE",
"65 26 CURVE SMOOTH",
"90 -11 OFFCURVE",
"125 -36 OFFCURVE",
"170 -48 CURVE",
"155 -83 LINE",
"182 -83 LINE",
"195 -53 LINE",
"207 -54 OFFCURVE",
"223 -55 OFFCURVE",
"243 -55 CURVE SMOOTH",
"366 -55 OFFCURVE",
"466 -10 OFFCURVE",
"543 79 CURVE SMOOTH",
"580 122 OFFCURVE",
"598 168 OFFCURVE",
"598 217 CURVE SMOOTH"
);
},
{
closed = 1;
nodes = (
"565 180 OFFCURVE",
"545 134 OFFCURVE",
"504 87 CURVE SMOOTH",
"441 15 OFFCURVE",
"331 -30 OFFCURVE",
"232 -30 CURVE SMOOTH",
"222 -30 OFFCURVE",
"213 -30 OFFCURVE",
"206 -29 CURVE",
"422 454 LINE",
"455 451 OFFCURVE",
"484 440 OFFCURVE",
"508 421 CURVE SMOOTH",
"536 400 OFFCURVE",
"550 373 OFFCURVE",
"550 342 CURVE",
"545 346 OFFCURVE",
"540 348 OFFCURVE",
"535 348 CURVE SMOOTH",
"528 348 OFFCURVE",
"524 345 OFFCURVE",
"524 338 CURVE SMOOTH",
"524 328 OFFCURVE",
"532 313 OFFCURVE",
"548 292 CURVE",
"541 278 OFFCURVE",
"538 268 OFFCURVE",
"538 262 CURVE",
"538 258 OFFCURVE",
"540 256 OFFCURVE",
"543 256 CURVE SMOOTH",
"546 256 OFFCURVE",
"552 258 OFFCURVE",
"559 263 CURVE",
"563 250 OFFCURVE",
"565 237 OFFCURVE",
"565 224 CURVE SMOOTH"
);
},
{
closed = 1;
nodes = (
"106.333 -6.333 OFFCURVE",
"64 61 OFFCURVE",
"64 141 CURVE SMOOTH",
"64 193 OFFCURVE",
"79.333 243 OFFCURVE",
"110 291 CURVE SMOOTH",
"180 401 OFFCURVE",
"275.333 456 OFFCURVE",
"396 456 CURVE",
"181 -25 LINE"
);
}
);
};
layerId = "BE19588B-E19B-4B9D-8A17-411D65DA33D8";
paths = (
{
closed = 1;
nodes = (
"579 319 OFFCURVE",
"581 332 OFFCURVE",
"581 343 CURVE SMOOTH",
"581 388 OFFCURVE",
"560 422 OFFCURVE",
"517 446 CURVE SMOOTH",
"492 460 OFFCURVE",
"464 469 OFFCURVE",
"432 474 CURVE",
"458 532 LINE",
"431 532 LINE",
"406 476 LINE",
"392 476 LINE SMOOTH",
"286 476 OFFCURVE",
"194 435 OFFCURVE",
"115 354 CURVE SMOOTH",
"58 295 OFFCURVE",
"29 227 OFFCURVE",
"29 151 CURVE SMOOTH",
"29 94 OFFCURVE",
"46 47 OFFCURVE",
"79 9 CURVE SMOOTH",
"102 -19 OFFCURVE",
"133 -37 OFFCURVE",
"172 -47 CURVE",
"155 -84 LINE",
"182 -84 LINE",
"196 -52 LINE",
"211 -54 OFFCURVE",
"227 -55 OFFCURVE",
"243 -55 CURVE SMOOTH",
"367 -55 OFFCURVE",
"467 -10 OFFCURVE",
"543 79 CURVE SMOOTH",
"580 122 OFFCURVE",
"598 168 OFFCURVE",
"598 217 CURVE SMOOTH",
"598 248 OFFCURVE",
"590 277 OFFCURVE",
"575 304 CURVE"
);
},
{
closed = 1;
nodes = (
"68 209 OFFCURVE",
"94 273 OFFCURVE",
"147 333 CURVE SMOOTH",
"216 412 OFFCURVE",
"298 451 OFFCURVE",
"395 451 CURVE",
"379 416 LINE",
"369 417 OFFCURVE",
"359 417 OFFCURVE",
"348 417 CURVE SMOOTH",
"326 417 OFFCURVE",
"304 413 OFFCURVE",
"281 405 CURVE",
"279 403 OFFCURVE",
"278 401 OFFCURVE",
"278 398 CURVE SMOOTH",
"278 394 OFFCURVE",
"285 392 OFFCURVE",
"300 392 CURVE SMOOTH",
"326 392 OFFCURVE",
"348 391 OFFCURVE",
"367 390 CURVE",
"182 -24 LINE",
"110 -5 OFFCURVE",
"68 55 OFFCURVE",
"68 140 CURVE SMOOTH"
);
},
{
closed = 1;
nodes = (
"540 386 OFFCURVE",
"550 363 OFFCURVE",
"550 339 CURVE",
"513 379 OFFCURVE",
"465 404 OFFCURVE",
"405 413 CURVE",
"421 450 LINE",
"462 446 OFFCURVE",
"495 431 OFFCURVE",
"519 407 CURVE SMOOTH"
);
},
{
closed = 1;
nodes = (
"443 15 OFFCURVE",
"332 -30 OFFCURVE",
"235 -30 CURVE SMOOTH",
"225 -30 OFFCURVE",
"216 -29 OFFCURVE",
"207 -28 CURVE",
"393 387 LINE",
"401 385 OFFCURVE",
"408 384 OFFCURVE",
"415 382 CURVE SMOOTH",
"470 368 OFFCURVE",
"512 340 OFFCURVE",
"541 298 CURVE",
"533 277 OFFCURVE",
"518 254 OFFCURVE",
"496 227 CURVE SMOOTH",
"481 209 OFFCURVE",
"462 188 OFFCURVE",
"439 164 CURVE SMOOTH",
"430 155 OFFCURVE",
"425 148 OFFCURVE",
"425 144 CURVE SMOOTH",
"425 141 OFFCURVE",
"428 139 OFFCURVE",
"433 139 CURVE SMOOTH",
"435 139 OFFCURVE",
"437 140 OFFCURVE",
"440 141 CURVE",
"459 155 LINE SMOOTH",
"508 191 OFFCURVE",
"542 228 OFFCURVE",
"559 261 CURVE",
"562 248 OFFCURVE",
"564 235 OFFCURVE",
"564 222 CURVE SMOOTH",
"564 178 OFFCURVE",
"544 133 OFFCURVE",
"504 87 CURVE SMOOTH"
);
}
);
userData = {
assembly = "NPUSHB[ ]	/* 72 values pushed */\0121 62 62 64 63 0 61 54 46 42 40 32 30 54 47 42 36 34 26 20 19 9 8 47 6 46 7 9 9 8 8 9 47 6 46 7 9 54 17 18 61 61 18 19 20 9 54 17 18 61 61 18 38 5 24 58 5 13 28 5 0 49 7 6 4 19 18 8 7 1 13 70 \012SROUND[ ]	/* SuperRound */\012MDAP[1]	/* MoveDirectAbsPt */\012SHZ[1]	/* ShiftZoneByLastPoint */\012RTG[ ]	/* RoundToGrid */\012SVTCA[0]	/* SetFreedomAndProjectionVectorToAxis */\012MDAP[1]	/* MoveDirectAbsPt */\012ALIGNRP[ ]	/* AlignRelativePt */\012MDAP[1]	/* MoveDirectAbsPt */\012ALIGNRP[ ]	/* AlignRelativePt */\012MDAP[1]	/* MoveDirectAbsPt */\012ALIGNRP[ ]	/* AlignRelativePt */\012MIRP[11101]	/* MoveIndirectRelPt */\012SVTCA[1]	/* SetFreedomAndProjectionVectorToAxis */\012MDAP[1]	/* MoveDirectAbsPt */\012MIRP[11101]	/* MoveIndirectRelPt */\012MDAP[1]	/* MoveDirectAbsPt */\012MIRP[11101]	/* MoveIndirectRelPt */\012MDAP[1]	/* MoveDirectAbsPt */\012MIRP[11101]	/* MoveIndirectRelPt */\012SDPVTL[1]	/* SetDualPVectorToLine */\012MDAP[0]	/* MoveDirectAbsPt */\012SFVTPV[ ]	/* SetFVectorToPVector */\012MDRP[00100]	/* MoveDirectRelPt */\012SFVTPV[ ]	/* SetFVectorToPVector */\012MDRP[00100]	/* MoveDirectRelPt */\012SFVTPV[ ]	/* SetFVectorToPVector */\012MDRP[00100]	/* MoveDirectRelPt */\012SFVTPV[ ]	/* SetFVectorToPVector */\012MIRP[11100]	/* MoveIndirectRelPt */\012SFVTPV[ ]	/* SetFVectorToPVector */\012MDRP[00100]	/* MoveDirectRelPt */\012SDPVTL[1]	/* SetDualPVectorToLine */\012MDAP[0]	/* MoveDirectAbsPt */\012SFVTPV[ ]	/* SetFVectorToPVector */\012MDRP[00100]	/* MoveDirectRelPt */\012SFVTPV[ ]	/* SetFVectorToPVector */\012MDRP[00100]	/* MoveDirectRelPt */\012SFVTPV[ ]	/* SetFVectorToPVector */\012MDRP[00100]	/* MoveDirectRelPt */\012SFVTPV[ ]	/* SetFVectorToPVector */\012MIRP[11100]	/* MoveIndirectRelPt */\012SFVTPV[ ]	/* SetFVectorToPVector */\012MDRP[00100]	/* MoveDirectRelPt */\012SFVTPV[ ]	/* SetFVectorToPVector */\012MDRP[00100]	/* MoveDirectRelPt */\012SFVTPV[ ]	/* SetFVectorToPVector */\012MDRP[00100]	/* MoveDirectRelPt */\012SDPVTL[1]	/* SetDualPVectorToLine */\012MDAP[0]	/* MoveDirectAbsPt */\012SFVTPV[ ]	/* SetFVectorToPVector */\012MDRP[00100]	/* MoveDirectRelPt */\012SFVTPV[ ]	/* SetFVectorToPVector */\012MIRP[11100]	/* MoveIndirectRelPt */\012SFVTPV[ ]	/* SetFVectorToPVector */\012MDRP[00100]	/* MoveDirectRelPt */\012SFVTPV[ ]	/* SetFVectorToPVector */\012MDRP[00100]	/* MoveDirectRelPt */\012SFVTPV[ ]	/* SetFVectorToPVector */\012MDRP[00100]	/* MoveDirectRelPt */\012SVTCA[1]	/* SetFreedomAndProjectionVectorToAxis */\012MDAP[0]	/* MoveDirectAbsPt */\012MDAP[0]	/* MoveDirectAbsPt */\012MDAP[0]	/* MoveDirectAbsPt */\012MDAP[0]	/* MoveDirectAbsPt */\012MDAP[0]	/* MoveDirectAbsPt */\012MDAP[0]	/* MoveDirectAbsPt */\012MDAP[0]	/* MoveDirectAbsPt */\012MDAP[0]	/* MoveDirectAbsPt */\012MDAP[0]	/* MoveDirectAbsPt */\012MDAP[0]	/* MoveDirectAbsPt */\012SVTCA[0]	/* SetFreedomAndProjectionVectorToAxis */\012MDAP[0]	/* MoveDirectAbsPt */\012MDAP[0]	/* MoveDirectAbsPt */\012MDAP[0]	/* MoveDirectAbsPt */\012MDAP[0]	/* MoveDirectAbsPt */\012MDAP[0]	/* MoveDirectAbsPt */\012MDAP[0]	/* MoveDirectAbsPt */\012MDAP[0]	/* MoveDirectAbsPt */\012IUP[1]	/* InterpolateUntPts */\012IUP[0]	/* InterpolateUntPts */\012SVTCA[1]	/* SetFreedomAndProjectionVectorToAxis */\012MD[0]	/* MeasureDistance */\012ROUND[00]	/* Round */\012PUSHW[ ]	/* 2 values pushed */\01213 62 \012MD[0]	/* MeasureDistance */\012ROUND[00]	/* Round */\012SUB[ ]	/* Subtract */\012PUSHB[ ]	/* 1 value pushed */\01264 \012GT[ ]	/* GreaterThan */\012IF[ ]	/* If */\012SHPIX[ ]	/* ShiftZoneByPixel */\012SRP1[ ]	/* SetRefPoint1 */\012SHZ[1]	/* ShiftZoneByLastPoint */\012PUSHW[ ]	/* 2 values pushed */\01262 -64 \012SHPIX[ ]	/* ShiftZoneByPixel */\012EIF[ ]	/* EndIf */";
};
width = 594;
}
);
note = Oslash;
unicode = 00D8;
},
{
color = 3;
glyphname = OE;
lastChange = "2021-08-02 20:56:00 +0000";
layers = (
{
layerId = "BE19588B-E19B-4B9D-8A17-411D65DA33D8";
paths = (
{
closed = 1;
nodes = (
"988 500.667 OFFCURVE",
"986 502 OFFCURVE",
"982 502 CURVE SMOOTH",
"969.333 502 OFFCURVE",
"948.333 493 OFFCURVE",
"919 475 CURVE",
"901.667 484.333 OFFCURVE",
"877.333 489 OFFCURVE",
"846 489 CURVE SMOOTH",
"799.333 489 OFFCURVE",
"756.333 480.667 OFFCURVE",
"717 464 CURVE SMOOTH",
"648.333 434.667 OFFCURVE",
"614 394.667 OFFCURVE",
"614 344 CURVE SMOOTH",
"614 316.667 OFFCURVE",
"625.333 292 OFFCURVE",
"648 270 CURVE",
"629.333 263.333 OFFCURVE",
"611.667 255.667 OFFCURVE",
"595 247 CURVE",
"591.667 267 OFFCURVE",
"585 286 OFFCURVE",
"575 304 CURVE",
"579 319.333 OFFCURVE",
"581 332.333 OFFCURVE",
"581 343 CURVE SMOOTH",
"581 387.667 OFFCURVE",
"559.667 422 OFFCURVE",
"517 446 CURVE SMOOTH",
"481.667 466 OFFCURVE",
"440 476 OFFCURVE",
"392 476 CURVE SMOOTH",
"285.333 476 OFFCURVE",
"193 435.333 OFFCURVE",
"115 354 CURVE SMOOTH",
"57.667 294.667 OFFCURVE",
"29 227 OFFCURVE",
"29 151 CURVE SMOOTH",
"29 39 OFFCURVE",
"100.333 -47.333 OFFCURVE",
"211 -54 CURVE SMOOTH",
"221.667 -54.667 OFFCURVE",
"232.333 -55 OFFCURVE",
"243 -55 CURVE SMOOTH",
"327 -55 OFFCURVE",
"399.667 -34.667 OFFCURVE",
"461 6 CURVE",
"500.333 -38 OFFCURVE",
"561.333 -60 OFFCURVE",
"644 -60 CURVE SMOOTH",
"694.667 -60 OFFCURVE",
"743.667 -52 OFFCURVE",
"791 -36 CURVE SMOOTH",
"831.667 -22 OFFCURVE",
"868.667 -1.333 OFFCURVE",
"902 26 CURVE SMOOTH",
"943.333 60 OFFCURVE",
"964 95 OFFCURVE",
"964 131 CURVE SMOOTH",
"964 159 OFFCURVE",
"947.667 185 OFFCURVE",
"921 185 CURVE SMOOTH",
"905 185 OFFCURVE",
"897 181.333 OFFCURVE",
"897 174 CURVE SMOOTH",
"897 172.667 OFFCURVE",
"902.333 166.667 OFFCURVE",
"913 156 CURVE SMOOTH",
"923.667 145.333 OFFCURVE",
"929 135 OFFCURVE",
"929 125 CURVE SMOOTH",
"929 117 OFFCURVE",
"926 107.333 OFFCURVE",
"920 96 CURVE SMOOTH",
"897.333 52 OFFCURVE",
"859.667 18.667 OFFCURVE",
"807 -4 CURVE SMOOTH",
"761 -24 OFFCURVE",
"710.333 -34 OFFCURVE",
"655 -34 CURVE SMOOTH",
"567.667 -34 OFFCURVE",
"513.333 -13 OFFCURVE",
"492 29 CURVE",
"562.667 87.667 OFFCURVE",
"598 150.333 OFFCURVE",
"598 217 CURVE SMOOTH",
"598 222 LINE",
"620.667 234 OFFCURVE",
"644.667 243.667 OFFCURVE",
"670 251 CURVE",
"704 227.667 OFFCURVE",
"743.333 216 OFFCURVE",
"788 216 CURVE SMOOTH",
"804 216 OFFCURVE",
"819 218.667 OFFCURVE",
"833 224 CURVE SMOOTH",
"851.667 231.333 OFFCURVE",
"861 241.667 OFFCURVE",
"861 255 CURVE SMOOTH",
"861 269.667 OFFCURVE",
"849 280.333 OFFCURVE",
"825 287 CURVE SMOOTH",
"809 291.667 OFFCURVE",
"790.333 294 OFFCURVE",
"769 294 CURVE SMOOTH",
"741.667 294 OFFCURVE",
"711.667 289.333 OFFCURVE",
"679 280 CURVE",
"661.667 296 OFFCURVE",
"653 315 OFFCURVE",
"653 337 CURVE SMOOTH",
"653 378.333 OFFCURVE",
"676.333 410.667 OFFCURVE",
"723 434 CURVE SMOOTH",
"760.333 452.667 OFFCURVE",
"802 462 OFFCURVE",
"848 462 CURVE SMOOTH",
"865.333 462 OFFCURVE",
"879.333 460 OFFCURVE",
"890 456 CURVE",
"858.667 430 OFFCURVE",
"843 404.333 OFFCURVE",
"843 379 CURVE SMOOTH",
"843 355 OFFCURVE",
"857.333 343 OFFCURVE",
"886 343 CURVE SMOOTH",
"923.333 343 OFFCURVE",
"952 380.333 OFFCURVE",
"952 419 CURVE SMOOTH",
"952 436.333 OFFCURVE",
"946.333 450.667 OFFCURVE",
"935 462 CURVE",
"945 469 LINE",
"953.667 473 OFFCURVE",
"962.333 476.667 OFFCURVE",
"971 480 CURVE SMOOTH",
"982.333 486 OFFCURVE",
"988 492 OFFCURVE",
"988 498 CURVE SMOOTH"
);
},
{
closed = 1;
nodes = (
"919 400 OFFCURVE",
"900.667 369 OFFCURVE",
"882 369 CURVE SMOOTH",
"871.333 369 OFFCURVE",
"866 374 OFFCURVE",
"866 384 CURVE SMOOTH",
"866 400.667 OFFCURVE",
"880.333 420.333 OFFCURVE",
"909 443 CURVE",
"915.667 437 OFFCURVE",
"919 429.333 OFFCURVE",
"919 420 CURVE SMOOTH"
);
},
{
closed = 1;
nodes = (
"825 244 OFFCURVE",
"814.333 239 OFFCURVE",
"793 239 CURVE SMOOTH",
"763.667 239 OFFCURVE",
"735.333 245.667 OFFCURVE",
"708 259 CURVE",
"730.667 263 OFFCURVE",
"752 265 OFFCURVE",
"772 265 CURVE SMOOTH",
"807.333 265 OFFCURVE",
"825 261.333 OFFCURVE",
"825 254 CURVE SMOOTH"
);
},
{
closed = 1;
nodes = (
"565 180.667 OFFCURVE",
"544.667 134.333 OFFCURVE",
"504 87 CURVE SMOOTH",
"441.333 15 OFFCURVE",
"330.667 -30 OFFCURVE",
"232 -30 CURVE SMOOTH",
"128 -30 OFFCURVE",
"64 37 OFFCURVE",
"64 141 CURVE SMOOTH",
"64 210.333 OFFCURVE",
"90.333 275 OFFCURVE",
"143 335 CURVE SMOOTH",
"213 415.667 OFFCURVE",
"297 456 OFFCURVE",
"395 456 CURVE SMOOTH",
"449 456 OFFCURVE",
"490.333 441 OFFCURVE",
"519 411 CURVE SMOOTH",
"539.667 389.667 OFFCURVE",
"550 366.667 OFFCURVE",
"550 342 CURVE",
"545.333 346 OFFCURVE",
"540.333 348 OFFCURVE",
"535 348 CURVE SMOOTH",
"527.667 348 OFFCURVE",
"524 344.667 OFFCURVE",
"524 338 CURVE SMOOTH",
"524 328 OFFCURVE",
"532 312.667 OFFCURVE",
"548 292 CURVE",
"541.333 278 OFFCURVE",
"538 268 OFFCURVE",
"538 262 CURVE SMOOTH",
"538 258 OFFCURVE",
"539.667 256 OFFCURVE",
"543 256 CURVE SMOOTH",
"546.333 256 OFFCURVE",
"551.667 258.333 OFFCURVE",
"559 263 CURVE",
"563 251 OFFCURVE",
"565 238.667 OFFCURVE",
"565 226 CURVE SMOOTH"
);
}
);
userData = {
assembly = "NPUSHB[ ]	/* 82 values pushed */\0121 144 144 64 145 0 126 118 99 83 64 53 35 23 128 122 120 110 85 81 51 40 15 6 0 124 5 79 87 5 21 13 6 101 48 5 56 136 5 71 97 5 8 106 5 29 114 5 38 37 128 11 7 103 17 7 91 33 7 112 42 7 62 139 7 66 116 108 7 25 132 7 93 75 62 95 3 91 3 1 71 70 \012SROUND[ ]	/* SuperRound */\012MDAP[1]	/* MoveDirectAbsPt */\012SHZ[1]	/* ShiftZoneByLastPoint */\012RTG[ ]	/* RoundToGrid */\012SVTCA[0]	/* SetFreedomAndProjectionVectorToAxis */\012MIAP[1]	/* MoveIndirectAbsPt */\012MIAP[1]	/* MoveIndirectAbsPt */\012MDAP[1]	/* MoveDirectAbsPt */\012MDAP[1]	/* MoveDirectAbsPt */\012ALIGNRP[ ]	/* AlignRelativePt */\012MIRP[11101]	/* MoveIndirectRelPt */\012MDAP[1]	/* MoveDirectAbsPt */\012MIRP[11101]	/* MoveIndirectRelPt */\012ALIGNRP[ ]	/* AlignRelativePt */\012MDAP[1]	/* MoveDirectAbsPt */\012MIRP[11101]	/* MoveIndirectRelPt */\012SRP0[ ]	/* SetRefPoint0 */\012MIRP[11101]	/* MoveIndirectRelPt */\012MDAP[1]	/* MoveDirectAbsPt */\012MIRP[11101]	/* MoveIndirectRelPt */\012SRP0[ ]	/* SetRefPoint0 */\012MIRP[11101]	/* MoveIndirectRelPt */\012MDAP[1]	/* MoveDirectAbsPt */\012MIRP[11101]	/* MoveIndirectRelPt */\012ALIGNRP[ ]	/* AlignRelativePt */\012SVTCA[1]	/* SetFreedomAndProjectionVectorToAxis */\012MDAP[1]	/* MoveDirectAbsPt */\012ALIGNRP[ ]	/* AlignRelativePt */\012MIRP[11101]	/* MoveIndirectRelPt */\012MDAP[1]	/* MoveDirectAbsPt */\012MIRP[11101]	/* MoveIndirectRelPt */\012MDAP[1]	/* MoveDirectAbsPt */\012MIRP[11101]	/* MoveIndirectRelPt */\012MDAP[1]	/* MoveDirectAbsPt */\012MIRP[11101]	/* MoveIndirectRelPt */\012MDAP[1]	/* MoveDirectAbsPt */\012MIRP[11101]	/* MoveIndirectRelPt */\012MDAP[1]	/* MoveDirectAbsPt */\012MIRP[11101]	/* MoveIndirectRelPt */\012MDAP[1]	/* MoveDirectAbsPt */\012MIRP[11101]	/* MoveIndirectRelPt */\012MDAP[1]	/* MoveDirectAbsPt */\012MIRP[11101]	/* MoveIndirectRelPt */\012MDAP[0]	/* MoveDirectAbsPt */\012MDAP[0]	/* MoveDirectAbsPt */\012MDAP[0]	/* MoveDirectAbsPt */\012MDAP[0]	/* MoveDirectAbsPt */\012MDAP[0]	/* MoveDirectAbsPt */\012MDAP[0]	/* MoveDirectAbsPt */\012MDAP[0]	/* MoveDirectAbsPt */\012MDAP[0]	/* MoveDirectAbsPt */\012MDAP[0]	/* MoveDirectAbsPt */\012MDAP[0]	/* MoveDirectAbsPt */\012MDAP[0]	/* MoveDirectAbsPt */\012SVTCA[0]	/* SetFreedomAndProjectionVectorToAxis */\012MDAP[0]	/* MoveDirectAbsPt */\012MDAP[0]	/* MoveDirectAbsPt */\012MDAP[0]	/* MoveDirectAbsPt */\012MDAP[0]	/* MoveDirectAbsPt */\012MDAP[0]	/* MoveDirectAbsPt */\012MDAP[0]	/* MoveDirectAbsPt */\012MDAP[0]	/* MoveDirectAbsPt */\012MDAP[0]	/* MoveDirectAbsPt */\012IUP[1]	/* InterpolateUntPts */\012IUP[0]	/* InterpolateUntPts */\012SVTCA[1]	/* SetFreedomAndProjectionVectorToAxis */\012MD[0]	/* MeasureDistance */\012ROUND[00]	/* Round */\012PUSHW[ ]	/* 2 values pushed */\01271 144 \012MD[0]	/* MeasureDistance */\012ROUND[00]	/* Round */\012SUB[ ]	/* Subtract */\012PUSHB[ ]	/* 1 value pushed */\01264 \012GT[ ]	/* GreaterThan */\012IF[ ]	/* If */\012SHPIX[ ]	/* ShiftZoneByPixel */\012SRP1[ ]	/* SetRefPoint1 */\012SHZ[1]	/* ShiftZoneByLastPoint */\012PUSHW[ ]	/* 2 values pushed */\012144 -64 \012SHPIX[ ]	/* ShiftZoneByPixel */\012EIF[ ]	/* EndIf */";
};
width = 957;
}
);
note = OE;
unicode = 0152;
},
{
color = 3;
glyphname = P;
lastChange = "2021-08-02 20:56:00 +0000";
layers = (
{
layerId = "BE19588B-E19B-4B9D-8A17-411D65DA33D8";
paths = (
{
closed = 1;
nodes = (
"641 394.333 OFFCURVE",
"610 437 OFFCURVE",
"548 467 CURVE SMOOTH",
"498.667 491 OFFCURVE",
"443.333 503 OFFCURVE",
"382 503 CURVE SMOOTH",
"286.667 503 OFFCURVE",
"208.667 482.333 OFFCURVE",
"148 441 CURVE SMOOTH",
"98 407 OFFCURVE",
"73 366.667 OFFCURVE",
"73 320 CURVE SMOOTH",
"73 267.333 OFFCURVE",
"103 241 OFFCURVE",
"163 241 CURVE SMOOTH",
"193.667 241 OFFCURVE",
"220.667 249.667 OFFCURVE",
"244 267 CURVE SMOOTH",
"275.333 290.333 OFFCURVE",
"291 316 OFFCURVE",
"291 344 CURVE SMOOTH",
"291 351.333 OFFCURVE",
"288 355 OFFCURVE",
"282 355 CURVE SMOOTH",
"277.333 355 OFFCURVE",
"273.333 350.667 OFFCURVE",
"270 342 CURVE SMOOTH",
"252.667 298 OFFCURVE",
"211.667 266 OFFCURVE",
"165 266 CURVE SMOOTH",
"133 266 OFFCURVE",
"103 284.333 OFFCURVE",
"103 315 CURVE SMOOTH",
"103 330.333 OFFCURVE",
"111.333 349.333 OFFCURVE",
"128 372 CURVE SMOOTH",
"142.667 392.667 OFFCURVE",
"157.333 408 OFFCURVE",
"172 418 CURVE SMOOTH",
"229.333 457.333 OFFCURVE",
"300.667 477 OFFCURVE",
"386 477 CURVE SMOOTH",
"436.667 477 OFFCURVE",
"482 468 OFFCURVE",
"522 450 CURVE SMOOTH",
"574.667 426 OFFCURVE",
"601 392 OFFCURVE",
"601 348 CURVE SMOOTH",
"601 300.667 OFFCURVE",
"575 261.333 OFFCURVE",
"523 230 CURVE SMOOTH",
"477.667 202.667 OFFCURVE",
"429.667 189 OFFCURVE",
"379 189 CURVE SMOOTH",
"363.667 189 OFFCURVE",
"344.333 191 OFFCURVE",
"321 195 CURVE",
"332.333 224.333 OFFCURVE",
"348.667 259.333 OFFCURVE",
"370 300 CURVE SMOOTH",
"400 358 OFFCURVE",
"420.667 387 OFFCURVE",
"432 387 CURVE SMOOTH",
"434 387 LINE",
"435 385 LINE",
"434.333 370.333 OFFCURVE",
"437.333 363 OFFCURVE",
"444 363 CURVE SMOOTH",
"450 363 OFFCURVE",
"453 369.333 OFFCURVE",
"453 382 CURVE SMOOTH",
"453 402.667 OFFCURVE",
"445.667 413 OFFCURVE",
"431 413 CURVE SMOOTH",
"399 413 OFFCURVE",
"353 345.333 OFFCURVE",
"293 210 CURVE",
"281.667 224 OFFCURVE",
"275.333 232.333 OFFCURVE",
"274 235 CURVE",
"268 235 OFFCURVE",
"265 229 OFFCURVE",
"265 217 CURVE SMOOTH",
"265 203 OFFCURVE",
"269 191.667 OFFCURVE",
"277 183 CURVE",
"243 105 OFFCURVE",
"198.333 46 OFFCURVE",
"143 6 CURVE",
"53 15 LINE",
"15 15 OFFCURVE",
"-4 2.667 OFFCURVE",
"-4 -22 CURVE SMOOTH",
"-4 -41.333 OFFCURVE",
"13.667 -51 OFFCURVE",
"49 -51 CURVE SMOOTH",
"88.333 -51 OFFCURVE",
"124.667 -40 OFFCURVE",
"158 -18 CURVE",
"170 -18 OFFCURVE",
"184.667 -16.667 OFFCURVE",
"202 -14 CURVE SMOOTH",
"227.333 -10 OFFCURVE",
"240 -4.667 OFFCURVE",
"240 2 CURVE SMOOTH",
"240 6.667 OFFCURVE",
"237 9 OFFCURVE",
"231 9 CURVE SMOOTH",
"226.333 9 OFFCURVE",
"219.167 8.167 OFFCURVE",
"209.5 6.5 CURVE SMOOTH",
"199.833 4.833 OFFCURVE",
"192.667 4 OFFCURVE",
"188 4 CURVE",
"237.333 46.667 OFFCURVE",
"278.333 102.667 OFFCURVE",
"311 172 CURVE",
"331.667 166 OFFCURVE",
"354.667 163 OFFCURVE",
"380 163 CURVE SMOOTH",
"442.667 163 OFFCURVE",
"499.333 176.667 OFFCURVE",
"550 204 CURVE SMOOTH",
"610.667 236.667 OFFCURVE",
"641 281.667 OFFCURVE",
"641 339 CURVE SMOOTH"
);
},
{
closed = 1;
nodes = (
"89.333 -23 OFFCURVE",
"70.333 -28 OFFCURVE",
"53 -28 CURVE SMOOTH",
"37 -28 OFFCURVE",
"29 -25 OFFCURVE",
"29 -19 CURVE SMOOTH",
"29 -12.333 OFFCURVE",
"40 -9 OFFCURVE",
"62 -9 CURVE SMOOTH",
"75.333 -9 OFFCURVE",
"91.333 -10.333 OFFCURVE",
"110 -13 CURVE"
);
}
);
userData = {
assembly = "NPUSHB[ ]	/* 60 values pushed */\0121 95 95 64 96 0 71 33 31 25 23 11 8 6 87 47 37 29 27 13 8 73 5 79 53 5 0 91 5 21 63 5 79 39 7 35 49 7 4 93 7 19 43 42 7 35 57 7 83 77 7 66 19 89 1 83 3 1 21 70 \012SROUND[ ]	/* SuperRound */\012MDAP[1]	/* MoveDirectAbsPt */\012SHZ[1]	/* ShiftZoneByLastPoint */\012RTG[ ]	/* RoundToGrid */\012SVTCA[0]	/* SetFreedomAndProjectionVectorToAxis */\012MIAP[1]	/* MoveIndirectAbsPt */\012MIAP[1]	/* MoveIndirectAbsPt */\012MDAP[1]	/* MoveDirectAbsPt */\012MDAP[1]	/* MoveDirectAbsPt */\012MIRP[11101]	/* MoveIndirectRelPt */\012SRP0[ ]	/* SetRefPoint0 */\012MIRP[11101]	/* MoveIndirectRelPt */\012MDAP[1]	/* MoveDirectAbsPt */\012MIRP[11101]	/* MoveIndirectRelPt */\012ALIGNRP[ ]	/* AlignRelativePt */\012SRP0[ ]	/* SetRefPoint0 */\012MIRP[11101]	/* MoveIndirectRelPt */\012MDAP[1]	/* MoveDirectAbsPt */\012MIRP[11101]	/* MoveIndirectRelPt */\012SRP0[ ]	/* SetRefPoint0 */\012MIRP[11101]	/* MoveIndirectRelPt */\012SVTCA[1]	/* SetFreedomAndProjectionVectorToAxis */\012MDAP[1]	/* MoveDirectAbsPt */\012MIRP[11101]	/* MoveIndirectRelPt */\012MDAP[1]	/* MoveDirectAbsPt */\012MIRP[11101]	/* MoveIndirectRelPt */\012MDAP[1]	/* MoveDirectAbsPt */\012MIRP[11101]	/* MoveIndirectRelPt */\012SRP0[ ]	/* SetRefPoint0 */\012MIRP[11101]	/* MoveIndirectRelPt */\012MDAP[0]	/* MoveDirectAbsPt */\012MDAP[0]	/* MoveDirectAbsPt */\012MDAP[0]	/* MoveDirectAbsPt */\012MDAP[0]	/* MoveDirectAbsPt */\012MDAP[0]	/* MoveDirectAbsPt */\012MDAP[0]	/* MoveDirectAbsPt */\012MDAP[0]	/* MoveDirectAbsPt */\012SVTCA[0]	/* SetFreedomAndProjectionVectorToAxis */\012MDAP[0]	/* MoveDirectAbsPt */\012MDAP[0]	/* MoveDirectAbsPt */\012MDAP[0]	/* MoveDirectAbsPt */\012MDAP[0]	/* MoveDirectAbsPt */\012MDAP[0]	/* MoveDirectAbsPt */\012MDAP[0]	/* MoveDirectAbsPt */\012MDAP[0]	/* MoveDirectAbsPt */\012MDAP[0]	/* MoveDirectAbsPt */\012IUP[1]	/* InterpolateUntPts */\012IUP[0]	/* InterpolateUntPts */\012SVTCA[1]	/* SetFreedomAndProjectionVectorToAxis */\012MD[0]	/* MeasureDistance */\012ROUND[00]	/* Round */\012PUSHW[ ]	/* 2 values pushed */\01221 95 \012MD[0]	/* MeasureDistance */\012ROUND[00]	/* Round */\012SUB[ ]	/* Subtract */\012PUSHB[ ]	/* 1 value pushed */\01264 \012GT[ ]	/* GreaterThan */\012IF[ ]	/* If */\012SHPIX[ ]	/* ShiftZoneByPixel */\012SRP1[ ]	/* SetRefPoint1 */\012SHZ[1]	/* ShiftZoneByLastPoint */\012PUSHW[ ]	/* 2 values pushed */\01295 -64 \012SHPIX[ ]	/* ShiftZoneByPixel */\012EIF[ ]	/* EndIf */";
};
width = 546;
}
);
note = P;
unicode = 0050;
},
{
color = 3;
glyphname = Thorn;
lastChange = "2021-08-02 20:56:00 +0000";
layers = (
{
background = {
components = (
{
name = P;
}
);
};
layerId = "BE19588B-E19B-4B9D-8A17-411D65DA33D8";
paths = (
{
closed = 1;
nodes = (
"351 391 OFFCURVE",
"258 391 CURVE SMOOTH",
"245 391 OFFCURVE",
"230 382 OFFCURVE",
"211 365 CURVE SMOOTH",
"196 351 OFFCURVE",
"177 322 OFFCURVE",
"154 280 CURVE SMOOTH",
"133 241 OFFCURVE",
"118 208 OFFCURVE",
"108 180 CURVE",
"158 346 LINE SMOOTH",
"193 462 OFFCURVE",
"208 510 OFFCURVE",
"208 517 CURVE SMOOTH",
"208 523 OFFCURVE",
"205 527 OFFCURVE",
"199 527 CURVE SMOOTH",
"181 527 OFFCURVE",
"167 516 OFFCURVE",
"161 494 CURVE SMOOTH",
"158 485 OFFCURVE",
"156 475 OFFCURVE",
"154 467 CURVE SMOOTH",
"136 389 OFFCURVE",
"103 276 OFFCURVE",
"74 175 CURVE SMOOTH",
"7 -60 LINE SMOOTH",
"-9 -115 OFFCURVE",
"-33 -185 OFFCURVE",
"-33 -190 CURVE SMOOTH",
"-33 -208 OFFCURVE",
"-23 -217 OFFCURVE",
"-14 -217 CURVE SMOOTH",
"-7 -217 OFFCURVE",
"-1 -209 OFFCURVE",
"4 -193 CURVE SMOOTH",
"16 -152 OFFCURVE",
"22 -123 OFFCURVE",
"27 -106 CURVE SMOOTH",
"47 -39 LINE SMOOTH",
"62 11 OFFCURVE",
"69 46 OFFCURVE",
"72 56 CURVE SMOOTH",
"103 149 OFFCURVE",
"213 370 OFFCURVE",
"254 370 CURVE SMOOTH",
"329 370 OFFCURVE",
"278 145 OFFCURVE",
"211 70 CURVE SMOOTH",
"184 38 OFFCURVE",
"139 17 OFFCURVE",
"113 17 CURVE SMOOTH",
"104 17 OFFCURVE",
"94 17 OFFCURVE",
"86 25 CURVE SMOOTH",
"72 38 LINE",
"68 38 OFFCURVE",
"66 35 OFFCURVE",
"66 29 CURVE SMOOTH",
"66 19 OFFCURVE",
"76 11 OFFCURVE",
"95 6 CURVE SMOOTH",
"108 2 OFFCURVE",
"120 0 OFFCURVE",
"133 0 CURVE SMOOTH",
"184 0 OFFCURVE",
"246 40 OFFCURVE",
"280 106 CURVE SMOOTH",
"345 232 OFFCURVE"
);
}
);
userData = {
assembly = "NPUSHB[ ]	/* 67 values pushed */\0121 57 57 64 58 0 49 10 49 46 35 8 26 28 9 38 37 40 35 35 40 28 29 9 38 37 40 35 35 40 46 48 9 38 37 40 35 35 40 26 28 9 38 37 37 38 28 29 9 38 37 37 38 18 5 0 20 7 55 13 7 4 44 33 1 35 70 \012SROUND[ ]	/* SuperRound */\012MDAP[1]	/* MoveDirectAbsPt */\012SHZ[1]	/* ShiftZoneByLastPoint */\012RTG[ ]	/* RoundToGrid */\012SVTCA[0]	/* SetFreedomAndProjectionVectorToAxis */\012MDAP[1]	/* MoveDirectAbsPt */\012MDAP[1]	/* MoveDirectAbsPt */\012MDAP[1]	/* MoveDirectAbsPt */\012MIRP[11101]	/* MoveIndirectRelPt */\012MDAP[1]	/* MoveDirectAbsPt */\012MIRP[11101]	/* MoveIndirectRelPt */\012SVTCA[1]	/* SetFreedomAndProjectionVectorToAxis */\012MDAP[1]	/* MoveDirectAbsPt */\012MIRP[11101]	/* MoveIndirectRelPt */\012SDPVTL[1]	/* SetDualPVectorToLine */\012MDAP[0]	/* MoveDirectAbsPt */\012SFVTPV[ ]	/* SetFVectorToPVector */\012MDRP[00100]	/* MoveDirectRelPt */\012SFVTPV[ ]	/* SetFVectorToPVector */\012MIRP[11100]	/* MoveIndirectRelPt */\012SFVTPV[ ]	/* SetFVectorToPVector */\012MDRP[00100]	/* MoveDirectRelPt */\012SDPVTL[1]	/* SetDualPVectorToLine */\012MDAP[0]	/* MoveDirectAbsPt */\012SFVTPV[ ]	/* SetFVectorToPVector */\012MDRP[00100]	/* MoveDirectRelPt */\012SFVTPV[ ]	/* SetFVectorToPVector */\012MIRP[11100]	/* MoveIndirectRelPt */\012SFVTPV[ ]	/* SetFVectorToPVector */\012MDRP[00100]	/* MoveDirectRelPt */\012SDPVTL[1]	/* SetDualPVectorToLine */\012MDAP[0]	/* MoveDirectAbsPt */\012SFVTPV[ ]	/* SetFVectorToPVector */\012MDRP[00100]	/* MoveDirectRelPt */\012SFVTPV[ ]	/* SetFVectorToPVector */\012MDRP[00100]	/* MoveDirectRelPt */\012SFVTPV[ ]	/* SetFVectorToPVector */\012MDRP[00100]	/* MoveDirectRelPt */\012SFVTPV[ ]	/* SetFVectorToPVector */\012MIRP[11100]	/* MoveIndirectRelPt */\012SFVTPV[ ]	/* SetFVectorToPVector */\012MDRP[00100]	/* MoveDirectRelPt */\012SDPVTL[1]	/* SetDualPVectorToLine */\012MDAP[0]	/* MoveDirectAbsPt */\012SFVTPV[ ]	/* SetFVectorToPVector */\012MDRP[00100]	/* MoveDirectRelPt */\012SFVTPV[ ]	/* SetFVectorToPVector */\012MDRP[00100]	/* MoveDirectRelPt */\012SFVTPV[ ]	/* SetFVectorToPVector */\012MDRP[00100]	/* MoveDirectRelPt */\012SFVTPV[ ]	/* SetFVectorToPVector */\012MIRP[11100]	/* MoveIndirectRelPt */\012SFVTPV[ ]	/* SetFVectorToPVector */\012MDRP[00100]	/* MoveDirectRelPt */\012SDPVTL[1]	/* SetDualPVectorToLine */\012MDAP[0]	/* MoveDirectAbsPt */\012SFVTPV[ ]	/* SetFVectorToPVector */\012MDRP[00100]	/* MoveDirectRelPt */\012SFVTPV[ ]	/* SetFVectorToPVector */\012MDRP[00100]	/* MoveDirectRelPt */\012SFVTPV[ ]	/* SetFVectorToPVector */\012MDRP[00100]	/* MoveDirectRelPt */\012SFVTPV[ ]	/* SetFVectorToPVector */\012MIRP[11100]	/* MoveIndirectRelPt */\012SFVTPV[ ]	/* SetFVectorToPVector */\012MDRP[00100]	/* MoveDirectRelPt */\012SVTCA[1]	/* SetFreedomAndProjectionVectorToAxis */\012MDAP[0]	/* MoveDirectAbsPt */\012MDAP[0]	/* MoveDirectAbsPt */\012MDAP[0]	/* MoveDirectAbsPt */\012MDAP[0]	/* MoveDirectAbsPt */\012SVTCA[0]	/* SetFreedomAndProjectionVectorToAxis */\012MDAP[0]	/* MoveDirectAbsPt */\012MDAP[0]	/* MoveDirectAbsPt */\012IUP[1]	/* InterpolateUntPts */\012IUP[0]	/* InterpolateUntPts */\012SVTCA[1]	/* SetFreedomAndProjectionVectorToAxis */\012MD[0]	/* MeasureDistance */\012ROUND[00]	/* Round */\012PUSHW[ ]	/* 2 values pushed */\01235 57 \012MD[0]	/* MeasureDistance */\012ROUND[00]	/* Round */\012SUB[ ]	/* Subtract */\012PUSHB[ ]	/* 1 value pushed */\01264 \012GT[ ]	/* GreaterThan */\012IF[ ]	/* If */\012SHPIX[ ]	/* ShiftZoneByPixel */\012SRP1[ ]	/* SetRefPoint1 */\012SHZ[1]	/* ShiftZoneByLastPoint */\012PUSHW[ ]	/* 2 values pushed */\01257 -64 \012SHPIX[ ]	/* ShiftZoneByPixel */\012EIF[ ]	/* EndIf */";
};
width = 284;
}
);
note = Thorn;
unicode = 00DE;
},
{
color = 3;
glyphname = Q;
lastChange = "2021-08-02 20:56:00 +0000";
layers = (
{
layerId = "BE19588B-E19B-4B9D-8A17-411D65DA33D8";
paths = (
{
closed = 1;
nodes = (
"598 247.667 OFFCURVE",
"590.333 276.333 OFFCURVE",
"575 303 CURVE",
"579 319 OFFCURVE",
"581 332 OFFCURVE",
"581 342 CURVE SMOOTH",
"581 387.333 OFFCURVE",
"559.667 422 OFFCURVE",
"517 446 CURVE SMOOTH",
"482.333 466 OFFCURVE",
"440.667 476 OFFCURVE",
"392 476 CURVE SMOOTH",
"284.667 476 OFFCURVE",
"192.333 435.333 OFFCURVE",
"115 354 CURVE SMOOTH",
"57.667 294 OFFCURVE",
"29 226.333 OFFCURVE",
"29 151 CURVE SMOOTH",
"29 85.667 OFFCURVE",
"49.667 34 OFFCURVE",
"91 -4 CURVE",
"89.667 -12.667 OFFCURVE",
"89 -22 OFFCURVE",
"89 -32 CURVE SMOOTH",
"89 -72 OFFCURVE",
"96.667 -92 OFFCURVE",
"112 -92 CURVE SMOOTH",
"116 -92 OFFCURVE",
"118 -88 OFFCURVE",
"118 -80 CURVE SMOOTH",
"118 -74.667 OFFCURVE",
"117.333 -66.333 OFFCURVE",
"116 -55 CURVE SMOOTH",
"114.667 -43.667 OFFCURVE",
"114 -35.333 OFFCURVE",
"114 -30 CURVE SMOOTH",
"115 -23 LINE",
"147.667 -44.333 OFFCURVE",
"192 -55 OFFCURVE",
"248 -55 CURVE SMOOTH",
"265.333 -55 OFFCURVE",
"281.333 -54.333 OFFCURVE",
"296 -53 CURVE",
"322.667 -78.333 OFFCURVE",
"352 -100.333 OFFCURVE",
"384 -119 CURVE SMOOTH",
"424 -142.333 OFFCURVE",
"458 -154 OFFCURVE",
"486 -154 CURVE SMOOTH",
"498.667 -154 OFFCURVE",
"510.333 -151.667 OFFCURVE",
"521 -147 CURVE SMOOTH",
"534.333 -141 OFFCURVE",
"541 -132.333 OFFCURVE",
"541 -121 CURVE SMOOTH",
"541 -103.667 OFFCURVE",
"513.333 -73 OFFCURVE",
"496 -73 CURVE SMOOTH",
"492 -73 OFFCURVE",
"490 -75.333 OFFCURVE",
"490 -80 CURVE SMOOTH",
"490 -82 OFFCURVE",
"492.5 -86.167 OFFCURVE",
"497.5 -92.5 CURVE SMOOTH",
"502.5 -98.833 OFFCURVE",
"505 -103.667 OFFCURVE",
"505 -107 CURVE SMOOTH",
"505 -117.667 OFFCURVE",
"496 -123 OFFCURVE",
"478 -123 CURVE SMOOTH",
"461.333 -123 OFFCURVE",
"436.667 -113.333 OFFCURVE",
"404 -94 CURVE SMOOTH",
"376.667 -77.333 OFFCURVE",
"354.667 -61.333 OFFCURVE",
"338 -46 CURVE",
"418 -28.667 OFFCURVE",
"486.333 13 OFFCURVE",
"543 79 CURVE SMOOTH",
"579.667 121.667 OFFCURVE",
"598 167.667 OFFCURVE",
"598 217 CURVE SMOOTH"
);
},
{
closed = 1;
nodes = (
"564 179.667 OFFCURVE",
"544 134.333 OFFCURVE",
"504 87 CURVE SMOOTH",
"456.667 31.667 OFFCURVE",
"391 -4.667 OFFCURVE",
"307 -22 CURVE",
"240.333 32 OFFCURVE",
"189 59 OFFCURVE",
"153 59 CURVE SMOOTH",
"131 59 OFFCURVE",
"114 49.333 OFFCURVE",
"102 30 CURVE",
"79.333 60 OFFCURVE",
"68 96.667 OFFCURVE",
"68 140 CURVE SMOOTH",
"68 208 OFFCURVE",
"94 272 OFFCURVE",
"146 332 CURVE SMOOTH",
"214.667 411.333 OFFCURVE",
"298 451 OFFCURVE",
"396 451 CURVE SMOOTH",
"449.333 451 OFFCURVE",
"490.333 436.333 OFFCURVE",
"519 407 CURVE SMOOTH",
"539.667 385.667 OFFCURVE",
"550 362.667 OFFCURVE",
"550 338 CURVE",
"519.333 372 OFFCURVE",
"477.333 395 OFFCURVE",
"424 407 CURVE SMOOTH",
"389.333 415 OFFCURVE",
"362.667 419 OFFCURVE",
"344 419 CURVE SMOOTH",
"333.333 419 OFFCURVE",
"320.667 417.333 OFFCURVE",
"306 414 CURVE SMOOTH",
"286.667 409.333 OFFCURVE",
"277 404.333 OFFCURVE",
"277 399 CURVE SMOOTH",
"277 395 OFFCURVE",
"283 393 OFFCURVE",
"295 393 CURVE SMOOTH",
"417.667 393 OFFCURVE",
"499.667 361 OFFCURVE",
"541 297 CURVE",
"533 276.333 OFFCURVE",
"518 252.667 OFFCURVE",
"496 226 CURVE SMOOTH",
"492 220.667 OFFCURVE",
"473.333 199.333 OFFCURVE",
"440 162 CURVE SMOOTH",
"430.667 151.333 OFFCURVE",
"426 145 OFFCURVE",
"426 143 CURVE SMOOTH",
"426 139 OFFCURVE",
"428 137 OFFCURVE",
"432 137 CURVE",
"440 141 LINE SMOOTH",
"495.333 175 OFFCURVE",
"535 215 OFFCURVE",
"559 261 CURVE",
"562.333 248.333 OFFCURVE",
"564 235.667 OFFCURVE",
"564 223 CURVE SMOOTH"
);
},
{
closed = 1;
nodes = (
"253 -29.333 OFFCURVE",
"242 -30 OFFCURVE",
"232 -30 CURVE SMOOTH",
"187.333 -30 OFFCURVE",
"151.333 -17.667 OFFCURVE",
"124 7 CURVE",
"131.333 17 OFFCURVE",
"142 22 OFFCURVE",
"156 22 CURVE SMOOTH",
"182 22 OFFCURVE",
"218.333 5.333 OFFCURVE",
"265 -28 CURVE"
);
}
);
userData = {
assembly = "NPUSHB[ ]	/* 60 values pushed */\0121 106 106 64 107 0 94 90 80 60 56 36 30 102 98 80 72 68 62 52 50 40 38 34 31 13 4 88 5 42 10 5 18 54 5 0 15 7 22 92 7 100 8 7 22 104 7 26 28 70 7 76 84 7 46 46 22 1 42 70 \012SROUND[ ]	/* SuperRound */\012MDAP[1]	/* MoveDirectAbsPt */\012SHZ[1]	/* ShiftZoneByLastPoint */\012RTG[ ]	/* RoundToGrid */\012SVTCA[0]	/* SetFreedomAndProjectionVectorToAxis */\012MDAP[1]	/* MoveDirectAbsPt */\012MDAP[1]	/* MoveDirectAbsPt */\012SRP0[ ]	/* SetRefPoint0 */\012MIRP[11101]	/* MoveIndirectRelPt */\012MDAP[1]	/* MoveDirectAbsPt */\012MIRP[11101]	/* MoveIndirectRelPt */\012MDAP[1]	/* MoveDirectAbsPt */\012ALIGNRP[ ]	/* AlignRelativePt */\012MIRP[11101]	/* MoveIndirectRelPt */\012SRP0[ ]	/* SetRefPoint0 */\012MIRP[11101]	/* MoveIndirectRelPt */\012MDAP[1]	/* MoveDirectAbsPt */\012MIRP[11101]	/* MoveIndirectRelPt */\012SRP0[ ]	/* SetRefPoint0 */\012MIRP[11101]	/* MoveIndirectRelPt */\012SVTCA[1]	/* SetFreedomAndProjectionVectorToAxis */\012MDAP[1]	/* MoveDirectAbsPt */\012MIRP[11101]	/* MoveIndirectRelPt */\012MDAP[1]	/* MoveDirectAbsPt */\012MIRP[11101]	/* MoveIndirectRelPt */\012MDAP[1]	/* MoveDirectAbsPt */\012MIRP[11101]	/* MoveIndirectRelPt */\012MDAP[0]	/* MoveDirectAbsPt */\012MDAP[0]	/* MoveDirectAbsPt */\012MDAP[0]	/* MoveDirectAbsPt */\012MDAP[0]	/* MoveDirectAbsPt */\012MDAP[0]	/* MoveDirectAbsPt */\012MDAP[0]	/* MoveDirectAbsPt */\012MDAP[0]	/* MoveDirectAbsPt */\012MDAP[0]	/* MoveDirectAbsPt */\012MDAP[0]	/* MoveDirectAbsPt */\012MDAP[0]	/* MoveDirectAbsPt */\012MDAP[0]	/* MoveDirectAbsPt */\012MDAP[0]	/* MoveDirectAbsPt */\012MDAP[0]	/* MoveDirectAbsPt */\012MDAP[0]	/* MoveDirectAbsPt */\012SVTCA[0]	/* SetFreedomAndProjectionVectorToAxis */\012MDAP[0]	/* MoveDirectAbsPt */\012MDAP[0]	/* MoveDirectAbsPt */\012MDAP[0]	/* MoveDirectAbsPt */\012MDAP[0]	/* MoveDirectAbsPt */\012MDAP[0]	/* MoveDirectAbsPt */\012MDAP[0]	/* MoveDirectAbsPt */\012MDAP[0]	/* MoveDirectAbsPt */\012IUP[1]	/* InterpolateUntPts */\012IUP[0]	/* InterpolateUntPts */\012SVTCA[1]	/* SetFreedomAndProjectionVectorToAxis */\012MD[0]	/* MeasureDistance */\012ROUND[00]	/* Round */\012PUSHW[ ]	/* 2 values pushed */\01242 106 \012MD[0]	/* MeasureDistance */\012ROUND[00]	/* Round */\012SUB[ ]	/* Subtract */\012PUSHB[ ]	/* 1 value pushed */\01264 \012GT[ ]	/* GreaterThan */\012IF[ ]	/* If */\012SHPIX[ ]	/* ShiftZoneByPixel */\012SRP1[ ]	/* SetRefPoint1 */\012SHZ[1]	/* ShiftZoneByLastPoint */\012PUSHW[ ]	/* 2 values pushed */\012106 -64 \012SHPIX[ ]	/* ShiftZoneByPixel */\012EIF[ ]	/* EndIf */";
};
width = 594;
}
);
note = Q;
unicode = 0051;
},
{
color = 3;
glyphname = R;
lastChange = "2021-08-02 20:56:00 +0000";
layers = (
{
layerId = "BE19588B-E19B-4B9D-8A17-411D65DA33D8";
paths = (
{
closed = 1;
nodes = (
"621 417.667 OFFCURVE",
"591.333 454 OFFCURVE",
"532 478 CURVE SMOOTH",
"487.333 496 OFFCURVE",
"436 505 OFFCURVE",
"378 505 CURVE SMOOTH",
"308 505 OFFCURVE",
"244 491.667 OFFCURVE",
"186 465 CURVE SMOOTH",
"110.667 430.333 OFFCURVE",
"73 382 OFFCURVE",
"73 320 CURVE SMOOTH",
"73 270 OFFCURVE",
"97.667 245 OFFCURVE",
"147 245 CURVE SMOOTH",
"175 245 OFFCURVE",
"201.667 254.333 OFFCURVE",
"227 273 CURVE SMOOTH",
"258.333 296.333 OFFCURVE",
"274 322 OFFCURVE",
"274 350 CURVE SMOOTH",
"274 356.667 OFFCURVE",
"271 360 OFFCURVE",
"265 360 CURVE SMOOTH",
"260.333 360 OFFCURVE",
"256.333 355.667 OFFCURVE",
"253 347 CURVE SMOOTH",
"246.333 328.333 OFFCURVE",
"234 312 OFFCURVE",
"216 298 CURVE SMOOTH",
"192 279.333 OFFCURVE",
"170 270 OFFCURVE",
"150 270 CURVE SMOOTH",
"118.667 270 OFFCURVE",
"103 286.333 OFFCURVE",
"103 319 CURVE SMOOTH",
"103 336.333 OFFCURVE",
"109.667 355 OFFCURVE",
"123 375 CURVE SMOOTH",
"135 392.333 OFFCURVE",
"149 406.667 OFFCURVE",
"165 418 CURVE SMOOTH",
"228.333 461.333 OFFCURVE",
"303 483 OFFCURVE",
"389 483 CURVE SMOOTH",
"435 483 OFFCURVE",
"475.667 475.333 OFFCURVE",
"511 460 CURVE SMOOTH",
"558.333 439.333 OFFCURVE",
"582 409 OFFCURVE",
"582 369 CURVE SMOOTH",
"582 331.667 OFFCURVE",
"561.667 302 OFFCURVE",
"521 280 CURVE SMOOTH",
"487 261.333 OFFCURVE",
"449.667 252 OFFCURVE",
"409 252 CURVE SMOOTH",
"347 252 LINE",
"384 329 LINE SMOOTH",
"404 369 OFFCURVE",
"418.333 389 OFFCURVE",
"427 389 CURVE SMOOTH",
"429.667 389 OFFCURVE",
"432.333 387.333 OFFCURVE",
"435 384 CURVE",
"433.667 380.667 OFFCURVE",
"433 377.667 OFFCURVE",
"433 375 CURVE SMOOTH",
"433 367.667 OFFCURVE",
"435.667 364 OFFCURVE",
"441 364 CURVE SMOOTH",
"448.333 364 OFFCURVE",
"452 370.667 OFFCURVE",
"452 384 CURVE SMOOTH",
"452 402.667 OFFCURVE",
"443.667 412 OFFCURVE",
"427 412 CURVE SMOOTH",
"407.667 412 OFFCURVE",
"371 368.333 OFFCURVE",
"317 281 CURVE",
"306.333 287.667 OFFCURVE",
"297.333 291 OFFCURVE",
"290 291 CURVE SMOOTH",
"274.667 291 OFFCURVE",
"267 283.333 OFFCURVE",
"267 268 CURVE SMOOTH",
"267 256 OFFCURVE",
"271.667 250 OFFCURVE",
"281 250 CURVE SMOOTH",
"282.333 250 OFFCURVE",
"284.5 250.333 OFFCURVE",
"287.5 251 CURVE SMOOTH",
"294 252 LINE SMOOTH",
"297.333 252 OFFCURVE",
"300 251.333 OFFCURVE",
"302 250 CURVE",
"266.667 178.667 OFFCURVE",
"238.333 128 OFFCURVE",
"217 98 CURVE SMOOTH",
"172.333 35.333 OFFCURVE",
"128.333 4 OFFCURVE",
"85 4 CURVE SMOOTH",
"43.667 4 OFFCURVE",
"23 22 OFFCURVE",
"23 58 CURVE SMOOTH",
"23 92.667 OFFCURVE",
"68 152.667 OFFCURVE",
"68 150 CURVE SMOOTH",
"68 154.667 OFFCURVE",
"65.333 157 OFFCURVE",
"60 157 CURVE SMOOTH",
"42 157 OFFCURVE",
"26.333 142.667 OFFCURVE",
"13 114 CURVE SMOOTH",
"1.667 90 OFFCURVE",
"-4 68 OFFCURVE",
"-4 48 CURVE SMOOTH",
"-4 -2 OFFCURVE",
"24 -27 OFFCURVE",
"80 -27 CURVE SMOOTH",
"139.333 -27 OFFCURVE",
"191 0 OFFCURVE",
"235 54 CURVE SMOOTH",
"251.667 74 OFFCURVE",
"268.333 99.667 OFFCURVE",
"285 131 CURVE SMOOTH",
"294.333 147.667 OFFCURVE",
"308 175 OFFCURVE",
"326 213 CURVE",
"336 175 OFFCURVE",
"350.667 136.667 OFFCURVE",
"370 98 CURVE SMOOTH",
"410.667 16 OFFCURVE",
"456 -25 OFFCURVE",
"506 -25 CURVE SMOOTH",
"546 -25 OFFCURVE",
"578 12 OFFCURVE",
"578 52 CURVE SMOOTH",
"578 62.667 OFFCURVE",
"567.333 88 OFFCURVE",
"558 88 CURVE SMOOTH",
"554.667 88 OFFCURVE",
"552.333 79.667 OFFCURVE",
"551 63 CURVE SMOOTH",
"548.333 23.667 OFFCURVE",
"538 4 OFFCURVE",
"520 4 CURVE SMOOTH",
"510.667 4 OFFCURVE",
"499.667 8.667 OFFCURVE",
"487 18 CURVE SMOOTH",
"433.667 56 OFFCURVE",
"386 128.667 OFFCURVE",
"344 236 CURVE",
"365.333 233.333 OFFCURVE",
"384.333 232 OFFCURVE",
"401 232 CURVE SMOOTH",
"453.667 232 OFFCURVE",
"500.667 241.667 OFFCURVE",
"542 261 CURVE SMOOTH",
"594.667 285.667 OFFCURVE",
"621 321.667 OFFCURVE",
"621 369 CURVE SMOOTH"
);
}
);
userData = {
assembly = "NPUSHB[ ]	/* 65 values pushed */\0121 113 113 64 114 0 97 75 70 58 56 24 14 6 74 68 66 62 54 47 38 6 99 5 105 79 5 0 12 5 17 41 5 32 89 5 105 36 7 30 64 7 60 4 7 74 52 49 43 10 7 30 83 7 109 103 7 91 20 30 109 3 1 32 70 \012SROUND[ ]	/* SuperRound */\012MDAP[1]	/* MoveDirectAbsPt */\012SHZ[1]	/* ShiftZoneByLastPoint */\012RTG[ ]	/* RoundToGrid */\012SVTCA[0]	/* SetFreedomAndProjectionVectorToAxis */\012MIAP[1]	/* MoveIndirectAbsPt */\012MDAP[1]	/* MoveDirectAbsPt */\012ALIGNRP[ ]	/* AlignRelativePt */\012MDAP[1]	/* MoveDirectAbsPt */\012MIRP[11101]	/* MoveIndirectRelPt */\012SRP0[ ]	/* SetRefPoint0 */\012MIRP[11101]	/* MoveIndirectRelPt */\012SRP0[ ]	/* SetRefPoint0 */\012MIRP[11101]	/* MoveIndirectRelPt */\012ALIGNRP[ ]	/* AlignRelativePt */\012MDAP[1]	/* MoveDirectAbsPt */\012ALIGNRP[ ]	/* AlignRelativePt */\012ALIGNRP[ ]	/* AlignRelativePt */\012MIRP[11101]	/* MoveIndirectRelPt */\012MDAP[1]	/* MoveDirectAbsPt */\012MIRP[11101]	/* MoveIndirectRelPt */\012SRP0[ ]	/* SetRefPoint0 */\012MIRP[11101]	/* MoveIndirectRelPt */\012SVTCA[1]	/* SetFreedomAndProjectionVectorToAxis */\012MDAP[1]	/* MoveDirectAbsPt */\012MIRP[11101]	/* MoveIndirectRelPt */\012MDAP[1]	/* MoveDirectAbsPt */\012MIRP[11101]	/* MoveIndirectRelPt */\012MDAP[1]	/* MoveDirectAbsPt */\012MIRP[11101]	/* MoveIndirectRelPt */\012MDAP[1]	/* MoveDirectAbsPt */\012MIRP[11101]	/* MoveIndirectRelPt */\012SRP0[ ]	/* SetRefPoint0 */\012MIRP[11101]	/* MoveIndirectRelPt */\012MDAP[0]	/* MoveDirectAbsPt */\012MDAP[0]	/* MoveDirectAbsPt */\012MDAP[0]	/* MoveDirectAbsPt */\012MDAP[0]	/* MoveDirectAbsPt */\012MDAP[0]	/* MoveDirectAbsPt */\012MDAP[0]	/* MoveDirectAbsPt */\012MDAP[0]	/* MoveDirectAbsPt */\012MDAP[0]	/* MoveDirectAbsPt */\012SVTCA[0]	/* SetFreedomAndProjectionVectorToAxis */\012MDAP[0]	/* MoveDirectAbsPt */\012MDAP[0]	/* MoveDirectAbsPt */\012MDAP[0]	/* MoveDirectAbsPt */\012MDAP[0]	/* MoveDirectAbsPt */\012MDAP[0]	/* MoveDirectAbsPt */\012MDAP[0]	/* MoveDirectAbsPt */\012MDAP[0]	/* MoveDirectAbsPt */\012MDAP[0]	/* MoveDirectAbsPt */\012IUP[1]	/* InterpolateUntPts */\012IUP[0]	/* InterpolateUntPts */\012SVTCA[1]	/* SetFreedomAndProjectionVectorToAxis */\012MD[0]	/* MeasureDistance */\012ROUND[00]	/* Round */\012PUSHW[ ]	/* 2 values pushed */\01232 113 \012MD[0]	/* MeasureDistance */\012ROUND[00]	/* Round */\012SUB[ ]	/* Subtract */\012PUSHB[ ]	/* 1 value pushed */\01264 \012GT[ ]	/* GreaterThan */\012IF[ ]	/* If */\012SHPIX[ ]	/* ShiftZoneByPixel */\012SRP1[ ]	/* SetRefPoint1 */\012SHZ[1]	/* ShiftZoneByLastPoint */\012PUSHW[ ]	/* 2 values pushed */\012113 -64 \012SHPIX[ ]	/* ShiftZoneByPixel */\012EIF[ ]	/* EndIf */";
};
width = 574;
}
);
note = R;
unicode = 0052;
},
{
color = 3;
glyphname = S;
lastChange = "2021-08-02 20:56:00 +0000";
layers = (
{
layerId = "BE19588B-E19B-4B9D-8A17-411D65DA33D8";
paths = (
{
closed = 1;
nodes = (
"636 384.667 OFFCURVE",
"633 396.333 OFFCURVE",
"627 407 CURVE SMOOTH",
"601 454.333 OFFCURVE",
"547 478 OFFCURVE",
"465 478 CURVE SMOOTH",
"376.333 478 OFFCURVE",
"307.667 453.333 OFFCURVE",
"259 404 CURVE SMOOTH",
"234.333 378.667 OFFCURVE",
"222 354 OFFCURVE",
"222 330 CURVE SMOOTH",
"222 281.333 OFFCURVE",
"261.667 247.333 OFFCURVE",
"341 228 CURVE SMOOTH",
"353 225.333 OFFCURVE",
"380.667 220.333 OFFCURVE",
"424 213 CURVE SMOOTH",
"461.333 207 OFFCURVE",
"488.667 200.667 OFFCURVE",
"506 194 CURVE SMOOTH",
"539.333 181.333 OFFCURVE",
"556 162 OFFCURVE",
"556 136 CURVE SMOOTH",
"556 126 OFFCURVE",
"554 115 OFFCURVE",
"550 103 CURVE SMOOTH",
"536 61 OFFCURVE",
"502.333 29 OFFCURVE",
"449 7 CURVE SMOOTH",
"406.333 -11 OFFCURVE",
"359 -20 OFFCURVE",
"307 -20 CURVE SMOOTH",
"282.333 -20 OFFCURVE",
"259 -17.667 OFFCURVE",
"237 -13 CURVE",
"213.667 4.333 OFFCURVE",
"194 28 OFFCURVE",
"178 58 CURVE",
"142 142 LINE SMOOTH",
"128 175.333 OFFCURVE",
"110.667 192 OFFCURVE",
"90 192 CURVE SMOOTH",
"60 192 OFFCURVE",
"45 173.333 OFFCURVE",
"45 136 CURVE SMOOTH",
"45 92 OFFCURVE",
"90 20.667 OFFCURVE",
"142 -10 CURVE SMOOTH",
"164.667 -23.333 OFFCURVE",
"196 -33 OFFCURVE",
"236 -39 CURVE",
"273.333 -62.333 OFFCURVE",
"302 -74 OFFCURVE",
"322 -74 CURVE SMOOTH",
"333.333 -74 OFFCURVE",
"339 -70.333 OFFCURVE",
"339 -63 CURVE SMOOTH",
"339 -59 OFFCURVE",
"337 -56 OFFCURVE",
"333 -54 CURVE",
"332 -55 LINE",
"332 -54 LINE",
"317.333 -50.667 OFFCURVE",
"305 -47.333 OFFCURVE",
"295 -44 CURVE",
"358.333 -46 OFFCURVE",
"416 -36.667 OFFCURVE",
"468 -16 CURVE SMOOTH",
"530.667 8.667 OFFCURVE",
"572.333 46.667 OFFCURVE",
"593 98 CURVE SMOOTH",
"599 113.333 OFFCURVE",
"602 128 OFFCURVE",
"602 142 CURVE SMOOTH",
"602 192.667 OFFCURVE",
"553.333 227.667 OFFCURVE",
"456 247 CURVE SMOOTH",
"414.667 255 OFFCURVE",
"383.667 260.667 OFFCURVE",
"363 264 CURVE SMOOTH",
"295.667 278 OFFCURVE",
"262 301.667 OFFCURVE",
"262 335 CURVE SMOOTH",
"262 350.333 OFFCURVE",
"269.333 366.667 OFFCURVE",
"284 384 CURVE SMOOTH",
"302 406 OFFCURVE",
"330.667 423 OFFCURVE",
"370 435 CURVE SMOOTH",
"402 445 OFFCURVE",
"435.333 450 OFFCURVE",
"470 450 CURVE SMOOTH",
"502.667 450 OFFCURVE",
"530.667 445.333 OFFCURVE",
"554 436 CURVE SMOOTH",
"586.667 423.333 OFFCURVE",
"603 403 OFFCURVE",
"603 375 CURVE SMOOTH",
"603 358.333 OFFCURVE",
"596.667 346.333 OFFCURVE",
"584 339 CURVE SMOOTH",
"578 335.667 OFFCURVE",
"566.333 332.667 OFFCURVE",
"549 330 CURVE SMOOTH",
"536.333 328 OFFCURVE",
"530 324 OFFCURVE",
"530 318 CURVE SMOOTH",
"530 310.667 OFFCURVE",
"537.667 307 OFFCURVE",
"553 307 CURVE SMOOTH",
"595.667 307 OFFCURVE",
"636 332 OFFCURVE",
"636 372 CURVE SMOOTH"
);
},
{
closed = 1;
nodes = (
"126.333 27.333 OFFCURVE",
"76 94.333 OFFCURVE",
"76 157 CURVE SMOOTH",
"76 157.667 OFFCURVE",
"76.333 158 OFFCURVE",
"77 158 CURVE SMOOTH",
"83 158 OFFCURVE",
"90.667 148.333 OFFCURVE",
"100 129 CURVE SMOOTH",
"128.667 71.667 OFFCURVE",
"157 29.333 OFFCURVE",
"185 2 CURVE"
);
}
);
userData = {
assembly = "NPUSHB[ ]	/* 50 values pushed */\0121 88 88 64 89 0 83 79 50 37 36 79 39 36 35 33 5 67 69 9 25 23 23 25 63 5 27 21 5 71 11 5 0 85 5 48 3 7 75 15 7 75 57 7 33 75 41 1 48 70 \012SROUND[ ]	/* SuperRound */\012MDAP[1]	/* MoveDirectAbsPt */\012SHZ[1]	/* ShiftZoneByLastPoint */\012RTG[ ]	/* RoundToGrid */\012SVTCA[0]	/* SetFreedomAndProjectionVectorToAxis */\012MDAP[1]	/* MoveDirectAbsPt */\012MDAP[1]	/* MoveDirectAbsPt */\012MDAP[1]	/* MoveDirectAbsPt */\012MIRP[11101]	/* MoveIndirectRelPt */\012SRP0[ ]	/* SetRefPoint0 */\012MIRP[11101]	/* MoveIndirectRelPt */\012SRP0[ ]	/* SetRefPoint0 */\012MIRP[11101]	/* MoveIndirectRelPt */\012SVTCA[1]	/* SetFreedomAndProjectionVectorToAxis */\012MDAP[1]	/* MoveDirectAbsPt */\012MIRP[11101]	/* MoveIndirectRelPt */\012MDAP[1]	/* MoveDirectAbsPt */\012MIRP[11101]	/* MoveIndirectRelPt */\012MDAP[1]	/* MoveDirectAbsPt */\012MIRP[11101]	/* MoveIndirectRelPt */\012MDAP[1]	/* MoveDirectAbsPt */\012MIRP[11101]	/* MoveIndirectRelPt */\012SDPVTL[1]	/* SetDualPVectorToLine */\012MDAP[0]	/* MoveDirectAbsPt */\012SFVTPV[ ]	/* SetFVectorToPVector */\012MDRP[00100]	/* MoveDirectRelPt */\012SFVTPV[ ]	/* SetFVectorToPVector */\012MIRP[11100]	/* MoveIndirectRelPt */\012SFVTPV[ ]	/* SetFVectorToPVector */\012MDRP[00100]	/* MoveDirectRelPt */\012SVTCA[1]	/* SetFreedomAndProjectionVectorToAxis */\012MDAP[0]	/* MoveDirectAbsPt */\012MDAP[0]	/* MoveDirectAbsPt */\012MDAP[0]	/* MoveDirectAbsPt */\012MDAP[0]	/* MoveDirectAbsPt */\012MDAP[0]	/* MoveDirectAbsPt */\012MDAP[0]	/* MoveDirectAbsPt */\012SVTCA[0]	/* SetFreedomAndProjectionVectorToAxis */\012MDAP[0]	/* MoveDirectAbsPt */\012MDAP[0]	/* MoveDirectAbsPt */\012MDAP[0]	/* MoveDirectAbsPt */\012MDAP[0]	/* MoveDirectAbsPt */\012MDAP[0]	/* MoveDirectAbsPt */\012IUP[1]	/* InterpolateUntPts */\012IUP[0]	/* InterpolateUntPts */\012SVTCA[1]	/* SetFreedomAndProjectionVectorToAxis */\012MD[0]	/* MeasureDistance */\012ROUND[00]	/* Round */\012PUSHW[ ]	/* 2 values pushed */\01248 88 \012MD[0]	/* MeasureDistance */\012ROUND[00]	/* Round */\012SUB[ ]	/* Subtract */\012PUSHB[ ]	/* 1 value pushed */\01264 \012GT[ ]	/* GreaterThan */\012IF[ ]	/* If */\012SHPIX[ ]	/* ShiftZoneByPixel */\012SRP1[ ]	/* SetRefPoint1 */\012SHZ[1]	/* ShiftZoneByLastPoint */\012PUSHW[ ]	/* 2 values pushed */\01288 -64 \012SHPIX[ ]	/* ShiftZoneByPixel */\012EIF[ ]	/* EndIf */";
};
width = 617;
}
);
note = S;
unicode = 0053;
},
{
color = 3;
glyphname = Germandbls;
lastChange = "2021-08-02 21:07:15 +0000";
layers = (
{
layerId = "BE19588B-E19B-4B9D-8A17-411D65DA33D8";
paths = (
{
closed = 1;
nodes = (
"210 493 OFFCURVE",
"148 248 OFFCURVE",
"62 37 CURVE SMOOTH",
"5 -102 OFFCURVE",
"-76 -167 OFFCURVE",
"-137 -167 CURVE SMOOTH",
"-162 -167 OFFCURVE",
"-203 -147 OFFCURVE",
"-200 -154 CURVE SMOOTH",
"-191 -174 OFFCURVE",
"-157 -189 OFFCURVE",
"-132 -189 CURVE SMOOTH",
"-116 -189 OFFCURVE",
"-97 -184 OFFCURVE",
"-74 -175 CURVE SMOOTH",
"-11 -150 OFFCURVE",
"48 -79 OFFCURVE",
"105 38 CURVE SMOOTH",
"148 124 OFFCURVE",
"231 471 OFFCURVE",
"342 471 CURVE SMOOTH",
"422 471 OFFCURVE",
"430 361 OFFCURVE",
"418 302 CURVE",
"410 308 OFFCURVE",
"396 312 OFFCURVE",
"384 312 CURVE SMOOTH",
"302 312 OFFCURVE",
"266 256 OFFCURVE",
"318 144 CURVE SMOOTH",
"350 75 OFFCURVE",
"333 -11 OFFCURVE",
"224 -8 CURVE SMOOTH",
"179 -8 OFFCURVE",
"168 24 OFFCURVE",
"171 44 CURVE SMOOTH",
"174 64 OFFCURVE",
"141 48 OFFCURVE",
"137 33 CURVE SMOOTH",
"128 0 OFFCURVE",
"164 -26 OFFCURVE",
"226 -26 CURVE SMOOTH",
"258 -26 OFFCURVE",
"288 -17 OFFCURVE",
"313 -1 CURVE SMOOTH",
"389 44 OFFCURVE",
"396 88 OFFCURVE",
"368 147 CURVE SMOOTH",
"333 231 OFFCURVE",
"325 286 OFFCURVE",
"389 286 CURVE SMOOTH",
"420 286 OFFCURVE",
"422 282 OFFCURVE",
"425 288 CURVE SMOOTH",
"482 386 OFFCURVE",
"438 493 OFFCURVE",
"342 493 CURVE SMOOTH"
);
}
);
width = 425;
}
);
unicode = 1E9E;
},
{
color = 3;
glyphname = Schwa;
lastChange = "2021-08-02 20:56:00 +0000";
layers = (
{
hints = (
{
place = "{9, -28}";
type = Stem;
},
{
place = "{-131, -25}";
type = Stem;
}
);
layerId = "BE19588B-E19B-4B9D-8A17-411D65DA33D8";
paths = (
{
closed = 1;
nodes = (
"238 500 OFFCURVE",
"110 431 OFFCURVE",
"110 337 CURVE SMOOTH",
"110 324 OFFCURVE",
"114 314 OFFCURVE",
"121 309 CURVE",
"159 409 OFFCURVE",
"232 479 OFFCURVE",
"310 479 CURVE SMOOTH",
"376 479 OFFCURVE",
"396 438 OFFCURVE",
"396 380 CURVE SMOOTH",
"396 347 OFFCURVE",
"389 306 OFFCURVE",
"375 264 CURVE",
"369 263 OFFCURVE",
"363 263 OFFCURVE",
"356 262 CURVE SMOOTH",
"200 250 OFFCURVE",
"22 189 OFFCURVE",
"22 71 CURVE SMOOTH",
"22 28 OFFCURVE",
"62 -9 OFFCURVE",
"131 -9 CURVE SMOOTH",
"291 -9 OFFCURVE",
"443 201 OFFCURVE",
"443 362 CURVE SMOOTH",
"443 440 OFFCURVE",
"416 500 OFFCURVE",
"316 500 CURVE SMOOTH"
);
},
{
closed = 1;
nodes = (
"94 9 OFFCURVE",
"69 35 OFFCURVE",
"69 64 CURVE SMOOTH",
"69 164 OFFCURVE",
"250 256 OFFCURVE",
"366 244 CURVE",
"323 130 OFFCURVE",
"236 9 OFFCURVE",
"128 9 CURVE SMOOTH"
);
}
);
width = 463;
}
);
unicode = 018F;
},
{
color = 3;
glyphname = T;
lastChange = "2021-08-02 20:56:00 +0000";
layers = (
{
layerId = "BE19588B-E19B-4B9D-8A17-411D65DA33D8";
paths = (
{
closed = 1;
nodes = (
"754 445 OFFCURVE",
"747 458.667 OFFCURVE",
"733 472 CURVE SMOOTH",
"723 481.333 OFFCURVE",
"715.667 486 OFFCURVE",
"711 486 CURVE SMOOTH",
"705.667 486 OFFCURVE",
"703 484.333 OFFCURVE",
"703 481 CURVE SMOOTH",
"703 478.333 OFFCURVE",
"707.167 472.667 OFFCURVE",
"715.5 464 CURVE SMOOTH",
"723.833 455.333 OFFCURVE",
"728 448 OFFCURVE",
"728 442 CURVE SMOOTH",
"728 421.333 OFFCURVE",
"710.333 411 OFFCURVE",
"675 411 CURVE SMOOTH",
"635.667 411 OFFCURVE",
"580 427.667 OFFCURVE",
"508 461 CURVE",
"512.667 469.667 OFFCURVE",
"517 474 OFFCURVE",
"521 474 CURVE SMOOTH",
"523.667 474 OFFCURVE",
"526.5 472.667 OFFCURVE",
"529.5 470 CURVE SMOOTH",
"532.5 467.333 OFFCURVE",
"534.667 466 OFFCURVE",
"536 466 CURVE SMOOTH",
"540.667 466 OFFCURVE",
"543 469.333 OFFCURVE",
"543 476 CURVE SMOOTH",
"543 494 OFFCURVE",
"534.667 503 OFFCURVE",
"518 503 CURVE SMOOTH",
"505.333 503 OFFCURVE",
"493 493.333 OFFCURVE",
"481 474 CURVE",
"435 496 LINE SMOOTH",
"374.333 523.333 OFFCURVE",
"311 537 OFFCURVE",
"245 537 CURVE SMOOTH",
"153 537 OFFCURVE",
"84.667 504.333 OFFCURVE",
"40 439 CURVE SMOOTH",
"14 401 OFFCURVE",
"1 363 OFFCURVE",
"1 325 CURVE SMOOTH",
"1 282.333 OFFCURVE",
"17.333 248 OFFCURVE",
"50 222 CURVE SMOOTH",
"80.667 197.333 OFFCURVE",
"117.667 185 OFFCURVE",
"161 185 CURVE SMOOTH",
"172.333 185 OFFCURVE",
"190.667 187 OFFCURVE",
"216 191 CURVE SMOOTH",
"225.333 192.333 OFFCURVE",
"230 196 OFFCURVE",
"230 202 CURVE SMOOTH",
"230 208 OFFCURVE",
"224.667 211 OFFCURVE",
"214 211 CURVE SMOOTH",
"200.667 211 OFFCURVE",
"194 211 OFFCURVE",
"194 211 CURVE",
"175 210 LINE SMOOTH",
"137 210 OFFCURVE",
"105.667 218.667 OFFCURVE",
"81 236 CURVE SMOOTH",
"53 255.333 OFFCURVE",
"39 283.333 OFFCURVE",
"39 320 CURVE SMOOTH",
"39 348.667 OFFCURVE",
"47.667 377.333 OFFCURVE",
"65 406 CURVE SMOOTH",
"106.333 473.333 OFFCURVE",
"168.667 507 OFFCURVE",
"252 507 CURVE SMOOTH",
"319.333 507 OFFCURVE",
"391.333 488.667 OFFCURVE",
"468 452 CURVE",
"430 389.333 OFFCURVE",
"393.667 315.667 OFFCURVE",
"359 231 CURVE SMOOTH",
"317.667 129 OFFCURVE",
"297 51 OFFCURVE",
"297 -3 CURVE SMOOTH",
"297 -15 OFFCURVE",
"297.667 -22.667 OFFCURVE",
"299 -26 CURVE SMOOTH",
"301.667 -32.667 OFFCURVE",
"308 -36 OFFCURVE",
"318 -36 CURVE SMOOTH",
"330.667 -36 OFFCURVE",
"341 -31.667 OFFCURVE",
"349 -23 CURVE SMOOTH",
"364.333 -6.333 OFFCURVE",
"372 5.333 OFFCURVE",
"372 12 CURVE SMOOTH",
"372 15.333 OFFCURVE",
"369.667 17 OFFCURVE",
"365 17 CURVE SMOOTH",
"363 17 OFFCURVE",
"358.5 14.5 OFFCURVE",
"351.5 9.5 CURVE SMOOTH",
"344.5 4.5 OFFCURVE",
"340.667 2 OFFCURVE",
"340 2 CURVE SMOOTH",
"338.667 2 OFFCURVE",
"338 3.667 OFFCURVE",
"338 7 CURVE SMOOTH",
"338 22.333 OFFCURVE",
"342.667 47.667 OFFCURVE",
"352 83 CURVE SMOOTH",
"372.667 161 OFFCURVE",
"406.667 252.333 OFFCURVE",
"454 357 CURVE SMOOTH",
"472.667 399 OFFCURVE",
"486 427 OFFCURVE",
"494 441 CURVE",
"562.667 401.667 OFFCURVE",
"623.333 382 OFFCURVE",
"676 382 CURVE SMOOTH",
"694.667 382 OFFCURVE",
"711.333 385.667 OFFCURVE",
"726 393 CURVE SMOOTH",
"744.667 401.667 OFFCURVE",
"754 414.333 OFFCURVE",
"754 431 CURVE SMOOTH"
);
}
);
userData = {
assembly = "NPUSHB[ ]	/* 48 values pushed */\0121 87 87 64 88 0 72 69 63 51 45 43 41 17 14 6 81 74 67 47 31 19 5 27 12 5 27 37 5 55 78 6 0 4 7 76 33 7 59 59 23 83 3 65 3 1 55 70 \012SROUND[ ]	/* SuperRound */\012MDAP[1]	/* MoveDirectAbsPt */\012SHZ[1]	/* ShiftZoneByLastPoint */\012RTG[ ]	/* RoundToGrid */\012SVTCA[0]	/* SetFreedomAndProjectionVectorToAxis */\012MIAP[1]	/* MoveIndirectAbsPt */\012MIAP[1]	/* MoveIndirectAbsPt */\012MDAP[1]	/* MoveDirectAbsPt */\012MDAP[1]	/* MoveDirectAbsPt */\012SRP0[ ]	/* SetRefPoint0 */\012MIRP[11101]	/* MoveIndirectRelPt */\012MDAP[1]	/* MoveDirectAbsPt */\012MIRP[11101]	/* MoveIndirectRelPt */\012SVTCA[1]	/* SetFreedomAndProjectionVectorToAxis */\012MDAP[1]	/* MoveDirectAbsPt */\012MIRP[11101]	/* MoveIndirectRelPt */\012MDAP[1]	/* MoveDirectAbsPt */\012MIRP[11101]	/* MoveIndirectRelPt */\012MDAP[1]	/* MoveDirectAbsPt */\012MIRP[11101]	/* MoveIndirectRelPt */\012SRP0[ ]	/* SetRefPoint0 */\012MIRP[11101]	/* MoveIndirectRelPt */\012MDAP[0]	/* MoveDirectAbsPt */\012MDAP[0]	/* MoveDirectAbsPt */\012MDAP[0]	/* MoveDirectAbsPt */\012MDAP[0]	/* MoveDirectAbsPt */\012MDAP[0]	/* MoveDirectAbsPt */\012SVTCA[0]	/* SetFreedomAndProjectionVectorToAxis */\012MDAP[0]	/* MoveDirectAbsPt */\012MDAP[0]	/* MoveDirectAbsPt */\012MDAP[0]	/* MoveDirectAbsPt */\012MDAP[0]	/* MoveDirectAbsPt */\012MDAP[0]	/* MoveDirectAbsPt */\012MDAP[0]	/* MoveDirectAbsPt */\012MDAP[0]	/* MoveDirectAbsPt */\012MDAP[0]	/* MoveDirectAbsPt */\012MDAP[0]	/* MoveDirectAbsPt */\012MDAP[0]	/* MoveDirectAbsPt */\012IUP[1]	/* InterpolateUntPts */\012IUP[0]	/* InterpolateUntPts */\012SVTCA[1]	/* SetFreedomAndProjectionVectorToAxis */\012MD[0]	/* MeasureDistance */\012ROUND[00]	/* Round */\012PUSHW[ ]	/* 2 values pushed */\01255 87 \012MD[0]	/* MeasureDistance */\012ROUND[00]	/* Round */\012SUB[ ]	/* Subtract */\012PUSHB[ ]	/* 1 value pushed */\01264 \012GT[ ]	/* GreaterThan */\012IF[ ]	/* If */\012SHPIX[ ]	/* ShiftZoneByPixel */\012SRP1[ ]	/* SetRefPoint1 */\012SHZ[1]	/* ShiftZoneByLastPoint */\012PUSHW[ ]	/* 2 values pushed */\01287 -64 \012SHPIX[ ]	/* ShiftZoneByPixel */\012EIF[ ]	/* EndIf */";
};
width = 427;
}
);
note = T;
unicode = 0054;
},
{
color = 3;
glyphname = U;
lastChange = "2021-08-02 20:56:00 +0000";
layers = (
{
layerId = "BE19588B-E19B-4B9D-8A17-411D65DA33D8";
paths = (
{
closed = 1;
nodes = (
"658 401 OFFCURVE",
"652.333 412 OFFCURVE",
"641 412 CURVE SMOOTH",
"629.667 412 OFFCURVE",
"617 399 OFFCURVE",
"603 373 CURVE SMOOTH",
"521 219 OFFCURVE",
"447 110.667 OFFCURVE",
"381 48 CURVE SMOOTH",
"352.333 20.667 OFFCURVE",
"332.333 7 OFFCURVE",
"321 7 CURVE SMOOTH",
"313 7 OFFCURVE",
"309 13.667 OFFCURVE",
"309 27 CURVE SMOOTH",
"309 36.333 OFFCURVE",
"310.333 47.667 OFFCURVE",
"313 61 CURVE SMOOTH",
"322.333 107.667 OFFCURVE",
"340.333 159.667 OFFCURVE",
"367 217 CURVE SMOOTH",
"418.333 328.333 OFFCURVE",
"444 397 OFFCURVE",
"444 423 CURVE SMOOTH",
"444 463.667 OFFCURVE",
"414 484 OFFCURVE",
"354 484 CURVE SMOOTH",
"290 484 OFFCURVE",
"204.667 448.333 OFFCURVE",
"154 403 CURVE SMOOTH",
"51.333 311.667 OFFCURVE",
"0 229.333 OFFCURVE",
"0 156 CURVE SMOOTH",
"0 131.333 OFFCURVE",
"6.333 108.667 OFFCURVE",
"19 88 CURVE SMOOTH",
"33 64.667 OFFCURVE",
"51.333 51 OFFCURVE",
"74 47 CURVE SMOOTH",
"82 45.667 OFFCURVE",
"90 45 OFFCURVE",
"98 45 CURVE SMOOTH",
"124 45 OFFCURVE",
"152 53 OFFCURVE",
"182 69 CURVE SMOOTH",
"216.667 87 OFFCURVE",
"234 108 OFFCURVE",
"234 132 CURVE SMOOTH",
"234 135 LINE SMOOTH",
"234 140.333 OFFCURVE",
"231.667 143 OFFCURVE",
"227 143 CURVE SMOOTH",
"225.667 143 OFFCURVE",
"219.333 136.667 OFFCURVE",
"208 124 CURVE SMOOTH",
"175.333 86.667 OFFCURVE",
"140.667 68 OFFCURVE",
"104 68 CURVE SMOOTH",
"60.667 68 OFFCURVE",
"39 91 OFFCURVE",
"39 137 CURVE SMOOTH",
"39 177 OFFCURVE",
"52 219.667 OFFCURVE",
"78 265 CURVE SMOOTH",
"101.333 305.667 OFFCURVE",
"130 340.667 OFFCURVE",
"164 370 CURVE SMOOTH",
"231.333 428 OFFCURVE",
"292.333 457 OFFCURVE",
"347 457 CURVE SMOOTH",
"384.333 457 OFFCURVE",
"403 446.333 OFFCURVE",
"403 425 CURVE SMOOTH",
"403 393 OFFCURVE",
"378 324 OFFCURVE",
"328 218 CURVE SMOOTH",
"279.333 114.667 OFFCURVE",
"255 42.333 OFFCURVE",
"255 1 CURVE SMOOTH",
"255 -24.333 OFFCURVE",
"269.333 -37 OFFCURVE",
"298 -37 CURVE SMOOTH",
"330 -37 OFFCURVE",
"361.667 -22.333 OFFCURVE",
"393 7 CURVE",
"414.333 32.333 OFFCURVE",
"434 57 OFFCURVE",
"452 81 CURVE SMOOTH",
"557 227 LINE",
"560 231 LINE",
"512.667 102.333 OFFCURVE",
"489 25 OFFCURVE",
"489 -1 CURVE SMOOTH",
"489 -20.333 OFFCURVE",
"499 -30 OFFCURVE",
"519 -30 CURVE SMOOTH",
"547 -30 OFFCURVE",
"601 21.333 OFFCURVE",
"601 48 CURVE SMOOTH",
"601 53.333 OFFCURVE",
"599 56 OFFCURVE",
"595 56 CURVE SMOOTH",
"591.667 56 OFFCURVE",
"587 53 OFFCURVE",
"581 47 CURVE SMOOTH",
"553 19 OFFCURVE",
"534.667 2.333 OFFCURVE",
"526 -3 CURVE",
"524 -5 LINE",
"524 -3 LINE SMOOTH",
"524 30.333 OFFCURVE",
"548.333 104 OFFCURVE",
"597 218 CURVE SMOOTH",
"632 299 LINE SMOOTH",
"649.333 340.333 OFFCURVE",
"658 367 OFFCURVE",
"658 379 CURVE SMOOTH"
);
}
);
userData = {
assembly = "NPUSHB[ ]	/* 52 values pushed */\0121 85 85 64 86 0 83 48 21 17 12 7 58 57 21 19 14 7 6 0 5 34 75 5 30 51 50 5 62 34 5 69 42 5 62 77 7 28 36 7 67 44 7 58 57 55 28 67 3 1 62 70 \012SROUND[ ]	/* SuperRound */\012MDAP[1]	/* MoveDirectAbsPt */\012SHZ[1]	/* ShiftZoneByLastPoint */\012RTG[ ]	/* RoundToGrid */\012SVTCA[0]	/* SetFreedomAndProjectionVectorToAxis */\012MIAP[1]	/* MoveIndirectAbsPt */\012MDAP[1]	/* MoveDirectAbsPt */\012MDAP[1]	/* MoveDirectAbsPt */\012ALIGNRP[ ]	/* AlignRelativePt */\012ALIGNRP[ ]	/* AlignRelativePt */\012MIRP[11101]	/* MoveIndirectRelPt */\012SRP0[ ]	/* SetRefPoint0 */\012MIRP[11101]	/* MoveIndirectRelPt */\012SRP0[ ]	/* SetRefPoint0 */\012MIRP[11101]	/* MoveIndirectRelPt */\012SVTCA[1]	/* SetFreedomAndProjectionVectorToAxis */\012MDAP[1]	/* MoveDirectAbsPt */\012MIRP[11101]	/* MoveIndirectRelPt */\012MDAP[1]	/* MoveDirectAbsPt */\012MIRP[11101]	/* MoveIndirectRelPt */\012SRP0[ ]	/* SetRefPoint0 */\012MIRP[11101]	/* MoveIndirectRelPt */\012ALIGNRP[ ]	/* AlignRelativePt */\012MDAP[1]	/* MoveDirectAbsPt */\012MIRP[11101]	/* MoveIndirectRelPt */\012SRP0[ ]	/* SetRefPoint0 */\012MIRP[11101]	/* MoveIndirectRelPt */\012MDAP[0]	/* MoveDirectAbsPt */\012MDAP[0]	/* MoveDirectAbsPt */\012MDAP[0]	/* MoveDirectAbsPt */\012MDAP[0]	/* MoveDirectAbsPt */\012MDAP[0]	/* MoveDirectAbsPt */\012MDAP[0]	/* MoveDirectAbsPt */\012MDAP[0]	/* MoveDirectAbsPt */\012SVTCA[0]	/* SetFreedomAndProjectionVectorToAxis */\012MDAP[0]	/* MoveDirectAbsPt */\012MDAP[0]	/* MoveDirectAbsPt */\012MDAP[0]	/* MoveDirectAbsPt */\012MDAP[0]	/* MoveDirectAbsPt */\012MDAP[0]	/* MoveDirectAbsPt */\012MDAP[0]	/* MoveDirectAbsPt */\012IUP[1]	/* InterpolateUntPts */\012IUP[0]	/* InterpolateUntPts */\012SVTCA[1]	/* SetFreedomAndProjectionVectorToAxis */\012MD[0]	/* MeasureDistance */\012ROUND[00]	/* Round */\012PUSHW[ ]	/* 2 values pushed */\01262 85 \012MD[0]	/* MeasureDistance */\012ROUND[00]	/* Round */\012SUB[ ]	/* Subtract */\012PUSHB[ ]	/* 1 value pushed */\01264 \012GT[ ]	/* GreaterThan */\012IF[ ]	/* If */\012SHPIX[ ]	/* ShiftZoneByPixel */\012SRP1[ ]	/* SetRefPoint1 */\012SHZ[1]	/* ShiftZoneByLastPoint */\012PUSHW[ ]	/* 2 values pushed */\01285 -64 \012SHPIX[ ]	/* ShiftZoneByPixel */\012EIF[ ]	/* EndIf */";
};
width = 622;
}
);
note = U;
unicode = 0055;
},
{
color = 3;
glyphname = V;
lastChange = "2021-08-02 20:56:00 +0000";
layers = (
{
layerId = "BE19588B-E19B-4B9D-8A17-411D65DA33D8";
paths = (
{
closed = 1;
nodes = (
"855 499.667 OFFCURVE",
"840 510 OFFCURVE",
"810 510 CURVE SMOOTH",
"782.667 510 OFFCURVE",
"755 501 OFFCURVE",
"727 483 CURVE SMOOTH",
"663.667 442.333 OFFCURVE",
"599.333 365.333 OFFCURVE",
"534 252 CURVE SMOOTH",
"423 56 LINE SMOOTH",
"402.333 20 OFFCURVE",
"387.333 -2.333 OFFCURVE",
"378 -11 CURVE",
"376.667 -6.333 OFFCURVE",
"376 0.667 OFFCURVE",
"376 10 CURVE SMOOTH",
"376 44 OFFCURVE",
"381.833 94.5 OFFCURVE",
"393.5 161.5 CURVE SMOOTH",
"405.167 228.5 OFFCURVE",
"411 279 OFFCURVE",
"411 313 CURVE SMOOTH",
"411 430.333 OFFCURVE",
"356.333 489 OFFCURVE",
"247 489 CURVE SMOOTH",
"179.667 489 OFFCURVE",
"121.667 466.333 OFFCURVE",
"73 421 CURVE SMOOTH",
"22.333 375 OFFCURVE",
"-3 318.667 OFFCURVE",
"-3 252 CURVE SMOOTH",
"-3 214.667 OFFCURVE",
"4.667 181.667 OFFCURVE",
"20 153 CURVE SMOOTH",
"46.667 102.333 OFFCURVE",
"102 68 OFFCURVE",
"158 68 CURVE SMOOTH",
"211.333 68 OFFCURVE",
"259 106 OFFCURVE",
"259 158 CURVE SMOOTH",
"259 175.333 OFFCURVE",
"249.667 206 OFFCURVE",
"235 206 CURVE SMOOTH",
"229.667 206 OFFCURVE",
"227 203 OFFCURVE",
"227 197 CURVE SMOOTH",
"227 193 OFFCURVE",
"228.5 186.5 OFFCURVE",
"231.5 177.5 CURVE SMOOTH",
"234.5 168.5 OFFCURVE",
"236 161.333 OFFCURVE",
"236 156 CURVE SMOOTH",
"236 117.333 OFFCURVE",
"203 92 OFFCURVE",
"163 92 CURVE SMOOTH",
"124.333 92 OFFCURVE",
"92 108.333 OFFCURVE",
"66 141 CURVE SMOOTH",
"42.667 171.667 OFFCURVE",
"31 207 OFFCURVE",
"31 247 CURVE SMOOTH",
"31 365.667 OFFCURVE",
"116.667 466 OFFCURVE",
"234 466 CURVE SMOOTH",
"304.667 466 OFFCURVE",
"348.667 433.333 OFFCURVE",
"366 368 CURVE SMOOTH",
"369.333 355.333 OFFCURVE",
"371 336.333 OFFCURVE",
"371 311 CURVE SMOOTH",
"371 275.667 OFFCURVE",
"366.667 231 OFFCURVE",
"358 177 CURVE SMOOTH",
"336 42 LINE SMOOTH",
"332 12 OFFCURVE",
"330 -11.333 OFFCURVE",
"330 -28 CURVE SMOOTH",
"330 -52 OFFCURVE",
"334 -64 OFFCURVE",
"342 -64 CURVE SMOOTH",
"354.667 -64 OFFCURVE",
"373.667 -54.667 OFFCURVE",
"399 -36 CURVE SMOOTH",
"405 -31.333 OFFCURVE",
"414 -19.333 OFFCURVE",
"426 0 CURVE SMOOTH",
"434.667 14 OFFCURVE",
"442.333 27.333 OFFCURVE",
"449 40 CURVE SMOOTH",
"519.667 172.667 OFFCURVE",
"569.667 260 OFFCURVE",
"599 302 CURVE SMOOTH",
"679 417.333 OFFCURVE",
"752 475 OFFCURVE",
"818 475 CURVE SMOOTH",
"821.333 475 OFFCURVE",
"826.167 474 OFFCURVE",
"832.5 472 CURVE SMOOTH",
"838.833 470 OFFCURVE",
"843.333 469 OFFCURVE",
"846 469 CURVE SMOOTH",
"852 469 OFFCURVE",
"855 472.333 OFFCURVE",
"855 479 CURVE SMOOTH"
);
}
);
userData = {
assembly = "NPUSHB[ ]	/* 47 values pushed */\0121 74 74 64 75 0 64 42 2 62 40 17 0 66 68 9 9 11 7 7 11 45 6 37 59 5 23 30 5 53 5 7 72 27 7 57 34 7 48 15 72 3 57 3 1 53 70 \012SROUND[ ]	/* SuperRound */\012MDAP[1]	/* MoveDirectAbsPt */\012SHZ[1]	/* ShiftZoneByLastPoint */\012RTG[ ]	/* RoundToGrid */\012SVTCA[0]	/* SetFreedomAndProjectionVectorToAxis */\012MIAP[1]	/* MoveIndirectAbsPt */\012MIAP[1]	/* MoveIndirectAbsPt */\012MDAP[1]	/* MoveDirectAbsPt */\012MDAP[1]	/* MoveDirectAbsPt */\012MIRP[11101]	/* MoveIndirectRelPt */\012SRP0[ ]	/* SetRefPoint0 */\012MIRP[11101]	/* MoveIndirectRelPt */\012SRP0[ ]	/* SetRefPoint0 */\012MIRP[11101]	/* MoveIndirectRelPt */\012SVTCA[1]	/* SetFreedomAndProjectionVectorToAxis */\012MDAP[1]	/* MoveDirectAbsPt */\012MIRP[11101]	/* MoveIndirectRelPt */\012MDAP[1]	/* MoveDirectAbsPt */\012MIRP[11101]	/* MoveIndirectRelPt */\012MDAP[1]	/* MoveDirectAbsPt */\012MIRP[11101]	/* MoveIndirectRelPt */\012SDPVTL[1]	/* SetDualPVectorToLine */\012MDAP[0]	/* MoveDirectAbsPt */\012SFVTPV[ ]	/* SetFVectorToPVector */\012MDRP[00100]	/* MoveDirectRelPt */\012SFVTPV[ ]	/* SetFVectorToPVector */\012MDRP[00100]	/* MoveDirectRelPt */\012SFVTPV[ ]	/* SetFVectorToPVector */\012MIRP[11100]	/* MoveIndirectRelPt */\012SFVTPV[ ]	/* SetFVectorToPVector */\012MDRP[00100]	/* MoveDirectRelPt */\012SVTCA[1]	/* SetFreedomAndProjectionVectorToAxis */\012MDAP[0]	/* MoveDirectAbsPt */\012MDAP[0]	/* MoveDirectAbsPt */\012MDAP[0]	/* MoveDirectAbsPt */\012MDAP[0]	/* MoveDirectAbsPt */\012SVTCA[0]	/* SetFreedomAndProjectionVectorToAxis */\012MDAP[0]	/* MoveDirectAbsPt */\012MDAP[0]	/* MoveDirectAbsPt */\012MDAP[0]	/* MoveDirectAbsPt */\012IUP[1]	/* InterpolateUntPts */\012IUP[0]	/* InterpolateUntPts */\012SVTCA[1]	/* SetFreedomAndProjectionVectorToAxis */\012MD[0]	/* MeasureDistance */\012ROUND[00]	/* Round */\012PUSHW[ ]	/* 2 values pushed */\01253 74 \012MD[0]	/* MeasureDistance */\012ROUND[00]	/* Round */\012SUB[ ]	/* Subtract */\012PUSHB[ ]	/* 1 value pushed */\01264 \012GT[ ]	/* GreaterThan */\012IF[ ]	/* If */\012SHPIX[ ]	/* ShiftZoneByPixel */\012SRP1[ ]	/* SetRefPoint1 */\012SHZ[1]	/* ShiftZoneByLastPoint */\012PUSHW[ ]	/* 2 values pushed */\01274 -64 \012SHPIX[ ]	/* ShiftZoneByPixel */\012EIF[ ]	/* EndIf */";
};
width = 545;
}
);
note = V;
unicode = 0056;
},
{
color = 3;
glyphname = W;
lastChange = "2021-08-02 20:56:00 +0000";
layers = (
{
layerId = "BE19588B-E19B-4B9D-8A17-411D65DA33D8";
paths = (
{
closed = 1;
nodes = (
"809 431 OFFCURVE",
"806.667 433 OFFCURVE",
"802 433 CURVE SMOOTH",
"797.333 433 OFFCURVE",
"791 429.667 OFFCURVE",
"783 423 CURVE SMOOTH",
"775 416.333 OFFCURVE",
"768.667 413 OFFCURVE",
"764 413 CURVE SMOOTH",
"760.667 413 OFFCURVE",
"751.833 420.5 OFFCURVE",
"737.5 435.5 CURVE SMOOTH",
"723.167 450.5 OFFCURVE",
"711 458 OFFCURVE",
"701 458 CURVE SMOOTH",
"685 458 OFFCURVE",
"677 450.667 OFFCURVE",
"677 436 CURVE SMOOTH",
"677 425.333 OFFCURVE",
"686 414.333 OFFCURVE",
"704 403 CURVE SMOOTH",
"714.667 396.333 OFFCURVE",
"724.667 392.333 OFFCURVE",
"734 391 CURVE",
"740 377.667 OFFCURVE",
"743 360 OFFCURVE",
"743 338 CURVE SMOOTH",
"743 280.667 OFFCURVE",
"728 221.667 OFFCURVE",
"698 161 CURVE SMOOTH",
"678 120.333 OFFCURVE",
"654 85.333 OFFCURVE",
"626 56 CURVE SMOOTH",
"589.333 17.333 OFFCURVE",
"553.333 -2 OFFCURVE",
"518 -2 CURVE SMOOTH",
"475.333 -2 OFFCURVE",
"454 34.333 OFFCURVE",
"454 107 CURVE SMOOTH",
"454 191.667 OFFCURVE",
"470.667 277.333 OFFCURVE",
"504 364 CURVE",
"504 369 OFFCURVE",
"498 370 OFFCURVE",
"495 370 CURVE",
"455 337.333 OFFCURVE",
"431.667 318 OFFCURVE",
"425 312 CURVE SMOOTH",
"361.667 254 OFFCURVE",
"287.333 157 OFFCURVE",
"202 21 CURVE",
"226 81.667 OFFCURVE",
"254.667 149.667 OFFCURVE",
"288 225 CURVE SMOOTH",
"328.667 316.333 OFFCURVE",
"349 380.333 OFFCURVE",
"349 417 CURVE SMOOTH",
"349 461 OFFCURVE",
"322 483 OFFCURVE",
"268 483 CURVE SMOOTH",
"238.667 483 OFFCURVE",
"205 475 OFFCURVE",
"167 459 CURVE SMOOTH",
"131.667 444.333 OFFCURVE",
"102 426.667 OFFCURVE",
"78 406 CURVE SMOOTH",
"48 380 OFFCURVE",
"21 348.333 OFFCURVE",
"-3 311 CURVE SMOOTH",
"-29.667 267 OFFCURVE",
"-43 228.333 OFFCURVE",
"-43 195 CURVE SMOOTH",
"-43 167.667 OFFCURVE",
"-36.667 145.333 OFFCURVE",
"-24 128 CURVE SMOOTH",
"-9.333 108 OFFCURVE",
"11 98 OFFCURVE",
"37 98 CURVE SMOOTH",
"61.667 98 OFFCURVE",
"90 106 OFFCURVE",
"122 122 CURVE SMOOTH",
"158 140 OFFCURVE",
"176 160.333 OFFCURVE",
"176 183 CURVE SMOOTH",
"176 192.333 OFFCURVE",
"174 197 OFFCURVE",
"170 197 CURVE SMOOTH",
"167.333 197 OFFCURVE",
"160.667 191.333 OFFCURVE",
"150 180 CURVE SMOOTH",
"119.333 146.667 OFFCURVE",
"88 130 OFFCURVE",
"56 130 CURVE SMOOTH",
"12 130 OFFCURVE",
"-10 150.333 OFFCURVE",
"-10 191 CURVE SMOOTH",
"-10 245.667 OFFCURVE",
"17 300.667 OFFCURVE",
"71 356 CURVE SMOOTH",
"137.667 423.333 OFFCURVE",
"202.667 457 OFFCURVE",
"266 457 CURVE SMOOTH",
"299.333 457 OFFCURVE",
"316 447.333 OFFCURVE",
"316 428 CURVE SMOOTH",
"316 397.333 OFFCURVE",
"297 338 OFFCURVE",
"256 251 CURVE SMOOTH",
"236 208 LINE SMOOTH",
"210 151 OFFCURVE",
"195 110.667 OFFCURVE",
"187 88 CURVE SMOOTH",
"152.333 4.667 OFFCURVE",
"135 -49 OFFCURVE",
"135 -73 CURVE SMOOTH",
"135 -81.667 OFFCURVE",
"137.667 -86 OFFCURVE",
"143 -86 CURVE SMOOTH",
"152.333 -86 OFFCURVE",
"163.667 -76.333 OFFCURVE",
"177 -57 CURVE SMOOTH",
"193.667 -31.667 OFFCURVE",
"205.333 -14.333 OFFCURVE",
"212 -5 CURVE SMOOTH",
"272 83 OFFCURVE",
"316 145.333 OFFCURVE",
"344 182 CURVE SMOOTH",
"367.333 212.667 OFFCURVE",
"400.667 248.667 OFFCURVE",
"444 290 CURVE",
"428 215.333 OFFCURVE",
"420 156.667 OFFCURVE",
"420 114 CURVE SMOOTH",
"420 19.333 OFFCURVE",
"455.333 -28 OFFCURVE",
"526 -28 CURVE SMOOTH",
"577.333 -28 OFFCURVE",
"626.333 -2 OFFCURVE",
"673 50 CURVE SMOOTH",
"743.667 128.667 OFFCURVE",
"779 218.667 OFFCURVE",
"779 320 CURVE SMOOTH",
"779 350.667 OFFCURVE",
"775 375.667 OFFCURVE",
"767 395 CURVE",
"785.667 397.667 OFFCURVE",
"809 411 OFFCURVE",
"809 427 CURVE SMOOTH"
);
}
);
userData = {
assembly = "NPUSHB[ ]	/* 55 values pushed */\0121 99 99 64 100 0 97 94 91 87 86 71 67 43 13 87 86 72 67 23 13 3 89 5 0 45 5 53 11 5 74 63 5 31 37 5 53 82 5 5 39 7 49 76 7 9 33 7 61 21 61 3 1 53 70 \012SROUND[ ]	/* SuperRound */\012MDAP[1]	/* MoveDirectAbsPt */\012SHZ[1]	/* ShiftZoneByLastPoint */\012RTG[ ]	/* RoundToGrid */\012SVTCA[0]	/* SetFreedomAndProjectionVectorToAxis */\012MIAP[1]	/* MoveIndirectAbsPt */\012MDAP[1]	/* MoveDirectAbsPt */\012SRP0[ ]	/* SetRefPoint0 */\012MIRP[11101]	/* MoveIndirectRelPt */\012MDAP[1]	/* MoveDirectAbsPt */\012MIRP[11101]	/* MoveIndirectRelPt */\012MDAP[1]	/* MoveDirectAbsPt */\012MIRP[11101]	/* MoveIndirectRelPt */\012SVTCA[1]	/* SetFreedomAndProjectionVectorToAxis */\012MDAP[1]	/* MoveDirectAbsPt */\012MIRP[11101]	/* MoveIndirectRelPt */\012MDAP[1]	/* MoveDirectAbsPt */\012MIRP[11101]	/* MoveIndirectRelPt */\012MDAP[1]	/* MoveDirectAbsPt */\012MIRP[11101]	/* MoveIndirectRelPt */\012MDAP[1]	/* MoveDirectAbsPt */\012MIRP[11101]	/* MoveIndirectRelPt */\012SRP0[ ]	/* SetRefPoint0 */\012MIRP[11101]	/* MoveIndirectRelPt */\012MDAP[1]	/* MoveDirectAbsPt */\012MIRP[11101]	/* MoveIndirectRelPt */\012MDAP[0]	/* MoveDirectAbsPt */\012MDAP[0]	/* MoveDirectAbsPt */\012MDAP[0]	/* MoveDirectAbsPt */\012MDAP[0]	/* MoveDirectAbsPt */\012MDAP[0]	/* MoveDirectAbsPt */\012MDAP[0]	/* MoveDirectAbsPt */\012MDAP[0]	/* MoveDirectAbsPt */\012SVTCA[0]	/* SetFreedomAndProjectionVectorToAxis */\012MDAP[0]	/* MoveDirectAbsPt */\012MDAP[0]	/* MoveDirectAbsPt */\012MDAP[0]	/* MoveDirectAbsPt */\012MDAP[0]	/* MoveDirectAbsPt */\012MDAP[0]	/* MoveDirectAbsPt */\012MDAP[0]	/* MoveDirectAbsPt */\012MDAP[0]	/* MoveDirectAbsPt */\012MDAP[0]	/* MoveDirectAbsPt */\012MDAP[0]	/* MoveDirectAbsPt */\012IUP[1]	/* InterpolateUntPts */\012IUP[0]	/* InterpolateUntPts */\012SVTCA[1]	/* SetFreedomAndProjectionVectorToAxis */\012MD[0]	/* MeasureDistance */\012ROUND[00]	/* Round */\012PUSHW[ ]	/* 2 values pushed */\01253 99 \012MD[0]	/* MeasureDistance */\012ROUND[00]	/* Round */\012SUB[ ]	/* Subtract */\012PUSHB[ ]	/* 1 value pushed */\01264 \012GT[ ]	/* GreaterThan */\012IF[ ]	/* If */\012SHPIX[ ]	/* ShiftZoneByPixel */\012SRP1[ ]	/* SetRefPoint1 */\012SHZ[1]	/* ShiftZoneByLastPoint */\012PUSHW[ ]	/* 2 values pushed */\01299 -64 \012SHPIX[ ]	/* ShiftZoneByPixel */\012EIF[ ]	/* EndIf */";
};
width = 752;
}
);
note = W;
unicode = 0057;
},
{
color = 3;
glyphname = X;
lastChange = "2021-08-02 20:56:00 +0000";
layers = (
{
layerId = "BE19588B-E19B-4B9D-8A17-411D65DA33D8";
paths = (
{
closed = 1;
nodes = (
"778 473 OFFCURVE",
"765 479 OFFCURVE",
"739 479 CURVE SMOOTH",
"728.333 479 OFFCURVE",
"716.667 477 OFFCURVE",
"704 473 CURVE SMOOTH",
"669.333 462.333 OFFCURVE",
"604 403.333 OFFCURVE",
"508 296 CURVE",
"496.667 423.333 OFFCURVE",
"448.667 487 OFFCURVE",
"364 487 CURVE SMOOTH",
"249.333 487 OFFCURVE",
"148 389.667 OFFCURVE",
"148 275 CURVE SMOOTH",
"148 202.333 OFFCURVE",
"179 166 OFFCURVE",
"241 166 CURVE SMOOTH",
"257 166 OFFCURVE",
"272.333 169.333 OFFCURVE",
"287 176 CURVE SMOOTH",
"306.333 184.667 OFFCURVE",
"316 195.667 OFFCURVE",
"316 209 CURVE SMOOTH",
"316 213.667 OFFCURVE",
"314.333 216 OFFCURVE",
"311 216 CURVE SMOOTH",
"312.333 216 OFFCURVE",
"273 192 OFFCURVE",
"249 192 CURVE SMOOTH",
"235 192 OFFCURVE",
"220.667 197 OFFCURVE",
"206 207 CURVE SMOOTH",
"188 219 OFFCURVE",
"179 239.667 OFFCURVE",
"179 269 CURVE SMOOTH",
"179 367.667 OFFCURVE",
"264.667 467 OFFCURVE",
"362 467 CURVE SMOOTH",
"379.333 467 OFFCURVE",
"394.333 463.333 OFFCURVE",
"407 456 CURVE SMOOTH",
"444.333 434.667 OFFCURVE",
"465.667 367 OFFCURVE",
"471 253 CURVE",
"411 185 LINE SMOOTH",
"281 41.667 OFFCURVE",
"186.667 -30 OFFCURVE",
"128 -30 CURVE SMOOTH",
"102 -30 OFFCURVE",
"81.333 -16.667 OFFCURVE",
"66 10 CURVE SMOOTH",
"53.333 32.667 OFFCURVE",
"47 58 OFFCURVE",
"47 86 CURVE SMOOTH",
"47 108 OFFCURVE",
"51.667 133.333 OFFCURVE",
"61 162 CURVE SMOOTH",
"62.333 166 OFFCURVE",
"63 170 OFFCURVE",
"63 174 CURVE SMOOTH",
"63 182.667 OFFCURVE",
"60 187 OFFCURVE",
"54 187 CURVE SMOOTH",
"42.667 187 OFFCURVE",
"33 170.667 OFFCURVE",
"25 138 CURVE SMOOTH",
"19 112.667 OFFCURVE",
"16 91.333 OFFCURVE",
"16 74 CURVE SMOOTH",
"16 38.667 OFFCURVE",
"23.667 9 OFFCURVE",
"39 -15 CURVE SMOOTH",
"57 -43 OFFCURVE",
"82.667 -57 OFFCURVE",
"116 -57 CURVE SMOOTH",
"198 -57 OFFCURVE",
"316.333 31.333 OFFCURVE",
"471 208 CURVE",
"471 120 LINE SMOOTH",
"471.667 23.333 OFFCURVE",
"488 -25 OFFCURVE",
"520 -25 CURVE SMOOTH",
"539.333 -25 OFFCURVE",
"560.667 -15 OFFCURVE",
"584 5 CURVE SMOOTH",
"595.333 15 OFFCURVE",
"607.667 28.667 OFFCURVE",
"621 46 CURVE SMOOTH",
"636.333 67.333 OFFCURVE",
"644 83.667 OFFCURVE",
"644 95 CURVE SMOOTH",
"644 101 OFFCURVE",
"641.333 104 OFFCURVE",
"636 104 CURVE",
"636 104 OFFCURVE",
"560 9 OFFCURVE",
"536 9 CURVE SMOOTH",
"520 9 OFFCURVE",
"512 71.333 OFFCURVE",
"512 196 CURVE SMOOTH",
"512 208 LINE SMOOTH",
"511.333 214.667 OFFCURVE",
"511 220 OFFCURVE",
"511 224 CURVE SMOOTH",
"511 252 LINE",
"632.333 384.667 OFFCURVE",
"711.667 451 OFFCURVE",
"749 451 CURVE SMOOTH",
"768.333 451 OFFCURVE",
"778 454.333 OFFCURVE",
"778 461 CURVE SMOOTH"
);
}
);
userData = {
assembly = "NPUSHB[ ]	/* 53 values pushed */\0121 83 83 64 84 0 77 64 36 26 15 38 17 0 66 5 72 50 26 25 5 10 6 4 3 8 42 5 32 57 5 72 12 7 23 2 7 81 46 7 28 54 7 75 61 7 70 28 75 3 1 32 70 \012SROUND[ ]	/* SuperRound */\012MDAP[1]	/* MoveDirectAbsPt */\012SHZ[1]	/* ShiftZoneByLastPoint */\012RTG[ ]	/* RoundToGrid */\012SVTCA[0]	/* SetFreedomAndProjectionVectorToAxis */\012MIAP[1]	/* MoveIndirectAbsPt */\012MDAP[1]	/* MoveDirectAbsPt */\012MDAP[1]	/* MoveDirectAbsPt */\012MIRP[11101]	/* MoveIndirectRelPt */\012SRP0[ ]	/* SetRefPoint0 */\012MIRP[11101]	/* MoveIndirectRelPt */\012SRP0[ ]	/* SetRefPoint0 */\012MIRP[11101]	/* MoveIndirectRelPt */\012MDAP[1]	/* MoveDirectAbsPt */\012MIRP[11101]	/* MoveIndirectRelPt */\012MDAP[1]	/* MoveDirectAbsPt */\012MIRP[11101]	/* MoveIndirectRelPt */\012SVTCA[1]	/* SetFreedomAndProjectionVectorToAxis */\012MDAP[1]	/* MoveDirectAbsPt */\012MIRP[11101]	/* MoveIndirectRelPt */\012MDAP[1]	/* MoveDirectAbsPt */\012MIRP[11101]	/* MoveIndirectRelPt */\012MDAP[1]	/* MoveDirectAbsPt */\012SLOOP[ ]	/* SetLoopVariable */\012ALIGNRP[ ]	/* AlignRelativePt */\012MIRP[11101]	/* MoveIndirectRelPt */\012ALIGNRP[ ]	/* AlignRelativePt */\012ALIGNRP[ ]	/* AlignRelativePt */\012SRP0[ ]	/* SetRefPoint0 */\012MIRP[11101]	/* MoveIndirectRelPt */\012MDAP[0]	/* MoveDirectAbsPt */\012MDAP[0]	/* MoveDirectAbsPt */\012MDAP[0]	/* MoveDirectAbsPt */\012SVTCA[0]	/* SetFreedomAndProjectionVectorToAxis */\012MDAP[0]	/* MoveDirectAbsPt */\012MDAP[0]	/* MoveDirectAbsPt */\012MDAP[0]	/* MoveDirectAbsPt */\012MDAP[0]	/* MoveDirectAbsPt */\012MDAP[0]	/* MoveDirectAbsPt */\012IUP[1]	/* InterpolateUntPts */\012IUP[0]	/* InterpolateUntPts */\012SVTCA[1]	/* SetFreedomAndProjectionVectorToAxis */\012MD[0]	/* MeasureDistance */\012ROUND[00]	/* Round */\012PUSHW[ ]	/* 2 values pushed */\01232 83 \012MD[0]	/* MeasureDistance */\012ROUND[00]	/* Round */\012SUB[ ]	/* Subtract */\012PUSHB[ ]	/* 1 value pushed */\01264 \012GT[ ]	/* GreaterThan */\012IF[ ]	/* If */\012SHPIX[ ]	/* ShiftZoneByPixel */\012SRP1[ ]	/* SetRefPoint1 */\012SHZ[1]	/* ShiftZoneByLastPoint */\012PUSHW[ ]	/* 2 values pushed */\01283 -64 \012SHPIX[ ]	/* ShiftZoneByPixel */\012EIF[ ]	/* EndIf */";
};
width = 614;
}
);
note = X;
unicode = 0058;
},
{
color = 3;
glyphname = Y;
lastChange = "2021-08-02 20:56:00 +0000";
layers = (
{
layerId = "BE19588B-E19B-4B9D-8A17-411D65DA33D8";
paths = (
{
closed = 1;
nodes = (
"689 427.333 OFFCURVE",
"683 433 OFFCURVE",
"671 433 CURVE SMOOTH",
"654.333 433 OFFCURVE",
"641.333 418.333 OFFCURVE",
"632 389 CURVE SMOOTH",
"600.667 291.667 OFFCURVE",
"517 178.667 OFFCURVE",
"381 50 CURVE SMOOTH",
"351 21.333 OFFCURVE",
"330.333 7 OFFCURVE",
"319 7 CURVE SMOOTH",
"313.667 7 OFFCURVE",
"311 12 OFFCURVE",
"311 22 CURVE SMOOTH",
"311 54.667 OFFCURVE",
"335.333 123.333 OFFCURVE",
"384 228 CURVE SMOOTH",
"438.667 345.333 OFFCURVE",
"466 416.667 OFFCURVE",
"466 442 CURVE SMOOTH",
"466 464.667 OFFCURVE",
"455.333 481.667 OFFCURVE",
"434 493 CURVE SMOOTH",
"416.667 502.333 OFFCURVE",
"396 507 OFFCURVE",
"372 507 CURVE SMOOTH",
"338.667 507 OFFCURVE",
"301.333 498.333 OFFCURVE",
"260 481 CURVE SMOOTH",
"221.333 465 OFFCURVE",
"188.667 445.333 OFFCURVE",
"162 422 CURVE SMOOTH",
"54.667 326.667 OFFCURVE",
"1 240.333 OFFCURVE",
"1 163 CURVE SMOOTH",
"1 130.333 OFFCURVE",
"9.667 103.333 OFFCURVE",
"27 82 CURVE SMOOTH",
"45.667 58.667 OFFCURVE",
"71 47 OFFCURVE",
"103 47 CURVE SMOOTH",
"131 47 OFFCURVE",
"160 55.333 OFFCURVE",
"190 72 CURVE SMOOTH",
"226 92 OFFCURVE",
"244 114.333 OFFCURVE",
"244 139 CURVE SMOOTH",
"244 142 LINE SMOOTH",
"244.667 147.333 OFFCURVE",
"242.667 150 OFFCURVE",
"238 150 CURVE SMOOTH",
"236.667 150 OFFCURVE",
"230 143.333 OFFCURVE",
"218 130 CURVE SMOOTH",
"183.333 90.667 OFFCURVE",
"147 71 OFFCURVE",
"109 71 CURVE SMOOTH",
"63 71 OFFCURVE",
"40 95.667 OFFCURVE",
"40 145 CURVE SMOOTH",
"40 187 OFFCURVE",
"53.667 232 OFFCURVE",
"81 280 CURVE SMOOTH",
"105.667 322.667 OFFCURVE",
"136 359 OFFCURVE",
"172 389 CURVE SMOOTH",
"242.667 448.333 OFFCURVE",
"306.333 478 OFFCURVE",
"363 478 CURVE SMOOTH",
"403 478 OFFCURVE",
"423 466.667 OFFCURVE",
"423 444 CURVE SMOOTH",
"423 409.333 OFFCURVE",
"396.833 336.667 OFFCURVE",
"344.5 226 CURVE SMOOTH",
"292.167 115.333 OFFCURVE",
"266 42 OFFCURVE",
"266 6 CURVE SMOOTH",
"266 -23.333 OFFCURVE",
"279.333 -38 OFFCURVE",
"306 -38 CURVE SMOOTH",
"334 -38 OFFCURVE",
"363.333 -22.667 OFFCURVE",
"394 8 CURVE SMOOTH",
"416 30 OFFCURVE",
"439.333 55.333 OFFCURVE",
"464 84 CURVE SMOOTH",
"520.667 150 OFFCURVE",
"573 219.333 OFFCURVE",
"621 292 CURVE",
"589.667 185.333 OFFCURVE",
"560.333 90 OFFCURVE",
"533 6 CURVE",
"489 -9.333 OFFCURVE",
"445.667 -42.667 OFFCURVE",
"403 -94 CURVE SMOOTH",
"365 -139.333 OFFCURVE",
"336.333 -187 OFFCURVE",
"317 -237 CURVE SMOOTH",
"307.667 -261 OFFCURVE",
"303 -280.667 OFFCURVE",
"303 -296 CURVE SMOOTH",
"303 -322 OFFCURVE",
"313.667 -335 OFFCURVE",
"335 -335 CURVE SMOOTH",
"380.333 -335 OFFCURVE",
"426.667 -292.667 OFFCURVE",
"474 -208 CURVE",
"499.333 -156 OFFCURVE",
"516.333 -119.333 OFFCURVE",
"525 -98 CURVE SMOOTH",
"560 -13 LINE",
"564.667 -10.333 OFFCURVE",
"569.333 -9 OFFCURVE",
"574 -9 CURVE SMOOTH",
"580 -9 OFFCURVE",
"583 -12.333 OFFCURVE",
"583 -19 CURVE SMOOTH",
"583 -31.667 OFFCURVE",
"587.333 -38 OFFCURVE",
"596 -38 CURVE SMOOTH",
"601.333 -38 OFFCURVE",
"604 -32 OFFCURVE",
"604 -20 CURVE SMOOTH",
"604 3.333 OFFCURVE",
"595 15 OFFCURVE",
"577 15 CURVE SMOOTH",
"572 15 LINE",
"650 247.667 OFFCURVE",
"689 381.333 OFFCURVE",
"689 416 CURVE SMOOTH"
);
},
{
closed = 1;
nodes = (
"497.667 -82.667 OFFCURVE",
"473 -135 OFFCURVE",
"447 -183 CURVE SMOOTH",
"401 -268.333 OFFCURVE",
"366 -311 OFFCURVE",
"342 -311 CURVE SMOOTH",
"337.333 -311 OFFCURVE",
"335 -304.333 OFFCURVE",
"335 -291 CURVE SMOOTH",
"335 -242.333 OFFCURVE",
"367.333 -177.667 OFFCURVE",
"432 -97 CURVE SMOOTH",
"455.333 -68.333 OFFCURVE",
"485 -44.667 OFFCURVE",
"521 -26 CURVE"
);
}
);
userData = {
assembly = "NPUSHB[ ]	/* 58 values pushed */\0121 98 98 64 99 0 88 86 53 28 88 28 2 0 56 55 5 64 9 6 5 78 5 36 39 5 74 47 5 64 92 5 20 80 7 34 7 3 2 7 11 94 7 18 41 7 70 49 7 60 18 70 3 11 1 1 64 70 \012SROUND[ ]	/* SuperRound */\012MDAP[1]	/* MoveDirectAbsPt */\012SHZ[1]	/* ShiftZoneByLastPoint */\012RTG[ ]	/* RoundToGrid */\012SVTCA[0]	/* SetFreedomAndProjectionVectorToAxis */\012MIAP[1]	/* MoveIndirectAbsPt */\012MIAP[1]	/* MoveIndirectAbsPt */\012MDAP[1]	/* MoveDirectAbsPt */\012MDAP[1]	/* MoveDirectAbsPt */\012MIRP[11101]	/* MoveIndirectRelPt */\012SRP0[ ]	/* SetRefPoint0 */\012MIRP[11101]	/* MoveIndirectRelPt */\012SRP0[ ]	/* SetRefPoint0 */\012MIRP[11101]	/* MoveIndirectRelPt */\012SRP0[ ]	/* SetRefPoint0 */\012MIRP[11101]	/* MoveIndirectRelPt */\012ALIGNRP[ ]	/* AlignRelativePt */\012MDAP[1]	/* MoveDirectAbsPt */\012ALIGNRP[ ]	/* AlignRelativePt */\012MIRP[11101]	/* MoveIndirectRelPt */\012SVTCA[1]	/* SetFreedomAndProjectionVectorToAxis */\012MDAP[1]	/* MoveDirectAbsPt */\012MIRP[11101]	/* MoveIndirectRelPt */\012MDAP[1]	/* MoveDirectAbsPt */\012MIRP[11101]	/* MoveIndirectRelPt */\012MDAP[1]	/* MoveDirectAbsPt */\012MIRP[11101]	/* MoveIndirectRelPt */\012MDAP[1]	/* MoveDirectAbsPt */\012MIRP[11101]	/* MoveIndirectRelPt */\012MDAP[1]	/* MoveDirectAbsPt */\012MIRP[11101]	/* MoveIndirectRelPt */\012SRP0[ ]	/* SetRefPoint0 */\012MIRP[11101]	/* MoveIndirectRelPt */\012ALIGNRP[ ]	/* AlignRelativePt */\012MDAP[0]	/* MoveDirectAbsPt */\012MDAP[0]	/* MoveDirectAbsPt */\012MDAP[0]	/* MoveDirectAbsPt */\012MDAP[0]	/* MoveDirectAbsPt */\012SVTCA[0]	/* SetFreedomAndProjectionVectorToAxis */\012MDAP[0]	/* MoveDirectAbsPt */\012MDAP[0]	/* MoveDirectAbsPt */\012MDAP[0]	/* MoveDirectAbsPt */\012MDAP[0]	/* MoveDirectAbsPt */\012IUP[1]	/* InterpolateUntPts */\012IUP[0]	/* InterpolateUntPts */\012SVTCA[1]	/* SetFreedomAndProjectionVectorToAxis */\012MD[0]	/* MeasureDistance */\012ROUND[00]	/* Round */\012PUSHW[ ]	/* 2 values pushed */\01264 98 \012MD[0]	/* MeasureDistance */\012ROUND[00]	/* Round */\012SUB[ ]	/* Subtract */\012PUSHB[ ]	/* 1 value pushed */\01264 \012GT[ ]	/* GreaterThan */\012IF[ ]	/* If */\012SHPIX[ ]	/* ShiftZoneByPixel */\012SRP1[ ]	/* SetRefPoint1 */\012SHZ[1]	/* ShiftZoneByLastPoint */\012PUSHW[ ]	/* 2 values pushed */\01298 -64 \012SHPIX[ ]	/* ShiftZoneByPixel */\012EIF[ ]	/* EndIf */";
};
width = 639;
}
);
note = Y;
unicode = 0059;
},
{
color = 3;
glyphname = Z;
lastChange = "2021-08-02 20:56:00 +0000";
layers = (
{
layerId = "BE19588B-E19B-4B9D-8A17-411D65DA33D8";
paths = (
{
closed = 1;
nodes = (
"641 434.667 OFFCURVE",
"623 448 OFFCURVE",
"611 448 CURVE SMOOTH",
"607.667 448 OFFCURVE",
"605.667 447.333 OFFCURVE",
"605 446 CURVE",
"605 443.333 OFFCURVE",
"606.833 440.167 OFFCURVE",
"610.5 436.5 CURVE SMOOTH",
"614.167 432.833 OFFCURVE",
"616 430.667 OFFCURVE",
"616 430 CURVE SMOOTH",
"616 426 OFFCURVE",
"598.333 423.667 OFFCURVE",
"563 423 CURVE",
"575 429.667 OFFCURVE",
"581 439 OFFCURVE",
"581 451 CURVE SMOOTH",
"581 457.667 OFFCURVE",
"578.333 461 OFFCURVE",
"573 461 CURVE SMOOTH",
"567.667 461 OFFCURVE",
"548.333 450 OFFCURVE",
"515 428 CURVE",
"431 440 OFFCURVE",
"367.667 446 OFFCURVE",
"325 446 CURVE SMOOTH",
"283.667 446 OFFCURVE",
"245.333 439.667 OFFCURVE",
"210 427 CURVE SMOOTH",
"164 411 OFFCURVE",
"135.667 387 OFFCURVE",
"125 355 CURVE SMOOTH",
"123.667 351 OFFCURVE",
"123 347 OFFCURVE",
"123 343 CURVE SMOOTH",
"123 325.667 OFFCURVE",
"132.333 315.333 OFFCURVE",
"151 312 CURVE SMOOTH",
"150 312 LINE",
"156 311 LINE SMOOTH",
"160.667 311 OFFCURVE",
"163 312.667 OFFCURVE",
"163 316 CURVE SMOOTH",
"163 316.667 OFFCURVE",
"160.333 319.667 OFFCURVE",
"155 325 CURVE SMOOTH",
"149.667 330.333 OFFCURVE",
"147 335.333 OFFCURVE",
"147 340 CURVE SMOOTH",
"147 349.333 OFFCURVE",
"155.333 361.333 OFFCURVE",
"172 376 CURVE SMOOTH",
"186.667 389.333 OFFCURVE",
"199.667 398.333 OFFCURVE",
"211 403 CURVE SMOOTH",
"241 415.667 OFFCURVE",
"277 422 OFFCURVE",
"319 422 CURVE SMOOTH",
"351.667 422 OFFCURVE",
"403.667 416 OFFCURVE",
"475 404 CURVE",
"261 256.667 OFFCURVE",
"114.667 118 OFFCURVE",
"36 -12 CURVE",
"32.667 -11.333 OFFCURVE",
"27.333 -9 OFFCURVE",
"20 -5 CURVE SMOOTH",
"12.667 -1 OFFCURVE",
"6.333 1 OFFCURVE",
"1 1 CURVE SMOOTH",
"-9.667 1 OFFCURVE",
"-15 -3 OFFCURVE",
"-15 -11 CURVE SMOOTH",
"-15 -29.667 OFFCURVE",
"-1.667 -39.667 OFFCURVE",
"25 -41 CURVE",
"24.333 -49 OFFCURVE",
"26.333 -53 OFFCURVE",
"31 -53 CURVE SMOOTH",
"35.667 -53 OFFCURVE",
"41 -49.333 OFFCURVE",
"47 -42 CURVE",
"79.667 -42 OFFCURVE",
"128.833 -37.667 OFFCURVE",
"194.5 -29 CURVE SMOOTH",
"260.167 -20.333 OFFCURVE",
"309.333 -16 OFFCURVE",
"342 -16 CURVE SMOOTH",
"401.333 -16 OFFCURVE",
"454.667 -21 OFFCURVE",
"502 -31 CURVE SMOOTH",
"564.667 -44.333 OFFCURVE",
"596 -65.667 OFFCURVE",
"596 -95 CURVE SMOOTH",
"596 -129.667 OFFCURVE",
"567.333 -147 OFFCURVE",
"510 -147 CURVE SMOOTH",
"504.667 -147 OFFCURVE",
"497.5 -145.833 OFFCURVE",
"488.5 -143.5 CURVE SMOOTH",
"479.5 -141.167 OFFCURVE",
"473.333 -140 OFFCURVE",
"470 -140 CURVE SMOOTH",
"462.667 -140 OFFCURVE",
"459 -141.667 OFFCURVE",
"459 -145 CURVE SMOOTH",
"459 -147.667 OFFCURVE",
"461 -150.333 OFFCURVE",
"465 -153 CURVE SMOOTH",
"481.667 -161 OFFCURVE",
"501.667 -165 OFFCURVE",
"525 -165 CURVE SMOOTH",
"574.333 -165 OFFCURVE",
"607.333 -144 OFFCURVE",
"624 -102 CURVE SMOOTH",
"627.333 -93.333 OFFCURVE",
"629 -85 OFFCURVE",
"629 -77 CURVE SMOOTH",
"629 -19 OFFCURVE",
"542.667 10 OFFCURVE",
"370 10 CURVE SMOOTH",
"356.667 10 OFFCURVE",
"308.333 5.333 OFFCURVE",
"225 -4 CURVE SMOOTH",
"189.667 -8 OFFCURVE",
"137.333 -11.333 OFFCURVE",
"68 -14 CURVE",
"112.667 48 OFFCURVE",
"184 121.333 OFFCURVE",
"282 206 CURVE SMOOTH",
"364.667 277.333 OFFCURVE",
"446.333 341.667 OFFCURVE",
"527 399 CURVE",
"546.333 396.333 OFFCURVE",
"561.667 395 OFFCURVE",
"573 395 CURVE SMOOTH",
"586.333 395 OFFCURVE",
"599.667 397 OFFCURVE",
"613 401 CURVE SMOOTH",
"631.667 406.333 OFFCURVE",
"641 414 OFFCURVE",
"641 424 CURVE SMOOTH"
);
}
);
userData = {
assembly = "NPUSHB[ ]	/* 54 values pushed */\0121 92 92 64 93 0 76 64 49 46 40 26 14 6 87 84 82 80 66 65 62 51 44 24 10 0 59 6 68 31 5 16 4 7 78 29 8 20 82 53 7 89 74 78 20 66 65 2 35 10 1 1 44 70 \012SROUND[ ]	/* SuperRound */\012MDAP[1]	/* MoveDirectAbsPt */\012SHZ[1]	/* ShiftZoneByLastPoint */\012RTG[ ]	/* RoundToGrid */\012SVTCA[0]	/* SetFreedomAndProjectionVectorToAxis */\012MIAP[1]	/* MoveIndirectAbsPt */\012ALIGNRP[ ]	/* AlignRelativePt */\012MIAP[1]	/* MoveIndirectAbsPt */\012ALIGNRP[ ]	/* AlignRelativePt */\012MDAP[1]	/* MoveDirectAbsPt */\012MDAP[1]	/* MoveDirectAbsPt */\012MDAP[1]	/* MoveDirectAbsPt */\012ALIGNRP[ ]	/* AlignRelativePt */\012MIRP[11101]	/* MoveIndirectRelPt */\012ALIGNRP[ ]	/* AlignRelativePt */\012SRP0[ ]	/* SetRefPoint0 */\012MIRP[11101]	/* MoveIndirectRelPt */\012SRP0[ ]	/* SetRefPoint0 */\012MIRP[11101]	/* MoveIndirectRelPt */\012SVTCA[1]	/* SetFreedomAndProjectionVectorToAxis */\012MDAP[1]	/* MoveDirectAbsPt */\012MIRP[11101]	/* MoveIndirectRelPt */\012MDAP[1]	/* MoveDirectAbsPt */\012MIRP[11101]	/* MoveIndirectRelPt */\012MDAP[0]	/* MoveDirectAbsPt */\012MDAP[0]	/* MoveDirectAbsPt */\012MDAP[0]	/* MoveDirectAbsPt */\012MDAP[0]	/* MoveDirectAbsPt */\012MDAP[0]	/* MoveDirectAbsPt */\012MDAP[0]	/* MoveDirectAbsPt */\012MDAP[0]	/* MoveDirectAbsPt */\012MDAP[0]	/* MoveDirectAbsPt */\012MDAP[0]	/* MoveDirectAbsPt */\012MDAP[0]	/* MoveDirectAbsPt */\012MDAP[0]	/* MoveDirectAbsPt */\012MDAP[0]	/* MoveDirectAbsPt */\012SVTCA[0]	/* SetFreedomAndProjectionVectorToAxis */\012MDAP[0]	/* MoveDirectAbsPt */\012MDAP[0]	/* MoveDirectAbsPt */\012MDAP[0]	/* MoveDirectAbsPt */\012MDAP[0]	/* MoveDirectAbsPt */\012MDAP[0]	/* MoveDirectAbsPt */\012MDAP[0]	/* MoveDirectAbsPt */\012MDAP[0]	/* MoveDirectAbsPt */\012MDAP[0]	/* MoveDirectAbsPt */\012IUP[1]	/* InterpolateUntPts */\012IUP[0]	/* InterpolateUntPts */\012SVTCA[1]	/* SetFreedomAndProjectionVectorToAxis */\012MD[0]	/* MeasureDistance */\012ROUND[00]	/* Round */\012PUSHW[ ]	/* 2 values pushed */\01244 92 \012MD[0]	/* MeasureDistance */\012ROUND[00]	/* Round */\012SUB[ ]	/* Subtract */\012PUSHB[ ]	/* 1 value pushed */\01264 \012GT[ ]	/* GreaterThan */\012IF[ ]	/* If */\012SHPIX[ ]	/* ShiftZoneByPixel */\012SRP1[ ]	/* SetRefPoint1 */\012SHZ[1]	/* ShiftZoneByLastPoint */\012PUSHW[ ]	/* 2 values pushed */\01292 -64 \012SHPIX[ ]	/* ShiftZoneByPixel */\012EIF[ ]	/* EndIf */";
};
width = 522;
}
);
note = Z;
unicode = 005A;
},
{
color = 3;
glyphname = a;
lastChange = "2021-08-02 20:56:00 +0000";
layers = (
{
layerId = "BE19588B-E19B-4B9D-8A17-411D65DA33D8";
paths = (
{
closed = 1;
nodes = (
"230 238 OFFCURVE",
"228.667 240 OFFCURVE",
"226 240 CURVE SMOOTH",
"216.667 240 OFFCURVE",
"193 217.667 OFFCURVE",
"189 207 CURVE SMOOTH",
"181.667 189.667 OFFCURVE",
"159.333 153.333 OFFCURVE",
"122 98 CURVE SMOOTH",
"82.667 40 OFFCURVE",
"58 11 OFFCURVE",
"48 11 CURVE SMOOTH",
"43.333 11 OFFCURVE",
"41 15.667 OFFCURVE",
"41 25 CURVE SMOOTH",
"41 40.333 OFFCURVE",
"46 61.667 OFFCURVE",
"56 89 CURVE SMOOTH",
"70 127.667 OFFCURVE",
"93.667 166 OFFCURVE",
"127 204 CURVE SMOOTH",
"151 231.333 OFFCURVE",
"170 245 OFFCURVE",
"184 245 CURVE SMOOTH",
"188.667 245 OFFCURVE",
"192.333 242.167 OFFCURVE",
"195 236.5 CURVE SMOOTH",
"197.667 230.833 OFFCURVE",
"199.667 228 OFFCURVE",
"201 228 CURVE SMOOTH",
"209 228 OFFCURVE",
"216 251.333 OFFCURVE",
"216 262 CURVE SMOOTH",
"216 275.333 OFFCURVE",
"207.667 282 OFFCURVE",
"191 282 CURVE SMOOTH",
"170.333 282 OFFCURVE",
"144.667 266.667 OFFCURVE",
"114 236 CURVE SMOOTH",
"88.667 210.667 OFFCURVE",
"69.333 186 OFFCURVE",
"56 162 CURVE SMOOTH",
"28 111.333 OFFCURVE",
"14 70.333 OFFCURVE",
"14 39 CURVE SMOOTH",
"14 9 OFFCURVE",
"24.667 -6 OFFCURVE",
"46 -6 CURVE SMOOTH",
"61.333 -6 OFFCURVE",
"83 13.333 OFFCURVE",
"111 52 CURVE SMOOTH",
"130.333 78.667 OFFCURVE",
"147.333 105.667 OFFCURVE",
"162 133 CURVE",
"137.333 69.667 OFFCURVE",
"125 27.333 OFFCURVE",
"125 6 CURVE SMOOTH",
"125 -2.667 OFFCURVE",
"128 -7 OFFCURVE",
"134 -7 CURVE SMOOTH",
"151.333 -7 OFFCURVE",
"207 33 OFFCURVE",
"207 49 CURVE SMOOTH",
"207 53 OFFCURVE",
"205.667 55 OFFCURVE",
"203 55 CURVE SMOOTH",
"200.333 55 OFFCURVE",
"193.667 49.667 OFFCURVE",
"183 39 CURVE SMOOTH",
"172.333 28.333 OFFCURVE",
"166 23 OFFCURVE",
"164 23 CURVE SMOOTH",
"161.333 23 OFFCURVE",
"160 26 OFFCURVE",
"160 32 CURVE SMOOTH",
"160 48 OFFCURVE",
"181.333 108.333 OFFCURVE",
"224 213 CURVE SMOOTH",
"228 223 OFFCURVE",
"230 230 OFFCURVE",
"230 234 CURVE SMOOTH"
);
}
);
userData = {
assembly = "NPUSHB[ ]	/* 37 values pushed */\0121 55 55 64 56 0 53 35 18 9 6 32 16 0 11 5 24 18 4 5 24 44 5 24 46 8 22 38 7 30 30 22 14 1 1 24 70 \012SROUND[ ]	/* SuperRound */\012MDAP[1]	/* MoveDirectAbsPt */\012SHZ[1]	/* ShiftZoneByLastPoint */\012RTG[ ]	/* RoundToGrid */\012SVTCA[0]	/* SetFreedomAndProjectionVectorToAxis */\012MIAP[1]	/* MoveIndirectAbsPt */\012ALIGNRP[ ]	/* AlignRelativePt */\012MDAP[1]	/* MoveDirectAbsPt */\012SRP0[ ]	/* SetRefPoint0 */\012MIRP[11101]	/* MoveIndirectRelPt */\012SRP0[ ]	/* SetRefPoint0 */\012MIRP[11101]	/* MoveIndirectRelPt */\012SVTCA[1]	/* SetFreedomAndProjectionVectorToAxis */\012MDAP[1]	/* MoveDirectAbsPt */\012MIRP[11101]	/* MoveIndirectRelPt */\012SRP0[ ]	/* SetRefPoint0 */\012MIRP[11101]	/* MoveIndirectRelPt */\012ALIGNRP[ ]	/* AlignRelativePt */\012SRP0[ ]	/* SetRefPoint0 */\012MIRP[11101]	/* MoveIndirectRelPt */\012MDAP[0]	/* MoveDirectAbsPt */\012MDAP[0]	/* MoveDirectAbsPt */\012MDAP[0]	/* MoveDirectAbsPt */\012SVTCA[0]	/* SetFreedomAndProjectionVectorToAxis */\012MDAP[0]	/* MoveDirectAbsPt */\012MDAP[0]	/* MoveDirectAbsPt */\012MDAP[0]	/* MoveDirectAbsPt */\012MDAP[0]	/* MoveDirectAbsPt */\012MDAP[0]	/* MoveDirectAbsPt */\012IUP[1]	/* InterpolateUntPts */\012IUP[0]	/* InterpolateUntPts */\012SVTCA[1]	/* SetFreedomAndProjectionVectorToAxis */\012MD[0]	/* MeasureDistance */\012ROUND[00]	/* Round */\012PUSHW[ ]	/* 2 values pushed */\01224 55 \012MD[0]	/* MeasureDistance */\012ROUND[00]	/* Round */\012SUB[ ]	/* Subtract */\012PUSHB[ ]	/* 1 value pushed */\01264 \012GT[ ]	/* GreaterThan */\012IF[ ]	/* If */\012SHPIX[ ]	/* ShiftZoneByPixel */\012SRP1[ ]	/* SetRefPoint1 */\012SHZ[1]	/* ShiftZoneByLastPoint */\012PUSHW[ ]	/* 2 values pushed */\01255 -64 \012SHPIX[ ]	/* ShiftZoneByPixel */\012EIF[ ]	/* EndIf */";
};
width = 218;
}
);
note = a;
unicode = 0061;
},
{
color = 3;
glyphname = ae;
lastChange = "2021-08-02 20:56:00 +0000";
layers = (
{
layerId = "BE19588B-E19B-4B9D-8A17-411D65DA33D8";
paths = (
{
closed = 1;
nodes = (
"341 303 OFFCURVE",
"336 321 OFFCURVE",
"326 321 CURVE SMOOTH",
"312.667 321 OFFCURVE",
"306 312 OFFCURVE",
"306 294 CURVE",
"303.333 296.667 OFFCURVE",
"299.333 298 OFFCURVE",
"294 298 CURVE SMOOTH",
"271.333 298 OFFCURVE",
"241.333 273 OFFCURVE",
"204 223 CURVE SMOOTH",
"196 212.333 OFFCURVE",
"165.333 166.333 OFFCURVE",
"112 85 CURVE SMOOTH",
"79.333 35.667 OFFCURVE",
"58 11 OFFCURVE",
"48 11 CURVE SMOOTH",
"43.333 11 OFFCURVE",
"41 15.667 OFFCURVE",
"41 25 CURVE SMOOTH",
"41 40.333 OFFCURVE",
"46 61.667 OFFCURVE",
"56 89 CURVE SMOOTH",
"70 127.667 OFFCURVE",
"93.667 166 OFFCURVE",
"127 204 CURVE SMOOTH",
"151 231.333 OFFCURVE",
"170 245 OFFCURVE",
"184 245 CURVE SMOOTH",
"188.667 245 OFFCURVE",
"192.333 242.167 OFFCURVE",
"195 236.5 CURVE SMOOTH",
"197.667 230.833 OFFCURVE",
"199.667 228 OFFCURVE",
"201 228 CURVE SMOOTH",
"209 228 OFFCURVE",
"216 251.333 OFFCURVE",
"216 262 CURVE SMOOTH",
"216 275.333 OFFCURVE",
"207.667 282 OFFCURVE",
"191 282 CURVE SMOOTH",
"170.333 282 OFFCURVE",
"144.667 266.667 OFFCURVE",
"114 236 CURVE SMOOTH",
"88.667 210.667 OFFCURVE",
"69.333 186 OFFCURVE",
"56 162 CURVE SMOOTH",
"28 111.333 OFFCURVE",
"14 70.333 OFFCURVE",
"14 39 CURVE SMOOTH",
"14 9 OFFCURVE",
"24.667 -6 OFFCURVE",
"46 -6 CURVE SMOOTH",
"70.667 -6 OFFCURVE",
"107 36 OFFCURVE",
"155 120 CURVE",
"149 99.333 OFFCURVE",
"146 79.333 OFFCURVE",
"146 60 CURVE SMOOTH",
"146 13.333 OFFCURVE",
"163.333 -10 OFFCURVE",
"198 -10 CURVE SMOOTH",
"208 -10 LINE",
"241.333 -4.667 OFFCURVE",
"309 60 OFFCURVE",
"309 92 CURVE SMOOTH",
"309 96 OFFCURVE",
"307.333 98 OFFCURVE",
"304 98 CURVE SMOOTH",
"305.333 98 OFFCURVE",
"230.667 9 OFFCURVE",
"200 9 CURVE SMOOTH",
"182.667 9 OFFCURVE",
"174 22.667 OFFCURVE",
"174 50 CURVE SMOOTH",
"174 82.667 OFFCURVE",
"184.333 120.667 OFFCURVE",
"205 164 CURVE",
"224.333 144.667 OFFCURVE",
"247.333 135 OFFCURVE",
"274 135 CURVE SMOOTH",
"318.667 135 OFFCURVE",
"341 179 OFFCURVE",
"341 267 CURVE SMOOTH"
);
},
{
closed = 1;
nodes = (
"308 222 OFFCURVE",
"304.667 205.333 OFFCURVE",
"298 188 CURVE SMOOTH",
"290 166.667 OFFCURVE",
"279.333 156 OFFCURVE",
"266 156 CURVE SMOOTH",
"254 156 OFFCURVE",
"236.667 164.333 OFFCURVE",
"214 181 CURVE",
"235.333 226.333 OFFCURVE",
"266 256.333 OFFCURVE",
"306 271 CURVE",
"306 267 OFFCURVE",
"306.333 261.5 OFFCURVE",
"307 254.5 CURVE SMOOTH",
"308 238 LINE SMOOTH"
);
}
);
userData = {
assembly = "NPUSHB[ ]	/* 48 values pushed */\0121 70 70 64 71 0 62 55 36 21 11 4 64 33 21 13 6 5 19 45 5 25 59 5 0 53 7 2 39 7 31 8 47 8 23 66 7 2 57 2 23 1 17 16 1 1 25 70 \012SROUND[ ]	/* SuperRound */\012MDAP[1]	/* MoveDirectAbsPt */\012SHZ[1]	/* ShiftZoneByLastPoint */\012RTG[ ]	/* RoundToGrid */\012SVTCA[0]	/* SetFreedomAndProjectionVectorToAxis */\012MIAP[1]	/* MoveIndirectAbsPt */\012ALIGNRP[ ]	/* AlignRelativePt */\012MIAP[1]	/* MoveIndirectAbsPt */\012MIAP[1]	/* MoveIndirectAbsPt */\012MDAP[1]	/* MoveDirectAbsPt */\012MIRP[11101]	/* MoveIndirectRelPt */\012SRP0[ ]	/* SetRefPoint0 */\012MIRP[11101]	/* MoveIndirectRelPt */\012ALIGNRP[ ]	/* AlignRelativePt */\012MDAP[1]	/* MoveDirectAbsPt */\012MIRP[11101]	/* MoveIndirectRelPt */\012SRP0[ ]	/* SetRefPoint0 */\012MIRP[11101]	/* MoveIndirectRelPt */\012SVTCA[1]	/* SetFreedomAndProjectionVectorToAxis */\012MDAP[1]	/* MoveDirectAbsPt */\012MIRP[11101]	/* MoveIndirectRelPt */\012MDAP[1]	/* MoveDirectAbsPt */\012MIRP[11101]	/* MoveIndirectRelPt */\012MDAP[1]	/* MoveDirectAbsPt */\012MIRP[11101]	/* MoveIndirectRelPt */\012MDAP[0]	/* MoveDirectAbsPt */\012MDAP[0]	/* MoveDirectAbsPt */\012MDAP[0]	/* MoveDirectAbsPt */\012MDAP[0]	/* MoveDirectAbsPt */\012SVTCA[0]	/* SetFreedomAndProjectionVectorToAxis */\012MDAP[0]	/* MoveDirectAbsPt */\012MDAP[0]	/* MoveDirectAbsPt */\012MDAP[0]	/* MoveDirectAbsPt */\012MDAP[0]	/* MoveDirectAbsPt */\012MDAP[0]	/* MoveDirectAbsPt */\012MDAP[0]	/* MoveDirectAbsPt */\012IUP[1]	/* InterpolateUntPts */\012IUP[0]	/* InterpolateUntPts */\012SVTCA[1]	/* SetFreedomAndProjectionVectorToAxis */\012MD[0]	/* MeasureDistance */\012ROUND[00]	/* Round */\012PUSHW[ ]	/* 2 values pushed */\01225 70 \012MD[0]	/* MeasureDistance */\012ROUND[00]	/* Round */\012SUB[ ]	/* Subtract */\012PUSHB[ ]	/* 1 value pushed */\01264 \012GT[ ]	/* GreaterThan */\012IF[ ]	/* If */\012SHPIX[ ]	/* ShiftZoneByPixel */\012SRP1[ ]	/* SetRefPoint1 */\012SHZ[1]	/* ShiftZoneByLastPoint */\012PUSHW[ ]	/* 2 values pushed */\01270 -64 \012SHPIX[ ]	/* ShiftZoneByPixel */\012EIF[ ]	/* EndIf */";
};
width = 323;
}
);
note = ae;
unicode = 00E6;
},
